<mxfile host="Electron" agent="Mozilla/5.0 (X11; Linux x86_64) AppleWebKit/537.36 (KHTML, like Gecko) draw.io/26.0.4 Chrome/128.0.6613.186 Electron/32.2.5 Safari/537.36" version="26.0.4">
  <diagram name="Page-1" id="0ApqCpNFB6DlIPfw4yF8">
    <mxGraphModel dx="1185" dy="686" grid="1" gridSize="10" guides="1" tooltips="1" connect="1" arrows="1" fold="1" page="1" pageScale="1" pageWidth="850" pageHeight="1100" math="0" shadow="0">
      <root>
        <mxCell id="0" />
        <mxCell id="1" parent="0" />
        <mxCell id="eTgD-rTSjZ_ZBX3sN6aC-35" value="" style="whiteSpace=wrap;html=1;strokeColor=none;" vertex="1" parent="1">
          <mxGeometry x="83.5" y="171" width="676.5" height="520" as="geometry" />
        </mxCell>
        <mxCell id="eTgD-rTSjZ_ZBX3sN6aC-23" value="" style="whiteSpace=wrap;html=1;fillColor=none;dashed=1;strokeColor=#007FFF;strokeWidth=2;" vertex="1" parent="1">
          <mxGeometry x="107.5" y="541" width="312.5" height="140" as="geometry" />
        </mxCell>
        <mxCell id="eTgD-rTSjZ_ZBX3sN6aC-24" value="" style="whiteSpace=wrap;html=1;fillColor=none;dashed=1;strokeColor=#007FFF;strokeWidth=2;" vertex="1" parent="1">
          <mxGeometry x="427.5" y="541" width="312.5" height="140" as="geometry" />
        </mxCell>
        <mxCell id="eTgD-rTSjZ_ZBX3sN6aC-25" value="Block #1" style="text;html=1;align=center;verticalAlign=middle;resizable=0;points=[];autosize=1;strokeColor=none;fillColor=none;" vertex="1" parent="1">
          <mxGeometry x="108.5" y="541" width="70" height="30" as="geometry" />
        </mxCell>
        <mxCell id="eTgD-rTSjZ_ZBX3sN6aC-19" value="" style="whiteSpace=wrap;html=1;fillColor=none;dashed=1;strokeColor=#FF9933;strokeWidth=2;" vertex="1" parent="1">
          <mxGeometry x="107.5" y="371" width="312.5" height="140" as="geometry" />
        </mxCell>
        <mxCell id="eTgD-rTSjZ_ZBX3sN6aC-20" value="" style="whiteSpace=wrap;html=1;fillColor=none;dashed=1;strokeColor=#FF9933;strokeWidth=2;" vertex="1" parent="1">
          <mxGeometry x="427.5" y="371" width="312.5" height="140" as="geometry" />
        </mxCell>
        <mxCell id="eTgD-rTSjZ_ZBX3sN6aC-18" value="" style="rounded=0;whiteSpace=wrap;html=1;strokeColor=none;fillColor=#666666;" vertex="1" parent="1">
          <mxGeometry x="130" y="495" width="600" height="10" as="geometry" />
        </mxCell>
        <mxCell id="eTgD-rTSjZ_ZBX3sN6aC-17" value="" style="rounded=0;whiteSpace=wrap;html=1;strokeColor=none;fillColor=#666666;" vertex="1" parent="1">
          <mxGeometry x="130" y="665" width="600" height="10" as="geometry" />
        </mxCell>
        <mxCell id="eTgD-rTSjZ_ZBX3sN6aC-4" value="" style="shape=image;verticalLabelPosition=bottom;labelBackgroundColor=default;verticalAlign=top;aspect=fixed;imageAspect=0;image=data:image/png,iVBORw0KGgoAAAANSUhEUgAABQAAAAFfCAYAAAARc2HGAAABhGlDQ1BJQ0MgcHJvZmlsZQAAKJF9kT1Iw0AcxV/TilqqDnYQEcxQneyiIo61CkWoEGqFVh1MLv2CJg1Jiouj4Fpw8GOx6uDirKuDqyAIfoC4C06KLlLi/5JCi1gPjvvx7t7j7h0g1MtMswIxQNNtM5WIi5nsqtj9il4EEcAo+mVmGXOSlETH8XUPH1/vojyr87k/R5+asxjgE4ljzDBt4g3imU3b4LxPHGZFWSU+J54w6YLEj1xXPH7jXHBZ4JlhM52aJw4Ti4U2VtqYFU2NeJo4omo65QsZj1XOW5y1cpU178lfGMrpK8tcpzmCBBaxBAkiFFRRQhk2orTqpFhI0X68g3/Y9UvkUshVAiPHAirQILt+8D/43a2Vn5r0kkJxoOvFcT7GgO5doFFznO9jx2mcAP5n4Epv+St1YPaT9FpLixwBA9vAxXVLU/aAyx1g6MmQTdmV/DSFfB54P6NvygKDt0BwzeutuY/TByBNXSVvgINDYLxA2esd3t3T3tu/Z5r9/QBKOHKWsUD58wAAIABJREFUeNrsvcuvbUuW3vVFxFxrn3Pfj3zefJWr7HLZhS1sC1sYjETHoodkEKKFBC06SPwntEBCNGnQRLYQCAPGloyMXXbZRbmyKt+ZlXkfeV95897z2HtFjDFojIg551prrn3Ofu+z4vtJu+45lXadvHEi5ogY4xvjC7glfmL2N06Ab2yAAEIIIYQQQgghhBBC+sMAhACcPQL++e+G8MFt/KG3koz7QbH/TgT/xXqNk8i/aEIIIYQQQgghhBDSIQZPxj3dAAC+P0T8V39uFf7+Tf+5N54A/O7G/uuXV/hvfvnRYzUVof6PEEIIIYQQQgghhPRJAGAIBnvz7dfWjx+d/fybb5z8218K4d2b/FOHm/7XOn16+h/L2YlCi8WYVvyLJoQQQgghhBBCCCH9EmAwfPLRr/OXvvL6t54Cfx3A/3yTf+KNd+Tmkl8xkxhiovaPEEIIIYQQQgghhHRPCAEhRQwJpsDLN/3n3XgCMEYz/rUSQgghhBBCCCGEELKN3ZI/Bz05CCGEEEIIIYQQQgg5YpgAJIQQQgghhBBCCCHkiGECkBBCCCGEEEIIIYSQI4YJQEIIIYQQQgghhBBCjhgmAAkhhBBCCCGEEEIIOWKYACSEEEIIIYQQQggh5IhhApAQQgghhBBCCCGEkCOGCUBCCCGEEEIIIYQQQo4YJgAJIYQQQgghhBBCCDlimAAkhBBCCCGEEEIIIeSIYQKQEEIIIYQQQgghhJAjhglAQgghhBBCCCGEEEKOGCYACSGEEEIIIYQQQgg5YpgAJIQQQgghhBBCCCHkiGECkBBCCCGEEEIIIYSQI4YJQEIIIYQQQgghhBBCjhgmAAkhhBBCCCGEEEIIOWKYACSEEEIIIYQQQggh5IhhApAQQgghhBBCCCGEkCOGCUBCCCGEEEIIIYQQQo4YJgAJIYQQQgghhBBCCDlimAAkhBBCCCGEEEIIIeSIYQKQEEIIIYQQQgghhJAjhglAQgghhBBCCCGEEEKOGCYACSGEEEIIIYQQQgg5YpgAJIQQQgghhBBCCCHkiGECkBBCCCGEEEIIIYSQI4YJQEIIIYQQQgghhBBCjpjhpv+ABCAGzzQa15sQQgghhBBCCCGEEEQA4Zb+rBtPAD6IES+fBJxo4N8sIYQQQgghhBBCCCEAxIDXAWxu4c+68QTgf/T3Tr/6+aYg2CbAmAQkhBBCCCGEEEIIIURFw+rNV/DWazi56T/rxhOAP/oUJ5unCgRjDzAhhBBCCCGEEEIIIQBgCmTFp2fxxj06bjwB+NJgtjkJiAEwJgAJIYQQQgghhBBCCAEswB4EvLQCvrjhP+rGE4BW/4eBCUBCCCGEEEIIIYQQQgAAWn/k5v+oyNUmhBBCCCGEEEIIIeSWuUWrDCYACSGEEEIIIYQQQgg5YpgAJIQQQgghhBBCCCHkiGECkBBCCCGEEEIIIYSQI4YJQEIIIYQQQgghhBBCjhgmAAkhhBBCCCGEEEIIOWKYACSEEEIIIYQQQggh5IhhApAQQgghhBBCCCGEkCOGCUBCCCGEEEIIIYQQQo4YJgAJIYQQQgghhBBCCDlimAAkhBBCCCGEEEIIIeSIYQKQEEIIIYQQQgghhJAjhglAQgghhBBCCCGEEEKOGCYACSGEEEIIIYQQQgg5YpgAJIQQQgghhBBCCCHkiGECkBBCCCGEEEIIIYSQI4YJQEIIIYQQQgghhBBCjhgmAAkhhBBCCCGEEEIIOWKYACSEEEIIIYQQQggh5IgZuATXT+ASjBiXgBBCCCGEEEIIeWFhjmObFzXPwQTgdaOAKZdhJII6U0IIIYQQQggh5AXFFADzHBMJL2RWlAnA66QAiMCrDw2l88NhAFYB+GIT/EPBJCAhhBBCCCGEEPJikYG4Al4+YZ4jAIgx4NETeBLwBctzMAF4jRvBFPif/v2M//TPGH51BqSOk15ZgbcfAv/jDyP+s78/IL4MKPuBCSGEEEIIIYSQFwMFMAA//TsZX3nJcFbQdT+wGvDGCfBf/pMB//0fRAwvAeUFynMwAXhNtL/zb78CPC4BjwqQOj4YWYHX18A7DwyIflACOBOQEEIIIYQQQgi577T3+5CALz80/HoTulcAFgPeWBu+86oBBQgvWJKDCcDrxIBTAYr6T89tr8V8DU4VzPoRQgghhBBCCCEvIKLAaal5DuvbEEQU2GjAqbyY//05me0mFpQWOeMScIMRQgghhBBCCCEv7ts+hO13fs+8yD6nVABeMxS7cT2e5wPKPcC1u82147px7bjnuG5cO64b143xgXuO68Z3JOHfxT1ck/p/7DZEhTeeAAz1f4QOvloWmRFf/PuP/vfPtZkOuHU0OyHEa7q1dLZu7dxcy5Yz+ABf7jnuOe65m1k3cM9d9qwGrhvPKuMD9xzjA/fcTcUHcuW3vAUg8i1/cIHCdeS6oueSUrr5/8o3ngD87EwCnkQo7PhTxyXgqXhgW9oDKQAxAuGI1sGC98EvOfwagKcFwBPAxDzgd48BqwSs+vmE2uk1DIsI9WcdPQL1EG2zwbJe/bsZAKyi77kezqAa7Kn5h9iudlQxBN9zvRzXjcGyXP2lEgCcdHJWAUAMdqbTvrlSfIj+w/jA+HAejA+X3HAGOzW/tF5LfAj9ZCgYH+44PsDPaS/xweDrJkbp2T1460MBWQVs5PCxTu1Y21FtQ4gt5znUDE+yAU8Mm4SrFzXUABg+HW7+23jjCcD/4W8//PDBgwdv5XxmUDvqr/2pBfzZVwvOxBBn32cF8CACP//c8O7nguFIgl4AcCaG33gr4WsvB2x06oVPEXi0UfzFtwf8t//JAzyM/HobgNUQ8auPn+DpZ6eIR24THUPAZiN44+uv4OVXT1CKXvraGGNEKYKPfvFrrEI4+sKxqSE9XOFLX3sFqlc7OzEGfPzLx5AnG4Qjv3BHANkMb3/jNaxXA1T10md1GCIePzrDZx88wnpI0GOuYARAi+Hk9Qf40pdfxuZKZ9XvMJ+89wV0I0e/52AGpIS333kVKQGX3HJjfPjk46c4++xxB/EBONso3ryW+AAUMXz08y+wCnb8wiI1xJMBX3rn1avHhxTwyYePkR9tEDuIDxs1vP3Oazg5uVp8WA0RTx5nfPr+51in5CKHI77LlaxYv7rGl995DZtNufRZDdE/mZ+8/wX0rLf4EK98J/n1r57iySedxIeieP3Lr+DV168WH8j1IHUjKjZ7yTCF5/S/94niV08U6xSO5osoZvidLyW8sg7INuU5YgS+2Bj+w99a4Z13HuDNQS99/5uto735pYiwxtnf+c9v9t/rxhOAf/vPDk9OViucPhEcewpfEHHy64AiirDzqYoReJoNnzyxoynexAA8yoZ3XjO/OOr2RetMgVdXAf/Bb6yQ0LlfOFy2f/LSgB/mL/DB0w1OTiJUj1NcZHXPb2LBn/3SK/jy1wfkU/XWm0s9UiKefiH4o482CCm2nMXxfktU8epLAX/hOyuIXO3spBTxx48yvrANUjzeynGLLiaK3/kK8MrrA7Topc/q6mHERx+c4YefnGH9cDj6s3p2pvjq6wN++zfXOH1SLn9WY0TJij/+rOAsZcR43GoFNWAdBb/zTsT6KkmFGh9+JF/gg9MN1uvjjw+nUfFbbxm+9o0BZXP571yMEadPN/ijD0+9+njk8UFV8fCh4Xe/vbr0fhvjwxDx/ceCz/IGaRWP9ppudU+oKP78V4HX3xhQrhAf1g8jPv5lxvc+PsNJF/FB8JU3Bvz5PzPg9DEuHx9CQFHDn/y64DT2ER9SFPzuOwHrBwNUrhAfHib8VB/h3ccbrI78rMYInJ0q/sxbhne+NSBv+Ia8F28TCyi/MtjC1y5F4IszxUdPgJcGgx7J/ixqKG/7npwP54sAThX45isBX39nQBK9lu/FV18Fyi0MSLjxBOD7X5S4WivOnh7/4dWg+JoCJ7Z8+xwisE4BJ+k4vtsRQNGAQ/E7mB+OD54oIvt/oWp4oIaPToHPSsRJilA53n/fGIHTEvHBUyA/MmzODJe968VB8fQJ8OkmIg3HfWEMcLn52VnAe08MUq52dtJg+Pg04GmJSCEefSeFFOD9J8DLg0EvuXaqwFoMnzwFPi0RD3K8cmXvvp/VswLEU+CVR4anT/XSaqAQFVoUH58BIhFRjnfP1a4YxAC898SwLnppRdYYH556fFjHHuKD4YNTQB8ZcrYrKAAVp6ceH2In8eHxme85lavGB8VHZ8BjiUjWQXwQ4IMnwKOVoZTL7TlV4EQMnz4BflUiHpTjP6tnxRCeAq8+Mjx9cpX44Hv2kzNgIxGpg/gQALz/xLASvfR5VQUeqOKXNT6sjvystvjw8ClgV4wP5Hrw1IbhWwdyHAjAKgQ8SIaTdDwjPqOc4/RrwOMMfPLIMFxDxlPNUF65nakSN54AHIaAVQS0g5EFGnyThHNGqRzT3Fut/z4H/2XreqwiwA5gwBCwjp4ITvXwHfO5iMH/PVfRRzMhXqFqHANK9ArT0MG3JGgtGESgXPHfd6hrNtRL1dGvXZz2nMTLnlX//7+KPrt1CMd/VgX+77mKgMRwhbPq6z7Uaumx77mg/l1q++Wy8X0eHwb4tzMe+Z4b6jlbXyE2tD2nde1iZ/Hhivm/MaYmjOLJo1+7Fh/idcUH9BAfDCleU3ywuu/QR3yIYRrtetkcgWH6v5Hq38Ux0+LD6hriA7n9vIDieASqz/r3iPVcXkdCTc3HfN7Gdh9uZeGY/Hm+v/h7JjGJ6CRjcIsfEbvARwXQe6c6iktfvuf4aDY/hnCVxXvRz9JF1s7298tV950938LduwLFRfbcfKtcdb77XLRsx7Dn4sGduLdHrnJWL7ruL/pZxTXsNyys//NctV/0+GALZ+264iv33A0cWMaH440P56zd0t310vHhBb/LXWbP3c1b2q48H/TevB/4fGSeg3mOa2fgdrwnhIAHD17CsB5wW5NEWiA2GKxmHDzI1EueGlQLtBT+/dzF4RweYFivEW7ZYa5dNMx0dumwyQRhdoO7f/tDEeKABw9eQroNH/WlM1XXzer/ws/X9rqZKSTne3a1CRgePMAw3Ic95+uiZnsvBi0bqF6DE+E1/qXHYYUHD9cIMd3Zuk3L5t9z2zurCi2bexn34jDc/p5bXKs6t8a2nx8lZx/CdK/iwwmG9Qnjw0XjQxjw4CXGh0vtuTuND/OzOttzL0J8SH4nCXe05xgfris+LN1JDKVk3LdqTBpWeLB+cKfxYb6OL0Z8IDdJjHE8z7cV26Y8h45XOPMN6sZNqtBS7mWh4cbjObfkPYhxKWG1WuO9n34fH73/3q04sRkMKQyICYhxwBATYgyIMSLGhBQj4pDwyltfxcNX34Dct4vBce8IrNdrfPbpx3j/T79fL7Pxlv5kw5AGIATfE0P0fYGImBJSHBBTRABQcsHLb38VL732FqTcj8dKWp3ARPGTP/6XePLFZ8CtJWQUMQ71/EQMwfuqhhgRkRDTdK6KZAwPXsabX/0mVHS8KN3tPTtgWJ/gk/f+FL9872e3M4Bi/LMNQxgQU0CMCTEkxCEgxYgQExL8W2RmUFG8/rVv4+Thyyj57D687rB68BBPHz/CT777+9jk09s7qwGIIY57Lg0REREp+bpFRKQhIQbfcw9efQOvvvV1qGQv+Nz5nktYrRLe/dPv47MP37/dsxrqmQz1XA4REQEppXqOgRQHiBYgDnjr699BXK1qUuaut1zA6mSNLz77BO/97PsQKbcbH2ICUsQQZvGhfudSmsUHKXj5za/ipTfe8nWzexIf9L7Fh4iY/D9LMUIkI508xJtf/TZUDWZyD85qjQ/vv4sP3/0x7M7iw+D7LcXl+KCK1776DTx4+No9ig8PcPrkMX78/X+FfPoE3mx9O/EhhHa/99mYET4HOAw78SF7fHjtS1+HiNyTPZcwrAa8/6c/wKcfvndn8SG1ezACUr3HxTggDRFSChAGvPG172BY35P4AGBYP8Djzz/Buz/5Z3cTH+o7Mg4BA3zvheD33yF52iFLwctvfgWvvPEllLy5F/GB3GDsHdwg7Qff/QN88etPkGK6lTdjSl48SDFhSN5LnlI91yFiWJ/gta98Hav1ST0rTACSW2Q1rPAH/+Qf4Cd/8odIaeXuGTdMDAHDsEJKA9arAUMaMAwDhmGFVVphWCWshjU+/sVP8bXf+ot4851vQ06fsiX4pq8eqjh5+BAf/Pwn+IP/5/+ARbuN7TDbFxGr9RpxSFjHAWlIGFa+T1ZpwDB4slpF8fTpKd798b/Gt/7i38Db3/wO8tOnd+roFtMA2Wzwe//of8Hnn36EeEsBpt58MMQ1Vmtfs1Vbu7TGajVgSAmr1QoxJpyePcWTx4/w0Xs/xW//lX8XHnPuLgloZjh5+BJ+8Ie/hx/8wT9FTLe4bgBi9D22Gnx/DXFASisMw4DV2n+/Wq1QsuDp6WO895Pv4Tf/yr+D19542yvvdxlAhzUeffYp/tn//XeRz85uM29aH+VrJCT/hq8GpOjnMw0JKSWcrNYAgKdnT/HkR3+Et7/xW/j2X/hrKJunuGuFzLAa8K/+6f+F93/8PcQ03OqeSylhtV77eg0e/9IqYRXWGFYJw3rAENfYbM7w9MkjfPCzH+K3/9q/h9X6AVTv7pKoqnjw8CE+fPdn+Jf/+H/HshffDceHVY0PaUBKye8Rq3l8WEHF8PT0FL/44Xfxrd/5q/jKN38TZ2d3HB9iRNls8Pv/6H/Frz795a09QMb4kNZYDTU+pPbPut/SsBUfnj5+jI/e/Rl++6/+LYgE3GVxTdXw8OWH+NG//n187//7J4jhDuNDShiG6TvX9qHHh4Inp0/w3o/+BL/5b/5NvPb2V2oS8I6+cwak1RqPf/05/vk//Ls4ffoIIcT63+fm1y+EgLReYUjD7C43YBXWSOvt+HB69hSPf/JdvP3138B3fvevI589udUi4HJ8WOGP/tk/wM9++F0Mw+ru4kOa7sGrsPI4MQwYVmts8hkeP3qMD376ffy5f+tvYb1++e7jw4OX8NH7P8e//Mf/G9T09uPDel3jggtL5vEhpYT12uPD2eYU7/7wu/jGb/9lfO07fx5np0+O3hG6V0IIMDX8v//n38OvPnwfMaUbP80GYIgRw1D3YxqwXg8Y0gppiBjSGuvVgBgTPn73J/jW7/41PHz1DWi5vSI+E4Cdk1LCk0e/xs++/1289NIriKvVLcQ5Q0oJabXCOg2Iw4AUIoa08odPiBhWa8QA2OYUP//eH+L1r7yDkNK9UI4c+35QUfzgj37PL7cnD2/vtoqAlFoiwfdDitED+DpiQA3mQ8TmbONV9xjwk+/+Ht782jeR7nB/eOJ0hT/92ffx6Yfv4fW3vgxTvaXLv7l6I/ll24PLCinVMzXE+mBZQdVblOPJA3zy7p/ii29/iNfe/hrK5vROkuuqimFY4cmjz/GLH/8JVusTrB4+rO0s4eb3XAhYpxVCmq3ZeoUBdR2HFYbk6uSsp4jrBzj94kP84gd/iL/0N/82NpuzO7s0qiqG9Ql+9Me/j83pU7z0yhuYPP9uY8/V85gihugJUz+n9YIzJKyGFUopiLEgpjU++NkP8fY3fhMPX30N5eyu1k6R0gm++OxTfPCzH+DBy6/WZP3tfOdCCEirul4t7rVzG1dIKWBYrxARAClIJy/hkw/fxcfv/RTf+u2/hNMnmzvbc7HGhx9/918gxoj1g5fuJj4EP6cJcYwJ/tgbkIYBm7MzxCEhIOAnf/Qv8NY737n7+HDyEB/84rv45Je/wKtvf6lO47+dsxpixLCafde21i7UIscaqoIQB6TVGp988HN89tEHePMr72CzOb2bPaeKYRhw9vQp3v3p95CGE5zcZnxAwHpYIawihlD32Wq2dilgvVojhIiiTzGcPMCjRx/h5z/8Q/wbX/kPgLNTdxO4iz1nggcnr+G7//wf4smTR3j51uPDgPUwTGuXWjwd6t3Ek1pSCkIsSKsTvPez7+Otb/wGXn39LZzdaXxY4/EXn+EXP/4TvPTKa16UtNv5zoUQapJgQFrN4+kKQ1UOtfgQSsH65CE+/vBdfPyLn+Hbv/OXsXmyuTOhRIwRaoqffu9fAcHw8OFrt7TnZvGhxdJ2TtcrjxdDqne8hA3OgJgQ4oCffvf38eVv/uadxgdys7H34Usv4ec/+h4+/egDvPzqa7eQYLPaxTZM5zgOHoPjgGEVkTBgvV7DYPji4w/x8S9+gu/87l+Bop8kNBOAd3s0gLBCyRus1mtPsN1SH7qZIZjBxBCCIazqP80QYkAMgKrADDg7e+JWVvw2387fjRqePvocw7C+tfZQM7/4hKC+B6zuB8z2RQgIAZAiKCK1VSTh6dPPEdo8qLtcNwNEBcOw8rktdl02Gs+ONRZm67S1Zr5u7SKdc0HJAhOFBeDxk0d448sRirurOaU04Mnnv4KWjDgMMJHZpe5m91yMcXvtttbN1zKGgFIKRDKkCGABRYo/cu54z4UYYKX4328wmN7OnjMzb/XFwjlNbR8GiBhyzihZgBDw9OkjbJ48xiuvv4k70ykoENYBm82TcZ7YbX7nhmFAEEWIhjDs7LfoidUIQ8nFv3MlI8SEzeYMpnZX+QTfb/U798XnnyKt7ig+SL0v7JxT/88DrCiKCqQUWAjYbB7DblmJsvjvEAJUFKkWWW8rPpgZUgjb67VzTkMMCPCzmkUg5nMBnzz+Nd4evgls7uyoIqWE08efo+QNhmGASfN3vIX4EKKrXFtcxWztwrTnVAQ5C0Sz3wNEPEl5l4cVAQFA3myQbjs+wJBMt9du4T4Hm/YcQsCTx49x+uQxXn/rqwDO7mzThSEib54i1RnYt/kuGuIAC7q116IFBChCSHXcgd9JsghUMmIasNk8hal/Z+5q17VY+ujzz+r74ZbucqjfseAjCwLC9jcu1v83ATBViAiyCAyGvNlUpeLdKp3JTd6TB3zx2a/qO+jm73vtvoJ6jqMFP8PW3rcBMfl+y6UAMeL08Rf1+9wP1Nve9cGooeK2Kh/tUuWzjqLPuRjnWsRxppQnKzKKFneSsoB7M1T5+DfFrVdefXZYqjPYfN6f74+2L9ocu+jDolV8fp2UOvs43odlu9V26XHtds/TfA1DdMVRSjARqBSoCUrx5IIh3I+v8B1UrH3mVZrm7My/Q6nuuRiBUIdFZ4Nahmgb2BvuyWG95f8e5o/ytj4xTmdz/N8lb/FSretV95yqwWJwdds9WLvbrvi3ZPzedy3UX9f4Z+pJZssCM6vFDi+O3fmqBdRWwjuKD1vnNI1zFNt8u6wZWgSiWu8Pod5z+rw/tO//XnyYr2Vy5Y6qwmpsFZV6PuJdf+Fufb+N8aGuWxrP6Wzt6j8NhlwyzARF/Ky60v7mEx/Ps3jhDmKrx9M0xdhZPG13E48PCtUMU/HvnerVLH6vG72D+DDU/bYVT+d7LkLVUEqBiSDX+CCiY5H8rgNEjLf8d2jwNWt34b1zWvdhjBBVqEhNBPpdLvBteeQx0L+Dt2lIk9L0Ddw6w2nKc5gZtGQUya6TDX3tQyYAeyPCh3TXymmIYfr17PdaFEWKq71K5uf5yDHYmKzySt5sP1gYk5IGv/jkUiBakFWgJXebG26VpoNrB//PAKCooGhB1lITqBnhPrkV3sXate8Ppr02/rquo4iiFEG2jJIVUjzB0OueC9GTxlvf7rZ29fetgKCqkCw1ESOQXO7NsO1wR2f10Dltv44xoqggq6BYRi4ZJZdJhdKhSGGMDwfPqV/wTdtjuPhPEZSOz6orddPBc7oVH0rx+JAzihRPMAS7B3/39yA+7J7T2dqpNEVRhta1uz8Fojv4rtb72qF42r5xwNSRIDnXNbwfe+4ugsRWfFg4p/PYqip+/5UMyR4fppPSp4otpAPntK5lDB4fNiWj5AwtNT5ovl9JZ/LCx5IWG/byGzvfQJHieY5c/E3RXzqI9ESaVwFnDpK7P1kzpChMtUt77B4fKVN1eGd/pKmKLLlVjBVFFCqKoi6z7jGCh+pIOK5X2jlXaao0lWo1b+JnyhVt3HNbP3W9RqVWjFAtEFWYGsy8vbB9k3r8MgULYzV995y2tUspeeJUiiuL6ll1NaABob+zOlecLp7TupaAK079nPoogTKqTnlW53ttXMPq8CgqXtzQac+pZvTK+B1bOKdbZ9aCqxBEYWJVJaOwTnOnwcL2nWRp3211JLT44IoOrWqsXvdcmivpt87pUkeCIYvBVGHaHOI7jw9L53TWHeUdCdOeK5Zra3yfWZ2U0uFz2t4QKUG0wOodpNS3g6oy+UeucTseeFvsxGGrKl418zuy9Xd+mQDs7CI/r2KNqqWqYGo/reVJtSAXQS65ywdjT0msg5V2zFQKBhTN/sjLrvIoRWrlJPR5nrCvIFquNNWWuFK86l4Ksubas9xh4rR+g0LYqbTX9RsVp2aexJK5MkbqzJjYXQAbFafYUZxiu9LeHimSvbUr56ouUvFkfYefczOb1m1J+Y5JcSrF1ZK5ZGQps3bMjuPDAUXMXHFapCDX7oGirhIvKqMqqdf71tI5bb+OMfp+E4OUAjFXOGeVOjerw9h6wY6EppzMmpHVCx093lgv25Fg5nNi80ZhFvpduwt0JBSrd5KcoUWh6Dc+XK4jwe91Jdc7CSHX9LbYvZ/s3fVigMHzHKUqeEX7K4wzAdjbo/sc5d8obx8r9+ofaVUWaI75IxD2VVe71c/mTiyqyGIoVuoe8X9ahxtkPqNoqdI+rmudJzbOTayKLFOFSn8XHx+Kv1NpD9trNypORaHZ952NKoWmxtLuFICj4nTpnIYFxWmbK1b/qaV0N+h43HMpIaSweE7n6ypafN+Zwoq5ErDkWiHu78o0fsdSWFQ6hzgpTlUVVpXOUhUepfSpjFmMDwcURa1F3+9cVpUyucuk82U6EjyuuqmdSVOIW3cS8ct3JBjMpkLONqaZAAAgAElEQVSHJ521zz33nB0JHlcNxcyLklLbzjs7spfuSNB2B24Gk3xlkiue41o42ou3uzkPROScPeaa1K6i/kadMQHY2aP7YE88WpXGXZmyukqpFHdXI8e7L/aqdvPq52yIdRaf22HZVYClqjuyFq5dXK60hxgg5o7JUnK9PFbFQvF5bL0FnRDDNC8Gh2c7wQylZBTLrpi0jJwLchaoCBBif/sNh87pVNl0xalCiithcvY9J8UV3fdqxtNt7bmmOD2gdAYCYnRTEimufi9a95y6qs0NtPrKKYzfuHOUzi2J1faYWh5Vu1r8nwh9JrJGJdaugnK2pmIGVRlN13LJVZkgXbYlXbQjIdeOhCK5Otq2eZ2hqxfOlToSckYW9bnE1nF8uEhHQikQydDi92GD9XYluVpHQp0l7u8HJv/IdWxIbM3+Gwu8O52OZuY5jqwo2aBFXQHYGUwA9hLgEPaz4js/zRWsWK5V/OnH2AJ81Befw3NPEmLwh/GoDDXzx11VFKmW7iT8Y8V4R7m2WzkGgFwyVBVZzWeejOpaVxX1dLRaS9uzZju54nRSxOh8BmBVs/UWvA4qitLubBNFKdkrm3PFqShMpLZ4hb7O6lxxurDvUnW0LZJr8q+pdA2Wm+q0w4dxDOfPdppfqKuiqKhBs05zAEt/7Zhz84+DSufkSgTJk4JNS5sBWF3iO5vXOSo4LtCRYMU7EsYZgONcsb6y9VfrSHB1fVaDWId3uUt1JEwzYlVKVQCiKwXglTsSapdZhxMiyA0wehwcUv7Vb2TO7uCt5gVL0dzljGcmADt6dB9S/rVKF4BahTZk8dadUtUQ5LgvPuPcmJ0KXvuA5uJKGFf9ZUiuag9RaFH01gM8VowX5hNtzYyx4I5xTTlZCspY/ZS6bP2sXbToSuSl+USzSjsA5OIqU38gF2hVd2jOkM6UMQbz6mY8UGmvv08xwRSu7pAMzQVZfM/lenbR2QNvS3G6oF4bVQpm0FKVV8XVCpqzz3oq/c0A3FI4H1A6t0t1kWYMVSAlI1vtIFBB7tCRdU9ximW3aauOySUXqLhy0g3YvCWpuxbgpuCYK7LC+R0JuSqw2gxAkVKNydDveb1gR0K26sqac3fF3Et3JGhVTtZujqast57224LD9PN2JJTiTvFaOGKK3NB9Zf5jdfafGkT8TldmSlRV4QxAcoR/ySEedsWZVWrG6kwR2DiPxlUkwYwlmiO8+MS0UGmfV+BTrFV1mdxriyFXRWBplZPOWm0OVtpnFdAUk19y6hppU1HOZqB0t+eW9tpOpT2kqjits52yuHKyVJWCqNQkVkcfpLDjtJfOUZxqrsptdzcz9T3XZrShV8XpObP/XP3usU7NHc6zFRTzPadaukucjq6YMS4qndu6mhqkKDQ399+2ZgqRAnT2ndubYXdAQZlSQlFXE6lV5WRVOjd1TG9XrlHBsaBcO9SR0BRYbQZgyaUqJ/sRAF61I8HU6hws7U5xevmOBL/TWVGISB3n0s9FeEtxundOn92R4GrxUscc8HFJruc9e0j5F5MLNlqXh9UOLC02zt/lDEBylJeDvVkgFrbaUwDUmX8FWVxpU2olteQCQ+An+ggvPlsOjzvVz/bhNLHqiim1WpJh6vOKpLU9dLQ7mjJyccYOprNlsOqKKfUsTVJz0VzzCX21Yu7Ov1qqtLcBvbm6YppV5aRln//Xo6LIDrsSzhWB3kaYp9lOWlwFWP/Zm1J3S3G6sF7tIQMAOcs4n9MviO4ELPXh11TyvcSHUXEal51Y291B1CDiSsmx4FG8hVWldg+EzuKDxeVzGmdKBLM6F6s6JktGrsqsIgUiVJw+T0eCSoZkcUVgFqhKf3N1L9SRkPc6EnLOKCVXFRs7Ep6rI6G+lUrJsztJHynn6+hIaHcTM2YiyDXFjgMeBwg+4znE6A7eRZGzbHW0aWELMDnCg3Geu9XoAGyhuoKJO21mnc14a6oRpgCPKILvzz1plZNhquABVVEk6vMSxoq7y6hFmvrPujlPWwNllyrH1aVQS1XUio3KmKw2JtbNrKsP8JZD4YFKe5sX4xX2/RmAKhnSsaLokItt23M5Z4jaltt0MZ9XJNBuH8aL53RXcdrmmjals7hqIecOWzGXFKcLSmcArtSdqdb8G1fXT9rdobP48Ay36RR9hl2ZK8Kz+azJ4mvZ29jly3YkFDX/xql5C7BZfzNOL9SRYHsdCS3m9sbVOhJcBViqAUj38eGCHQkqefrO9WkUT66RFNOy8i/4jOeQYu1McPdfqyNf1GScK94bTAAe/Xc6LLrgzLPjPsNHxwtpzt7+JKWglE2XB6OHi89ipX3n92Lq+6A6/hatVc+cfXZHh+YwKaZzK+1xZ0aRaFNkublOyRkmithTK+asQmfBzp0pJlL3Wc6+55oips7+Cx2f1dFtL+zPFGsP46zZHVlrpV2kdJnE2lMULSidWzxsDqyjcrIUlOxOmV0rTkM4rHSuitPSZtfVmU7WZrIV6dI8LMV02G16S1GUIdnXrpQCsQwtUme09Tfj9LIdCZI9weDFD+3OxfbiHQl51pFQ57HV+NDTab1qR4LPs6vxobf830U6EvJ+R4Lf74TmkuRG3rNL7r8peIG8ZPHZxNlb0ks2v6u4pLWrdWMC8MgD3J76L+zP/gsApPhlQEuBWYGNhg9VqRTQ3QykY/5Y7u2LtKNWqBU8zXly66oVO6tOcUWlv8fdsyrttWosIrVFaaZgaxV3Fb8vdnb5aRW6sVK3oKAE4A6FoyvmpIjJ0p9KwcwOn9PZ70MMk7JUJjWWztz2zKyriL84E2ZJcTpXms5nFJnVxGlfcxODheXZTgsKj1wyNNfv2+hublXx0V/h8Fmz/1JINVnvA/HVdpST6iYg3WUUrtCRMCrZapzt6RF31Y6EooosPlfXekycXqEjQauayFQRIxWnBzsS2vrNOhJ6nYFNbvi+co4D8HQntjHPoeouwFoy0KHNAROARx7gDvXEz6utUrS64uRJeVMH26q4RJuf6uNLKpxXwWsXnyLulCTFK3ZSK+6llO7ywXsue7bsph1igGiBZT9XTcGW29xE7VvFdmimWECog90FOrpiiquRxV0xYYaupJPAOKLhUKU9xoiIOsKhtO/3NGdnSmL18yHfcii0A0rnUXFaxxnMXDFbIkbHIkdHD7xgU/X8wDlt8UGKbLtiVoWz5Dy6YnYVHw6d07idpMk5Q/O2K6aVmtgqfbZiXq0jwWco9likvkpHgpYCyzX5FzqcR3yVjoTi95KuzyrC83Uk5IWOhEBBCbmm+0rc72zcPccqs/mTIshaXYBz8ftxh9kwJgCP+S83HM6GT4qbWB86k/tcm4eUc6bq7wgvPgcr7XE2pyhGiMwcCmWmYKvDy0NnAXwuLd+bozmbH6NSHVdlcsVslfdcZq2Y1s+6bc2L2d13s2q7J168SlyqkshUfUhvh62Yz1VpT6nuMZmUk039V9zBtrf2roi4v3YLCkqgml/pNNupqROaUgYhdhMHx/gQD8/+mz+M91wxa4U9iyJ0ZjizqDhdUFBKPadl1xWz7MSHjuLq1TsSplb9nnbddXQkuCFZfzZ/V+5IKP2Nh7h0R4LtdiRId/GB3MJ79kCuw8yQy8Zn7Fp1AS5l3I+9ZjmYADzig3FQ+ddccUJAqEGtjI5W1QW4zT7ijIajO/FLyoR5Ba+12pSSoeJue6qTgi0XH/reY6AZ1wvblXaLNj2MtTo51jmazRVTcoapdTc3cVSczlqV5sqsVsFzRVGBVUWMz8cS5Kr4aN80aH+GM4dmirVf+zdbqoOtV9ybSsHPamcOtsELYLvndHcd2wNYS4Hp5Iopxc0/gM5SzhEIKZyrdJ7ig6uw5q6YTenc5bxJnHNOt5QIWl1/y+SKWQqyzYbid5hUuFpHQlOx9dM8fZ0dCb1xbR0J3QWI5+tICLsdCbrbkUBhCbmms5zCubmOJmYp2VBKNY0qgiziztQddmTNrnvkWAPcQeVfdcWJKXm7Tq3INOdfU4NlV96Q4yKFtOh2Nq/gpZRqhd0d42xHEdOlW9zSvJid2U5zRVGrspdxtpNMM4o6exhvVeh2FZStAj8qTmVyxWyzY4r261B43gy2qowZq5j1MlPERlezlozpKeccQ1xWFO0qsxC9LW6c6TS5YuZSulu3MT4sndOl+KC5ttVMrpiqUltY+3rgbSlOw+F9B2Bym66KmKactDE+BPTkmnw9HQktWd/Pgb3OjoSevnPX25HQWXx4zo4E2+1IkP2OBEKubT+e2+UIFM1Qk3o/kXGmZ84+hzd0mgpjAvDIL1XnueLAUF1wxBMVpl6JripAqv+Ob18crHjOqiUAFl0xNWdXLWhf7r8Gm6rru5X22dql6A9jkaaULNDRFVP9THXIWKGb7zvsKk4Nm+JzsUZXzDqzSHWujOnrG37QiTW22X/1YVzKgitm6VZxet453VKcikyumNUIqyme/ZHSVzJmXKPmyoplV1Z3xRRIEdiodJ5cMXuLD6Pi9NDcxJnitGRdcMWcFKe9vUCuqyMhdDbD7no7EjpUnF5XR0Jv74dr6EgIfFuSa9iPCHim+29zjS/iSvEiglIEIl5063knMgF4jA/u+SyaA644XsVvLjjV/bc9fOqDmxzZvmiq0EOV9loZtd3ZTqN7l3Up399TFB1QUBrUK0pq0DJzxZTqOtXhxedgpT3uzLBTcedxm9Qxo7Jo/BZ1pO7YVZzuVtpDczaz+jCeuWGaudrDtE/FaT2rIS0rKEfFaV23SdlsdWZRf0ms3fhwcCbbXHE6c/vdcsXsOT6EhfjQvnmorskmW27TxVxJ2VtCAbiJjoQ+9h47Eq4QH66pI6HL+PCcHQky70go+x0JhFxH7Bjnd8bDP22Gp473lVpAyhlqfec5mAA8tgDX1ErPcP8FgJyrc1+uM0FKhhRFzsKFPOKLz14Fb2e2U1aZXDFlcsXUemnsVlG0o1zbXTsV+IwdaTN2qiumZm+1QX/D3RGwryCybRUbAJRcoFkgVZYvrRBRk9GhU4fCQ26YLVmj9ay6K2Ye3WslK6R0qjg9dE7jbJ6Y+jwxd/3ddsXMOXebOF08p7PZTi2hUGTmilmdHVtbXNfxYUnpPCoRZHLF1Lkrprlat8e5iexIuPwdnx0Jl4sP19SR0GV8wGEH4HlHgs47EkrfHQnkhmJHmvbcvscBqooX1YymvsVKU/95LO4dJgCP73awr7pZqBJ6K0rxalarbKnVRI/yI31sl555xfhQBa+2PWjJXiku266Yrv7r6+ITLDx7tlNzKByrSzuumPX33VWMLYzV9KX5RE1xKuIznUqttJtVRZv06Yo5KjhCRBwOVNrbPLG5Ams226mMhgI99U3j/NlOc1fMNttprAzL5J7c67zJc+aItf99sDrcfeYi6qYWgiz9rd0z48PsJ1cF1ly55mpK6V5xyo6EC8QHdiRcmuvtSOg4PuwqndueY0cCuc39GJZjbYqp5jmyJ+zHxP1M/cc8BxOAx3gwzlP/tY91Fld3eXY8T7P/6NB0fO/iuUPhAbezcV5MEWStF0TLk0qh9PlIMdjh2U5blSarar86ILrOO2lKmV7VHXtrh/3ZTq7CqkrTXE0FSkEW6VZRNJ9RtDSDLYTgidMyd8V0F1ups066i30x+EyxA2qiuYpNVX220+iK6e1JpRY5up3t1BRriHuznbydpg3Srq6YpT6Sxdt/e7tPb8WHBaXzPD7I3BWz7Lpi9tuKyY6ES5xXdiRc6m3EjoQrxodzXM7bvMm825EgfXckkBvaj3a4w7HN/suluJBFait6nQEoVP8BYALw+C5Vz+GKI9XtUMxG1765Yokc2SGfzXQaZdMLznFBQ73oyHi51tJcMXPX88QWZzuFqdIkY3Vd3Exnppzs2jV5Qbk2/8/MzGd0qI57re0/KX0mTlNKU0vNzjmdr52qLLti5s4VpwcUMSHOFadlOp9S3R3FZ2N1qTiduzuGZRUggGq+oFUJMynZZGybDt2d1UPxNKZpFptIc03eccWUzuMDOxIu/o1jR8LV4gM7Ei4eH2I6f/bfrCPBdjsStNOOBHKz95W0nN8YzzEmt18dfxSalXuxrSW30xEFuJksdtEVpz4qXfknPr+n1GA3U//xYBzfQ2XRlXBWLQ4hoARBHl0xdccVs09F0XkVz1GlYO5Q6JXOAmvqv+rs2KVb3JJ76I7r3jhou7piukOcz3Yq2rcRw16Fs+67dgEaE6d1vtOWK6Z2qjhNC8q12TevJbFEXdG874rZseLU4t453fpJobpNy7YrZp0tVnqODwvndFRSNkWR7rhiakGW6sTac3xgR8LF1o4dCVe6A7Mj4ZLx4QIdCcqOBHJb79l5nqOOKEkx+T2vzqDMpbr/Zhln77LL0WEC8IgORas2n+eKAzRXsFL74ksNeD4QnQfjCPdFm3tyQKXgewb+GBldMQtU+nXFNNj2nIkDlfaU0qhIMLVxzon/lHG2WFdBZVdRtORiO58XU10xs7XKu0GrKrDLb/ihc7qrOM3FVVjnumL2k4w5d/bfTFGUyzTXaXLFVBTtWHG6qwwPO989xHp5Vqhtz3jq1RVzfHSkcFDp3BRFPoOtOrG2uKraveKUHQmXuMuxI+Fy8YEdCZePDxfoSCjsSCA3tR/DTpdj3Pc3CCH4Pa+a9Vhz/7WCUhRZC/dii8VcgiMKcqlWY7BcxXdXMIGKjL3w7oyToXVYMA/Gke2Jpig6p9IeQoBJqJfGmSumFmgR5NzhI8W8fWux0m4BIQChORTK3BXTfy1SqtNUp66YB5zi2u/diMG2XDGtOomKZORcunykjA6FByrtMUSoeeK0KdjmrpjNTbRLRdHuHBibqxbq+AvJsKJ19lp1xczZVYC9K07Pm+1kPj9HtXgCa+aK2Wvi9FmKmFZwbaoDKR5XZXSbZnxgR8IF4wM7Ei4fH9iRcLX48JwdCcKOBHJT+9HCVoFyN/6Ohlu5wIpNrvHiCsCcN9yL83cul+A42HK3OtAbb3DXNJm54bSZIPxIH+fF56ASa/b7lBKyFm9REt2ZGVPqcPdOHQqXKu0pIsaEmLzS5MnzecVTty7bXe65sLN2O8osAFDNB1wxrT8jhrni9MA5bYpTzBUxO66YPaq4t2bChANr1xSnoqPidHTFNBtVCt2d1ZDOncHW1tbd9Ep9CMuWK6aodmf+sacOn++1YdqHrRVTW1xtykkVqDI+sCPhEvGBHQmXiw/sSLhafGBHArkv79kF5V+sSXyr9+CWiDar+Q7LXRaOzv02cgmO42Accv2du+KoGEQUuVT3yFIVgJKp/jvGR0oMe1WS+XzIYP6/bx9Mk7krps922uTO1R27lXZM5ykiIpcMsbzvilk6rxgjLLs7NsWpGcqohFlyxexYcbpUaa+znQAgZ6nfcZ+Jte2K2d/DGIZJpbA728ma4tTNr6R+20opyDbFvyz9ORTuxYcQFpVZbsQg7orZZjtVV8xcMkwNvZl/7KmbdxSo7WFSqoHF3BVT1F0xGR/YkXCp+MCOhMvf59iRcKH4wI4Ecp9ix+IdZex6bF0es++fKHL27gVR417cjStcguO5VC3+zCpczQnHxiq+22H3qH7o6dKzVcHbqbynmKBFawVv172LDoVLiph23qwqsKYZYjNXzJ7VHc+otKeQfIZTmyG24IrZreJ095zOKu2hKU6r8cdYYRf/nveYOEV4hvp9R3GqszNqMwV8d4nTFh8OzP5r38CUUm37ra6Yc6Wz+D+BjhVFC0rndpZVDaICq62+La5mMWTrfIYdOxIuFx/YkXC5PceOhIutGzsSyD07x+d2KqS5x4H4zN2qtDeTfu/Hz7rLcAmO4yK/1RM/d8VBmLmCbVCKIJfq/lsTPllzTwX8bkgxTcqOXde9OM0oyppdGWNV4aHu3lVqpb3Hi0+IARaXZxWNLfVqkNJmiM1cMXPp0vVsbz7R7q+boij4w7jNiFGdlAq5d8XpwjltlfYYInLOoytm1jIqJ3OvilNb2GuzfdbWsSlOi7qqQ5sTsPjFsPv4sKOIaYkuoCpOt1wx6yw7kS4fxqPidPec7ty9oOZutTZ3xRSPF53GB3YkXDE+sCPhYnuOHQmXSwywI4Hcs0xVM/iYK/8Qt5WBququ0zqd4yx5NEXiXtxbVvJC/wXOq9FLyr/m0CSuVFItVfngrjjNETEwA3hcj7tdhcLCzJgUE0Sk7gEbZzw1ZVuPKjYYxrknKS7MKqq/BzxxOnfDHBVtPc4oahW6HVfCXTVWisEfJzuumNOcok4fxun82U5zxanVi7XNVApWOlecLpzTFFLdc544VasjMExRio5z7Xq8GD5r9t+W4rQpJaW5YtZWuULF6aLSeVZYa07TkytmqTMAO1WcsiPheuMDOxKeLz6wI+Fie44dCeS+3Vfi8j0lxek/KznPlKg2zkLlXjyQP+ISvNgBDsC5Ln5+GTWvzhRXJuUsrrjJrvwiR3jZXnAlXFJmqZaZK6ZApVTXPen24rO1RlhWZhVR5FKqci2j5OaKKSja55kaVTFLew3tWxSQ20yinH02R6vU9ag4nTsUnnNOfbaJVCWMK2K0+DpmdYdHdGjE8Kxz2hRFouKzbvNMWdRxW9ySCmZXmdUUp6XOdGrKSc0Zoh0rTs9bu5niVMTPaXMTdcWzJ067fMSxI+HiZ5UdCZc/q+xIuHp8YEcCuUf7cT6iZHTwDrMuR1F3/C3FZ6HWmZSqAm7FhTcbl+DFfnDvqf+2lH+hzvCRqvzLdSZDbQnosBLdy8VnybFrV6WgVZkwuWLm0b2rdKjuCCFsqzvi4Zkxfp50miFmrfLeqaJorsRaqrTXeTGlOjmO7qtNESPapStmxI5D4QEFJQBP+slMOVl02xWzMyOGvYrwwjkNMYzFDN1zxbS+FUUHFDGT4lS2lM1zV8w23L3L+BDPUTrXtcs5j7OVx5mTYt22xbEj4bIfOnYkXDo+sCPhavGBHQnknsTdJU+D9vtWPNLafq61UDnlO9q8XeY59t8f5IUOclszGnZVJGGa0VBKdcMR8YqgeGWVH+nj2xMJhyvtFmymKHJVx64rptbWpR7d4kYV24KC0mBjpUmKB5oyd8WsSrbuK8ZLyqy6H8e5RNJcMaU6Y5Y+HWwD/BJzSAVY96GbLmi95NQZbFagHc+wizHuuYduKU7rXKxSpnNa6hy7ubqjW8XpOQpKjw9e0BhdMXVyxVQt3VXUt+LDgXM6xgfx2WtlxxVTOnSwZUfC1R6/7Ei4QnxgR8Ll4wM7Esh9eM+2WZQHZnjG4DE3l40XjSx7vqMYJCtyFi7koW8kl+AFPRhhYb7Fggui98HnmRvO1BuvWfmRPrYL45K6Yz4zoc5SAOCPkpkiZqq0W58OheHAbKdhUijEGFFE/fJTZ8TYvOLe67yYsL1WS+pT31uTIsFnO7mqrcd5Ys3x8mClfVZtz5LrxVq3nGwll+6MGAA8e7ZTVZxKVZZuuWKajkqsrhWn5yidx/gwd8UskytmbxX1c+ND/f30MNZt5d/MFTNLhw627Ei4dFxlR8IV4wM7Ei4fH9iRQO7D22JYUP7Nfto9r4j5bOc6o9hUUKx0l8S/2HknL+bBsDDN/tupQM8Pis/waW6H4jMAZ7OP+JE+okcKbNGxa7+Clzx5UCvtoytmzv26YsYDM8V2FEUAICXXZFZ1iasV91xyt4nTRSdW1LlFs4exr922K6bkAlPrUnEaYlXlLpxTCzPFqQqsurHOXTGLUnG66I5Zf10kQ1SgVREzqf+0b8XpzjndVXyoaFWayuSKWYrPyuo1PqTleNoUvC0+lJIhkpGrIqbFidKrEQM7Ei69duxIuMb4wI6E548Pz9uRoOxIILdwjneVf7MfACiaa3dCvR+XqkztcFTJBa815IW8VKVlV5xd9Z+MyqQ6+08LrA6lNvBgHNVhDjvqjgMVvACrrpgyuWLKpMjqsWLSHEMXK+2zirFX2P1B1xzibDZbrDe2KnRxf45YU5waXMWho0PhriKrX8Xp3mynMDmcNQd3X6fsKqzmilnoULioiKnnte2rLOZq3a0ZgB0rThfO6VxtGoMrTlVdETM/p1k6jg8HZv81hdsYH6SgqM2UzjoqKLuLD+xIuHJ8YEfCJeIDOxIuHx8u0pEg7EggN7Qf4+xuvKD8i6j3PFFoEVeOq+zFD+7Fc9aYS/BiBrix+mx+EHYz5J4ArIqR6gKWxRWAogJVymKP8dJ4yJVwrmJzdceOK2bx2QldDne3AATsV9rDgkNhdcVsyjUtrpzssmJsy66EIQT/JtWLeIoJovVb1Fwxpbli5m5dMUdF0YFKeww+aHtT/JwWkTpjp7piaqeK05QOz/6rZzUCkFK2XDHLzBWzV0XR7jndVcjEEGFiEJGq1pWx4JHFVUZUFIWDCkp3xSz7rpjSp6KIHQmXf5mxI+GS8YEdCVeKDxfqSBB2JJCbf8+O7r9zN+BUZzyLJ6JLa0MvOiqh1ZQLeX6YIS/aoThX+RfiLFnhFym1PLriiPZpbd9DEuvgbKcdhYfuzIrZdcXssWLcqulLM8XaLB5rbqI7rphq1uWZ2qvQHVBQAnBnrjwpYabZYtZfMcLwXJX2lFIt1pRRwTZ3xexWcXre7L/QHArDOKNo2xVTulSczuNDSOcoKGN0N1GdZoiVUelMxenS7L9dxenkjtlmi2VopuKUHQnPDzsSrnBW2ZFwqXflpToSlB0J5Ib2426X40Kew8z8nleLbqrtx+/N5BkxmkvwYj68z1NAhBB8KGt2NxwfjinIZWpH4Uf62HIKNlVIFlQKCJhdfBZcMcfEcH8Xn3GO04Lb2dZsJ5XRPXt0xdQC6dShcEtxinBQQekDemV0xRRzJaDmXNUdnSlOY3CFx5JKYUdx6koYGRVszRUzd7jnDs6E2Zn9F2NEUZ9122avSXZljGZXfXQbH+qc4P1zCoQYAW3qv6qcrIqYXlLe/EwAACAASURBVCvqo+L0gNJ5chP12X8tjs5dMaXHIgfYkXDp+MCOhOuJD+xIuNi+u0xHQum7I4Hc0F5E2FL87f3Ub6CKJ/t8jqfH3ZIzsmSYgXmOZ+WSuAQvFovOvws/WXKtzEx98VaTglT/Hecj5WClPU2VT8nVFVN2Kp7SacW4zSg64HbWzpmZ1YHkZXLFrGvW47yYLcXpgiJ5rprxQdGT0jSrz7KTXmcU2UxxGvbVRE1x6onT2fms62VikELF6aHZTgDqOW2KU0MxgamhWO7yYXxwZvC4lgkpRm9f3XLF1C2VeHfxIYTlc7r7vTM3nNl3xZQuE6fsSLjanmNHwjXEB3YkPGeAYEcCuU/b8Rz131aXh7nRVilTvCj+/ZMizHM8zzeTS/BiXeQPKf9iiFOVph6AYu7i135yFhQV0Pj3+JJYByvtmGZCAtUtqQbxbVfM3F2rTXPBXqx47lSaRASifsHOeZrtJKVT9d9ccWr7azcqTlvitM6IESmw4q2FuVNXzLkiYeuc7ihOVWeumFXB5knofhWn47qd4wDss51kcsVsM7Kyx8Nu44OFg65648NY1Gc5ja6YVeVc1eHdKopwWOkcY3QFlrgbq9jcFVMZH9iRcPH4wI6Ey60dOxIuFR/YkUDuzX5cmnm62+UY3QVdpHkbTDOeJXMvPi9MAL5gH+pzlX+tojq2+tqsJ77ArB4MZgCP6xCHfdXV7j5JKdVWm+qKWY1gpoq79FkxTun8mWIxIrR5YirQIrBRkaXjvKzeLtpbFboFBWWKPsNI6gO4bLntCV0xl85pWFCctvNprdIu3SZOU0rT/LodpfN8Xf0RrDuumKVbV8zxO5bCQRfbpjiVuXKyKtmyuJKN8eGwoqhomTkQzl0xO48P7Ei4XHxgR8LF1o0dCVdbu0MdCZEdCeQWY0ctHB3yNpg7AOcaW62+X9Xq+1a5F5/7jsMleIEuVUgHXXHms2hGi/ZSRvWfiCDnDRfyCPfFQVdCm812qvtCx9lOOnPF7LhifEARM86giAFiMnPFLJMrpgo0d6wo2lGu7TkUmg/abvtu/CbpNNupW8Xp3jmdKpuTQ6FW9VWZFLviidPeijjtAXdI6dwSNk39rlUNM7piViVgtw625yid271BtIxrV0ZXzALrOD5Ei/vnNGx/+8T8ATIp2OaumJ3HB3YkXC4+sCPhUokDdiRcLj4c7EgwdiSQWz3I47vroPtv7XL094QgF6leB1pnAnIvPi9MAL4olyqEZ879c1ewasVeildWW8Ii9+mm1svD+PDck4QYwlRdHyt3VRFTBNqxouhZlXYAYwuhKyd1csUUV2h19UiB7e+5hdlOrjiVZVdMndwduwq2hxRFaX+2SSnuilnms51yU3RrV2Mc5g6Fh/bdpDjNNQbqtitm/X1v4vcQw+FzOlN8mPk8HVfr1sp6ixlUnC4rnZMrESSXbQVb566Y7Ei4xvjAjoTnv8uxI+Fy8YEdCeSe0JThB5V/9RuZc64zUH30gWqB5jKqAslzxhwuwYvz6D74Y16tAVCrga4UKcXdf0t2N0R+pI/v4rNX8dyp4LUPaC5VFTpzxRQp4wDkHgdtxxgX5xNtzYwxd9SWUmDV7cxdMaXPQdvm7VuLs51mlXYAXplrCqzqilmkzxlFBpuqmwdm/7Xh76J2ritmj4+U0aHwgNK5JbFKUZQs4zltrphN/deTcnJL4XxI6Vwv1UWym4RJgRSbzRbLKKpA7/FhQZkVY4SYzyEquUDF40M2d0/usW2aHQnXuHbsSHj++MCOhMvtt0t0JOTcZk3225FAbum+spDnMK2z/5q3gfg7o1iGiHAhL/Ke4xK8AH9JIZ7vipP8p1VnWmVmnEljSlnsMe6LVjE+4HYWglf3zHw/zGc7FVNkVWTrvGK8W2mfrWWKyYdE68xlanTFLF0nThdnO9VKe0hVcdpmO+XqiilTq1x3xYiAZZXCguLUldtCV0zsKE7PUTpPDoUyziiau2Kqqidhe4sPS7Oddv7pF2qF1sTLqNwVQy51z/UcH8KyQsZVbG7AoKYoW66YBaK57/jAjoSL7zl2JFw+PrAj4XLvhwt2JIyK0047EsgNxY65GjUsexwEBC+Mz5R/lnMVshjzHEwAHuflYK8iOO+Jb/NUyuR66HMa8jhPhbLY47v4NLXVqIJB3Kp+tg+nD+mVqlxr+6HA6syYLgPN3GVvV0FZf2+oSph2nsquK2bH6o5wuNLeBvTmXVdMLci9Kk7tsCvhXBFoVaVQii66YvbmULilOF1QOreHDABobq6YpbpiymyuXaeK0xiXZ4pZU5xGV5yWPLliqitkNGeI5D7jw3z2X1hYu1iTWEUgtcNCalzNpWAjGaadxodLdiRkdiSwI+Eq8YEdCRePD5foSMhSlZOddiSQG4wdB/IcCAExesdC2VL+CbLVf+bMhbzo95NLcP8PxqL6bydDHiyMA1mtzrNoygcm/44ygm/PxZpXToapggfA58KIQk323fZ6u/jMklgHVQrJlTPt7Iwuezp3xezcoXCh0t7mZZkZRBW24IppPas7Ytx2sZ0rs+qe8+S8u9YuuWJ2qyg6oFKYK05LHQA9KZ09HmbpWHEa4rlKZ6ApTm3miunKoh5dMcf4cOCctm9giw9Fd1wxi/jsvw7niV26I6F4R4KxI4EdCZeND+xIuFx8eO6OBB07EqzjjgRyc6SYlpV/ISLFiJBi3Xt1RnH2OGtqXrDkXrx4zOYS3PfvdFh0wdlSAcZYHXC0Kkd0VI7ksumuLaCXi8+SgmhfUeTV4lIH4ze3M98bfVZMUkznVtrHinHO1YE1b7liapY+58XUtbJgi2qiGL2iLCbusrfjiinVlby7sxoPnNO5MqspilRcgaU+o3PXFbO3h/Gi+mqmUmjxMGdvxfS1aq6YAuldcbpwTvcUp2322uiKmeuMnY7jwyG36bmiKGdIztuumLXQ1l18uEpHQp1ll9mRcOGOBGFHAjsSrhIfnrsjYbrPaccdCeR23rNL7r8peIG8ZEGRqvyrswCl0OPgMjABeM8D3J76L+z/Ohgg9TLgsyyqK04dRs2DcXwfy3FfhJ3q5457V8l5miE2KmQM0ulcyGdW2mvVWESQZ7OdenfFbA/j0VEvLKkUBiCgJk3besnoitnjZdvMprUKByrtVVlUxJP0bbbTfH6raqcP43PO6ehQOFealtmMIsvIHV4Mt+4N4Zx5bLUV05VruqXI6lVRtLhuc7fpkMZkvbS5dVuumKVPV8xLdSToVkeCsSPh/I6Est+RUNiRwI6EK8SHy3QklI47Esgt5TkWuhzHd2ydGTvOAFQf+8K9eHGYALznAW4+++OQo5+YQlSQ2wyk7DOkhBLt400q7M522qngtYtPqQ6FUt0wtVT3rkKHwsVZRfXMiRaYNFfMOktT2gzAPlttDlbaZ5VkFfXZHNUVsxRv6/I5O30qiuaznVor3JZKIUZE1BEOoyvmfPaf0KHwgILSHQptPKdaFTGjK6aW3gxsx2TCouLUpj1n5kqsUmdija6Ylrtsmzazw4qYmdt0jK4o0rzviiniA8m7jg/ndCTIVkdCmWayZVe09chzdyRUl+l5R4LHC3YkHOxIiLHePdiRsPWuvHBHgo4dCdJpRwK5wftK3O9s3L3nabujtJmnbRZgLt3N2722twmX4B7/5Rxwn5v/oF1GS1P+1Yqq8iN9rBefg5X2OJtTFCNEFFLVCUUU2cxblLLPQ+lyXsyuIibsz49R0R1XTBvd43Lp70yNitNDLntzxakWn9MxKic9ODdVIBWnC5X2lMY9Ns4SawqZ0qfiNCLuO7EuKCgB1Nm3M+WkbCtlerIoHONDPDz7b4oP24qYrdlOuT9nx0XF6YKCUtRHHJQFV8zcYWHtIh0JutWRkMe4yo6E5+xI0P2OBGFHwuGOBAAiZaY0ZUfC5ToSpPuOBHIL79kDDsBm5t0cxTsb/V2RoSrci1e6Z5N7ezAOKv+suuKEgFCTfaUpAItXVHudbdHDiV1Sgc4reK3VppQMlVwvjtU1rrYoaYcOha19a8ntzKJND2OVRVdMqc6OvZ2pLcXpQqXdgs0URdWVsM4larPFihYqTg9U2kMI/s1WmVwx6zw76XC48ThPLMS9c7q7ju0BPHfF9PmmnbrCRSCk82f/TfFhOqc6c8VshcOAThWn5yidXYngLZdS52E1V8xmYNF1fLhQR4KxI+EiHQmZHQkNdiRcIUSwI4Hcp7Oclp1/57FDRKty1wsgrgBUP9fMc1zlukjua4A7qPxL7ooTU0LJ2dVKKjCT6gJstT+e7r/HRgpp0e1sa2+kNM78E7WZK2a/rtCL82J2ZjttK4r2XTF9NlaHDoXzCt2CgjLFNClORbZdMUXdFbNXh8Jzzmn7/aRYK+M5LePe61D9F+L+TJglZRYisswdbCflpNXZf90pikI6eE63FKfNTU/EleEzV0xV9SRsVxfhuK1iO7DvAIzu0lp0yxXTlPHhYh0Jwo6Ei3QkCDsS2rqxI+GS8YEdCeQ+7scDyr/xTaZ1VrEKtMjYsZC5F6947yH3+lK1NSDYtn8PA4q6E04pdRhwUeRS+lQ/dLAvDlY8Z9USANO8kzJ3xczeDtGhomisru9W2mdrl6I/jKVU5VqeuWKqIEufZ2qrQtdcybGrODVsiitgSlXE+Dwsn1nU68N4T1G0oyaKIULqfB3J27Od2myTHhVF553TLcVpdavddcXsXXFqsEWlc/u1u2IKJCuszhbzeXbat+I0nOOeXBWnJWt1ry3VFVPqDOZOFafsSLh6fGBHwoXWjh0JV4sP7Egg92o/HlL/hck1vtTZpz6zWCAiXX7/rjl8k3v34J7PoonLcwCnKr5Ac9lxxcn8SB/jvmiq0EOV9loZtd3ZTjNFVo9zIfcURQcUlAb15EtTrs2Vk6XPZMxipX1RcSqwmngZlZNVydalQ2EIk/vlUqW9qf/U/GGcZ4rJmbNol4nTuUPhwjmdFKe5nlPbUk5m6VhxOrsfLJ7bFKGm1RXToLatdtbeFafnzP6LaK7JMrnWiqKYtwF3qzhlR8Ll7/jsSLh4fGBHwuXjAzsSyD05x3PzjyXlX/sp6jM82/dO1WqBPLPL8ap3Hy7BPTsYTa0Uz8mMRw9cOW/cCcfq7L/ilfycORTzWB/GixW8ndlOWcUVRSXXS3etgKpAe1YULSliZmunAp81IVWJVSvuRbO32qC/VhsE7LkSztdufKRkV8Jo8Vmk0goRNRndpUPhOW6Ybe3cZa+4ukOrQkEzJGdIp66YB89pnM0Tq3Ng3PW3nteqjNGcu02cHjqnbbbTmFCQmSumVHVHp21xW/Fh95xiW4mgKn4+tcxcMb0I262iiB0Jl7vjsyPhcvGBHQmXiw/sSCD3iLHohp1OxypmcRXvNKu4nWNXQfu4M27Fq8EE4L1Cp2r0ea44qQ6iznlU/bWZIK1Sw4/08T2K9yqeCzNQzAxa8sy9a3LFdPVfXxefYOHZs52aQ+F4lhZcMXusGFsYq+lbiuS0rTj1pKmimKv9zGrFTvqcUTSq1ELcVgHuVNoB+H7L24oYE0Mx6y9Zbzh/ttPcFVML8ji3zrZmsGmvitMD53T+jQsWxjau5iLq+09G5STjQ1xUZ2X1IeQ2U665Sle6V5yyI+EC8YEdCVdLGrAj4XJnlR0J5L7sx3l3x1K346hGrU6/Y+Le/5mlJfGZ57hSLOIS3KP3jwVYOF/91w5NrkMxS5H6U+rsvw0l2ke3LyZF0bxasqvMijFCiiBruyBO7l1SpMtKu8Gm2U4LKgUETA6FoytmTQTuuGL2uOf21g77s520zl2bXDGbG3mf6r9xRtGBc9rWUkT9222lKrfrLDbJKCV7RqynS2EMPlPskEphpmJrLUpSZ/+VOgvQH8xUnEbsu7LGGH2dVKoKcFI6e5Eoo6988058WDynQJjNm1TxTouy5Yrpe66rlWNHwpXiAzsSLpfEYkfC9cQHdiSQOz3LtrAXd9SoBvOcRqnuv8VQiqLUmYDk6jABeD+Ow/irNK+q7lSgx4OhBi1aL1A6zgK0+ntyZIc0xu25WHFhPlGMAEK96GxX3NXUZxf1tjcM2+qOhUp7ij7DSMbquiKb1kCjnFG0UGmf/2dmhjLOimmumF61k9LnvJiU0lZLzfycztfOE6da25Rmiiyh4nRJERPiXHG6q5ys7o4qfSpO5+6OYVkFCKCuU91zM6VzyR1W1Hfjw6KCMiHVeWLaZk7O3KZVOlecsiPhgg+uyI6E64gP7Eh47uc9OxLIfct3pJQOKv/Gc6wy6+yQ6ScLuxyv9QtB7tVlfs/9d9YT71X8Up1/5z+KnLXLQdRH/07Zde+y3Qqe7w81GZUwoytmrbirdlYxMZzvdjZXKZg7FGbJkFxGZZHopP7r7rKNBUXMQpVORCHNFTNPrphdjiKw6WEcwtI5DeM3fkyciiu3tVbaW8W9S8Vpmimcse/w2JJYoq5obspJd8UUSKcXQzNDtHjwnAYEhOSKU6nrtO+K2XF8sHNm/zVFkU6umNrca+ucrP7iQ2BHwuUOKjsSrngHZkfCJeMDOxLIfUDhqvqAReVfgCf5Afg9pcwU95LHc80ux2vKN3EJ7slttD4Mn+WKAzRXsO0fqRdTHowju2rXasiiK+FW5Riu4qAr5nimFl2mdirtKaXJ9UxtnHOypaw163PPHZjtNFaM27yYPVdMg1ZVYG/f8S2HwgWVwpbiNDc3Vh0r7aoKLR0qitpMmEMzxWaKojbDTus8J3fF9JalXs/qnjJ8N14gVuMKdeff7l0xp/gwrt2C0rkpirRM57PUuGqqKF3GB7Aj4ZJsKZzZkXCx+MCOhAtnW8b4wI4Ecrcn2GNu24cx7c/8q9/EEALMzMecqUzK5+wtwFkL9+I1wQTgvbmPVpempTkNce4KJtC5+q/+WqXwI32kD7wWqLcqnvNKewgwCfXSuOuK6ZLp/hLDYfk8jYoPn+0EAFnyWFkvWmc7VRVgr8PdF2fGzCrt/i3accXU5oqZkXPp8bACCQfP6TjbyTxxWixvuWJq9nXrTVHk/75pb69Fm6sWYlWcZmjR0RVTmytmr+oO7Kg7dpXOCOPDOFfX5FIVMXNXzB4LhwfP6c48MVHfZ80VU0ZXTGF8eO6OBBk7EnKPHQm78YEdCReMD+xIuOSzkh0J5P58Ag1bxjPj2cW2UCPnAqsz/3L2+16x6nGg3IvXBROA9+UvovXEn+OKY+quaTK64ZR6ge+zLaCPO+NhJ+ixapxSDdQyc8UsdXZCqcPdQ2fnKWyfpz0FZUJMoVY5ZdsVszo79namDAuzndKyghJAvSBuK9d87QzWmxEDUOeFpYPntClOocuumD5np3ToihmQ4mw+UVhWAZpane0k+66YnSpjthSnSwrKOh9QJFdXTK1uetNMtqzajflHqKc1pLTvxLqgoPTEaV23MT60mNGh4rS2E168I6GMHQnWYUfCVnxgR8KFFi627xw7Ei68dilFdiSQ+/K6QEg76r8FJ2Cr92CpOQ6zMnMBpvnHtd69uQT34WyEc5V/rYqvZhBR5GJeUc2Col5lVc7+O7ZXSp15sqNS2K28xzB+MC3PXTEVuRRssrtF9xZslpRrc8VHDN4Wl0v2YbO5umJmn+3UBiF3q+7AAXfH+nszmylh6oyOMrli9pY4jcHnrIWA/XM6m+0EwF0JF1wxVaXLVkygfueWZjtZU79HiBqkqoj2XDFzfw6FW/Mml86pzc5qVYJLVa41V8xScq2oh2522zj/z7DsYhtn85ZLhqn6npu7YnaqKBrX6cIdCeLKv+rK2l/itO0vsCPhgufVlmb/sSPhXNSwpy5lRwK52/sKkBCn+X9xP+fhKt46+y/PvoOiEDHuRSYAj/QBGQ8r/9qvmwuOqYxqG2m/pvvvkd16gDh7iOw6OrbZHSl6xbiMyrWmiJGx0t7b0oWqimyJ892z1QKNVQVWllwd46zOjFEU61DdUQeUP6vSnmLyGU5thpjtu2L2EqTDLKHg65MOznb6/9m78yBJj/O+87/MfOvoe3p6Ts4MMIMZcAY3SAAECICnKME8glZYXCliV3Z4N0KS11rLlvaw6WNjvWFLlm350MoOe1fSWgqZa3Mtydau1zIPXRRJkeItkCAAEgCJY47u6Z6+quqt983M/eN9q7q6p2cwV3dXV30/EUOAmJ6ernwz38z3eZ980nQzTjc7FXM4M05j5yTWzbIUNmScFm+A17L9hvlUzOJQFHP5OmHj/OBcue23OBUzbKzt5IOGq7h7T23YjbV1zfr5IZSnSndOHew9FXNYa9gZ625iR0IYzh0JsXdHgmNHwvU8Fxkj52xRAoIdCdf1YG82e55kRwJ2YiwXD2ZF/3ObZ/6tP+OgvP91/8kuRwKAA/wU2a3H0Fm8dxbyPTV88rxdvEntzfzzRQADg7Xy6a2lsy5zrTx1r7vtQSqy2DpvibunYubdAuXDtdguF3qdejvx8myibqp5KA4UiGVGTPdUTJ8rz/2wdTnFbn+zMnaT7JhORpGivPfdGjGdUzGH8YTC2BNUMCqziq5Q28kaqyzLNj0VM8sD9cQ2jNNo1jJ5Y4zKy/HZORWzuOf5ocv+i2WvM1ep/SdtyDgNa5mmmS9r2XmvMIRb9deymzfJkumdW0NcO23a95yKmRU1J4dumWp6MnWve0eC7+5IiMO4I6HTvyR2JFz7Y1H5ec3mmbrsSLi2+xw7EtAP98Dee15nnWLXrwFDCMWp035tHGch6x6KRF+8tQgA7rggI8mVtXrMFfbGB1+cdtjdE9854j7n8I+BXPw4s/mp0G59VpH3xcNd5y3x2qmYQX7IahTFqO74cXatvslmGZRS8ca49zTMbkbbkC22i8VilOvUYuuc0rVJloezpqzHcfmpmJ0aRUO1rAlFbadu/9rs9OTOCYWdDKLgy0yYtVMxYz6cD8br6rBtrE9UZss465RlaxmnWSwznn2nFu5wBk6vVvtvXcZp6DkVs1NbLBSHMwxXn4tF1mQ349RdPk7N+oyi7mnTeVjLzorDeCpmmXFqbnRHQhjKHQnFWu4q8wM7Eq66MLHWFXXsLDsSrqfdjNnQ19iRgB1fs/TsdOxZp/TWzc6zrLuVP5bzR8wjfXGLEADsg4fv4o7tum+81r2NtlZSseXE50VmUtY5BTgWR9tjAG+WccNb4ivUKioCwZ1TMUP3VMzgi63hQ/dgHM1aBmBvvR2tz5DxZY3EPJS1nbLOqZheeRjOMWVs0W7dWkUbaztZK8ko62SabnIq5jDW6OjWNOm02xVqivnguxkJuQ9lFlZxKmYe/LCUYVsXVFiXzbHJOC0yiopSF+tOxcxz5XF4F4ab1vvryaDszTjNy5pOPiuLaWfDW8Murutfumyc9macdjMR1p2KGZQN4Zqrm7nWzXR+vR0JGTsSOkv73lqTnd0d7Ei4pmejom+5tcxTdiRc212ut8YpOxLQT2uWnlO8O7U9u7scQyjONsiDsnKNnPkiG5WueOsRAOyL5i/qXHTf2HSzRkxZw8eXNVSy7taKQIr2QK+2r5S51vsWtMi+6jkVM+bdN+5ZPqRvTMrJxPWccLZZhsxaTaKgkBdv2ovMyWHMKApl4K/InCz6mts043Rdtl9vRowPQ3kqphTWsrZlZbX5qaySlPu851TMIkC/7lTMIYsAGl253m2n3xlryjpim52K6Yez9m00V6yV2PvvsVPbaUPmZBE4Hc7aTrZTF9b13OM26XdZlitk6zPXuqfZDumay2y2E2GTHQlZyLtZksO8I6E7P6xrN8eOhGt+LDJXnh/YkXBVzrmeTGd2JGCHlyydrFTrLhvTnRfkne3nodzhGDunAIdOvV3iHFt1q8XOxnvKyPiGN/tmrUZDngdlWVQevLLoy1qA3KQH9HZ5xdpO0cS1jCJfZHV4X76182s1E4b2IcXGYtxEU/7/nrZT7KmnWWyhz/O8rLuTK5YZbcM3por7jDUbMgA3ngZsTbFdJC/eruedjJhuzZgh7XOdN+3OrM8G7MnMKg5d8Ap5Ll+etpfHXGEIa9j1NtxmNdh6sxSMTFFDLN9wKmZPbafhDMZskjlp1mfreh/LDNPy/lbWAfTl1umha7ZYTAum7Ffd9VbPOO3MD97na6dihrVTMf0Qr7muVoOtd0dC7OxI8PnQ70iI0vp6uhI7Eq73uegKmc7sSLj6WLW6+inn7EjAdg/o9btl1rIAo2KRaZ8XZxt0n8uyoCzztN2WPvlhRxcI6myh2OTUprUaPl4xFouobuaSD9ykB5TbeNpep2ZCmbUglacldTJiYujWkOn8czhjCp1aRGUGoLGyyVqGQvFgHIqj5jeeijmUtZ0kKchEdWsndmsAbshSCCHI92TEhDIjJvowvBmnKt9smg0ZHhtquGa+PBWz57S9EEKxpTUOYZ8rp67L7nFm/QmFRZZCdnltp3KL0rD2ObvZ/GAuP01v3amYfv2pycO4eDC9GYAbMmTWAqd+3YnTMaydipl5P3xjtTzB0Rm3aQ22jTsSQmdHQpaxIyFuMj+wI+Hag1idzPor1MBmR8IVhqs169ci7EjATq9ZjJFNLq/57JyTD6H7YreTZR9DVB7zoQ3ib8s1oQn6aLIra1303qi7NXw6p+J4r6wn+4+b9GBO4DJm87efxsiYotC2z8P6UzF9NpSnYm68pTnj1moAbsgoKh6MszKY1XMqZla8cdrewGnc8M+d629Ra7UTe2sVRdubcRqKt+uheOO+dipmrhi2eZK2/XPfM664d3dPFu05xbabUVRmxviQF6fZlrXF8pAPbxb3ZlmmG/498+WpmGHtVMyi7bIhLn8R179J1+V1noIvtlyG3tP0skw+H/L5wRglxpbZzleaH3J5X2yT9p16k2Vm1rCN1bUiNbFoL7s+4/TyHQnFvS3Pc2Vlpv3O7Egw/XKL667ZirqJ6tsdCXGTf9vx+9zGY2NnjwAAIABJREFUk84325GQbdyRkCkP2VCXR9p0R9nr7EjIYrZDOxIIQwz+iiWWV7qnP5Z1ZDvPZD7m8rnvnuCd5cXY3tY5d0jnd+zYyIiSrKy0afafD2uZSUU2oC9rNnhFs/WdtTiaO5eJsTuIsdVdIiqxZvMsD2tlbSze3pVv2n0MxTHpvnN60vYFYzpHt8cQd37hGKOijbKKcslatmRvRlGnLowPfv2pmLHILNq2BaMxijKy1ijsYLNZqcjGslpfn6N8e7yWcRqV++KkPd/JBIxrNWO2NXBqjEKWydj+GKsKoXgI3nCyqLNJ9wT3IjMhX5dpGnfgIAbjrKzMzgYybLEgtHKXZ6+5tfEaVGZJ+k6fW6sBGKPfvs9gTHdh2A8zYJTkXEXWbjgpvmcHQe7Lmk5+bZwW64mdmB98MT/s9OLaRNkYFY2KDHGzvh7bxvkhrqs3WWSdbt8LV1NmZTtph7P5YyyyRa1za/VON9mR4HtOSF6rLbbdOxKKsepDW/2wxz1EIxNCMVY7dSe7OxKStRdrwcvHtazmndiRYBTLF1kq13N2B+9xodyqHzefH8odCUV7bdyREJXn2zc/FPe44qWMotnROSIWtzkl1kob6yf2zBG5z7vruNC7c8j7bd2RYIxRKLODi/sMBvOhNvTsLuoZyy4p7nV5786Y9TvZtrovdl/WO6cYjTREcY6EnrnzD5D10TFVa3XleVuVSlJ0RqMim8u3lWXlr7ytPGsry1J5X0xwWxmUM8ZqaXFBJ8/cq8TVlOYNLth2BP+SqmYO3665V15QtTJdLizUzVLwue9mrGVZtvbPsp9s12LbGKvlxYu6464HVKlUlbaaO9524+NTkim21FRspchkK98WK4SyndZ++SxTnmXK8rb8di0ajZS3Uhkj7Tt4VHnelt2ptba18j7T6NgejY5PqrE4r1q11o17dCbITm2dzPf0ubzsc3laLuDiNlzjoLTV0N4DR4rA6Q4HFbz3mtp3SIuzrykGL7mkCBLEYstDDEFpnsp3x2ve0+/a8j7XdmSrGGO0uryo6f0HtffgG5S2WzvYasUBFSMTU6okTiHPZZKke4+TJBulrNPnsrV26/S5zgPeVvc5IxWncPpc0/sO9sX84JzT/jfcrtnvPq9qpbY2Tnvnh07mX5YrXzdPbOP8YK2WFxd0+6m7lVRqaqeNHR6rUaMTe7oHB7hqRSYWY9VYIxO0YT7dMFf4vLjdbPUtx0i+nSoq6sCR25Xn+c6FYqxV8F718QmNjk9qdWFOtWpVKjOdO1mUnQzTzvzg87V5NUu3c36Q2q2GpvcdKu/DOz0/ZJraf1iLs68qei8lSdFuKmvuhqA8Tzdfz+Vt+TzflkCmMUYrSwua2rdf+w8dU7u9k2u5Irg3MjappFItnouSRCaq2JFQ3ueyPFO7s37rrueKNXD3+WiLr7+VlHmvLEs1ve/wzsecYxHImDl8XGdffEa1Wr07TrsZp93nyuyyPtfe5ueH1eUFHb7tTiXVmrK0KQwea4us+qkDR/TaC88p5EEVWym390ttn19hzm3Lh61fH8cQ1FxZ0oEjtxUvnkOUtcOROUwAcKfv1yHIJYlOvekxvfzM1xR8rsQkCj6qnbaUp21l7VTtdqp22lS71VbaapUPjls0NqIka+Qzr2Mn7tTbnvozCiHjYm2TELxuu+vNCj5Xa2lBslbGRMkEKcQy+NJS1m4rb6fK2i2l7VTttPgVtPUTuDVWeZbr6Im79Ni7vn+tP+7YJGOVZakm9h3Syfsf09lvP61go5yiYgjFW8+Qq91Ou0H0Yky11G61lLZbyrfhM1hTvPGv1Gp6y9vfp9HJPUqbje6BPzvS3xTkjHT8nkf08jNfkk8bqlSqZUCmWFRm7VRZu13+KvpcO22qnbbVTtvbko0sYxWytu5985N68K3vVmt1Rda5He1zeZbqDXecUcwyXXztRRnnpCTKKEgxFAWN22kZnE/VbreVtpvKWm2l7Zb8NpxSaE1xwtrUzH699d3fr0q1qubqajdzZ6fucUmlppMPPKlXnv2ygs/lEiuZKGeKwGrWLu9xWdH32mmraL9WMYa3JQNeVjHkevSd79eR429U2mrsaLt12u7Y6QcU8lTNxU3mB592266dt9RuF/e3dqtow22bH1q5jtx2hx7/3u8vguM7PD/4LNXkvoM6ef/jOvutp6UQJRdkZGViUU6jnaXKyz6XZ+X80E6VtprbOj9Ua1W95Yk/pck9e5U2m9IO9zlF6fa7H9bLz3xJeWtFzljJRpkoKfpyLbI2P6TtltK0qXaaqZ23tyX4V6xJ2jrzpsf15se/V81GH8wPaarDx++SzzPNv/aCjFx5+FExP7R9WLcmybNUWdpUu50V6/ztGDfGSj7XxNQ+Pf49369qfVStxsqO3ueK56KqTj3whF7tzA/Wli90g4LPlLVT+XaRGJG1U7WzlrK0CDhn7e2ZH6yKre+PvP29OnbHXWq1mjs+P/iQ6w2n7lXebqpxabaYH4KRcZJCVNtnyttt+XZarklaytJyfsha2xIAtMYqz3MdOnJCT/6pD+14ljO2dpSEPNfknmkdv/tNmn3peQV5KVrleaZ22uzOG+20fK5opWqlzWKO3spxHCUfgt702Lt0+p6H1O6D8UsAcMj4PNfYnr1646Nvl/zahB9jVCy3HxU1Q8q6XIpl3G+Lo9RRqo3Uy7oQqThxZJse8Hwu65xOPfiE8qytskJbd0HTqf0YZTo7Xsoswdh9W7wtVypK1VpdMQRl7bQ/ttzkufYdPaG9h48pBl/Wtit/2GAkE4s0bxO7W/uKttW2tZsJknEVVaoVtdPmjtepsbLyeVtj45M6/cg7iy0Zl/W5njuPKf+/iUVpALOtG+OKbOms3R9bRmKUz3K94c77dOiOM8X2GZmyskNPn9t4H4/a1j4Xo1StVmWNU9po9MEix8jnbU3uO6S79n6vQs+8p26fU1GTsmceLMZs+WVme9rNWadKpaYsT/uiRkzIi/nh5ANXmh82jtWdmx9q9ZFy/dDqi/VD3m5r5shx7TlwVFLojsXOWI3lwDS9Y1bltj6zjfNDJVElqard6o+sGJ9nGh2b0OmH3yGfZ90+1E/zQ3EZjSr1enFacz8EFUyUz1MdOXWvDh8//brzQ+f+1nOb27axWinnh1ZjpS9q5/m8rcmZ/Zp47D1XmR86c+mG+SFqW0qEdOeHak1ZlvbFmiTkXs46nbz/rdcwP8RyrKoYq9EU2b3btHaqVEekGPpmfsDWydqZDhy7Q3sPHS3XwlJQ0e9kzNozh1S80OxMulvZL2JRZ7TYgZkp+LaGqTIeAcB+CQJmqSRbPiCWi3S7sftv4xNjuaBKW02FMoMK2ziJe6/QPXHQrtt1ZM3aA7Dp9gez5ffKjZ0jWhUZJf3UP2KUz9rlYRZO6yo6dMZT7wLHbO+YUizuujHkajbSPhpXRnk7LbOJTJH59Lp9zm5/n4va8a3ml3e5IJ+3u8XeY29/6mmitQeS7R+rssUCLIRWX93LfdaU5Mr7nNm0z8mWS7LesbqNzwoxBKXNlZ3PwtqF80P/rR+ifNaSjFN5pEA3EN/tZ7b7f3dufvBezfZKf43VnvnhSmN1x+cHqQyahr55kIvlmuSa54ed6HO22P4efL/ND2vPRX09PzT6bH4o68T38/xQrElaPF8Ojag8axZzb6cG+sb5tnd9vG3jV0pbK9r4UwwDAoB9w3YXC52QRSfZYKdzDrg57+zicWMPiBsWvKJ/bNZwm9bHjLTb1X6gXdPndstY7W27fjhgrP/GanHATIzq7z7Xp3Mg88MN9rnYmR3ipvMD667dPj/YXTFWmR+u/7mI+YH5Abs4ztEz9/bPfGuH9WoA2AmGz4crtZ3hevTT5xyGscp4BX0OzA/MD4xV8PwADDYyAG8lUmNol2toixAlH6Q8DnbtW2uLz3ezl7/3zXgIUj7g9YKNiv5xy8rJlFtn86Lm/cAPx26fi+vKnt3Y9+r0uSEYq3nslk+6qVt9p3xLCGU/HuApwJSfs3NSe+ezmptowM780PnnQPe50LPT4QbHam9GS7iV980+nx+ScOsGVmesagjmhxhvvs/18kM0P9zseq5zbxyq+aEnwynegj4XguSjZAd8rHb73C1ay+HWPMobnuc3b5jYd9/qdW15AHCqYjVaM2obsy0nge2kdjSqZpLJGQ+dib7qpMmaUZW7hmKUKjVp34hkR6MqlVg8rJjB7ADGSm1FTdekvXUpczc+gVsrrXrpwEiUdYPfl0KIGhkr2i7c5F3aOmn/qDQWoqwdgrbzUTM1o7ERKeQ3MVarUqxbNUaiqrXBH6uZiZquGe2pSZlubqxmubR/RMrc4Pe5EKQkMdo7IlWrRiHEG+5ztVrU0oiRGSnmh25wcYDnh5m6NF2XvLvx8WWtUTMa7R8dkntciKqNWE2PSPEmD4q1zmjfaNRIO8omwzE/7KlLk/Ubn1uLQ5Uk1aMOjUiVIZgf2kaaHpX2VKUs3sz8YJT5qP2jRm07DPNDVOKspqtGtZpRqNzM/GC0OirFupQM8ljtmR/2jZTzA+lKO9+XZeS9VEmlNo/0RSlLI40kUqgb1W9Bm8RoNCNpG85/3/oA4I/+dntfKwbJZ2aQk3qjpEYu/YuHo06PG6344d5f7YM0VZO+PB/03/1OSxMVbhZSVDRtjZqq9iV2/VFvg8hI3kddvGjVCq3itKcbugcUq01rog7acSVu8NvNhKhL562Wvt0qX4HeRK+z0h5T15StKNrBb7vcS+fPeQW11o4KvKGxalSVtN9Nyg1Bn1OImp91WvlG4ybGqrr7xWbsqMZMGOw+V47VRjS6+EqmGPOb7nMjpqL9brxYWQ54nws+am7WqaWbnx+MMTpgJ1Qd9IVX2eeWgtOlF2/N/DBp6poeqvkh3JL5oSLpgJuUcxqe+eGZm5wfJMlKe+2Ixk1tOOaHYHXxlVxRt2B+sBXtt8MxP8hHXZg1Nzk/4FawKoJ+dWf0G2813Z0ew/1EL01UjX7tO17/9JmmZkZvwa6NGEwyPa6pMVW3+uff8gDgH7wcRkOjTIsb9N6SGa3cF5VMSjHTUEcAo6Sas1pMo77+fC7VeF2wfmazQ/RZ81u0Oh62dpOKXCz63PXz9Lkb+qyRPnfDY5U+t7PzgzRclU4Zq/0xP9DnbuwJwQ7Z/MBYvbHPGrQ9+VB4XUFSYpQ8UWQB+yF/rA9BqjnppUWvbz4bpUlz0y/kFIM0EVSftm6rf/4tDwBOVmO8JCdnitTGge4M7WLLqwyR8Y6qkzQi2RHeGAw33tzRbrQd7UbbgXaj3Wi74W43Q7uBtttNV8BI3kuJkxyXo6dnGo0mRhqxqo1K2U0HAI3CqNF0RTq7xT/7lgcAO8XYg/rjmPstFQhwbXr9Q1koXbQPAAAAAAD9zsTiWd6T4HSZzkE1Pq4d+nNT3yxI2TYkvVouHbb0pkETAAAAAACwKx/oeaa/avPcsm/ituHnJQAIAAAAAAAADDACgAAAAAAAAMAAIwAIAAAAAAAADDACgAAAAAAAAMAAIwAIAAAAAAAADDACgAAAAAAAAMAAIwAIAAAAAAAADDACgAAAAAAAAMAAIwAIAAAAAAAADDACgAAAAAAAAMAAIwAIAAAAAAAADDACgAAAAAAAAMAAIwAIAAAAAAAADDACgAAAAAAAAMAAIwAIAAAAAAAADDACgAAAAAAAAMAAIwAIAAAAAAAADDACgAAAAAAAAMAAIwAIAAAAAAAADDACgAAAAAAAAMAAIwAIAAAAAAAADDACgAAAAAAAAMAAIwAIAAAAAAAADDACgAAAAAAAAMAAIwAIAAAAAAAADLDtCQDG8tcgi3QmmgUAAAAAgMF5oOeZ/irNcytiXeWf99vw8yZb/RfUEhdtIiWmbJwBlgVSKtcxZXskUsVJRtw8AAAAAADYBY/z8kZy5bM81jgryUnVRFK4yfaxUihjJlttywOAFxaC06pR2wQNfLfJpOWsCHQyQCQTi/bQfFBWoz0AAAAAANg1guQrRlmgKbpi1MVmlC4GNfKijW66kVtRZ6fNloeRtjwA+LNPVWYrSXU6z11UGOy4WDMYnZxaVeqjzJCnAjorLWdBZ/Y6/e0fGNGII/cPAAAAAIDdIqpIcAoxU+CRXtZKS1nUB+5ItPeH6hqrBYWbDQDGGCf2W1mn9Me2+Off8gDgn72rslKt1ZQ2ouKAbwD1skouNZTnQXbIcwCtpJaXZkas/vw9VTnxygAAAAAAgN3DKItSdjEqss9RVlLTS6enrU7dXlXi/U23SozSwTHJS/muDwB+dzmzlVZVaSsM/jkgJuiQl2pR7AFWsQW4mUvnVoJM5HUBAAAAAAC7RxH2O0aMo7dJtJxKF5eCknBzaW5Gko9RjRHJbkMW2ZYHAJPEqOKkMARbYkN56IUxHHbR6c1WUsVKlgYBAAAAAAC7nLVFnONWBNRclKp2ew6U3fK/I3b/BwAAAAAAAMB2szQBAAAAAAAAMLgIAAIAAAAAAAADjAAgAAAAAAAAMMAIAAIAAAAAAAADjAAgAAAAAAAAMMAIAAIAAAAAAAADjAAgAAAAAAAAMMAIAAIAAAAAAAADjAAgAAAAAAAAMMAIAAIAAAAAAAADjAAgAAAAAAAAMMAIAAIAAAAAAAADjAAgAAAAAAAAMMAIAAIAAAAAAAADjAAgAAAAAAAAMMAIAAIAAAAAAAADjAAgAAAAAAAAMMAIAAIAAAAAAAADjAAgAAAAAAAAMMAIAAIAAAAAAAADjAAgAAAAAAAAMMAIAAIAAAAAAAADjAAgAAAAAAAAMMAIAAIAAAAAAAADjAAgAAAAAAAAMMAIAAIAAAAAAAADLKEJtkeU5IOUhygzIJ/JSMqD5GP5AQEAAAAAwFCIUfIxKgtRzg9OWCAPUhjAGAcBwG1gJWW5dHjKanrEyA1Q3qUP0mhVyj3ppAAAAAAADAOrIlD2xhmnO6Ylawbns4UojdeM/IDFOQgAblcHklR30tiYGbjP5gc0Og4AAAAAADbngzReNbIDmA3kfRHHGSQEALdRiEWm3KAh8w8AAAAAgOGTRUnEOXYFAoB0IgAAAAAAgOtGjINrBQAAAAAAAKAPEAAEAAAAAAAABhgBQAAAAAAAAGCAEQDcAhyISzsAAAAAAAD0Cw4BucWsJBulYGgLG4OsEZFAAAAAAAB2oyhZRUUe7SVJVkF2lzYGAcBbPDDaxskaryAigME4pdaVtwoAAAAAALCbRCOlNpGLBAClIs7RdmZXbqclAHgLGUUt1sa0GEdojO7gsLLcJgAAAAAA2JUu1ielyHN9ISoaJxPDrvvJCQDeQqbsDMEYiiuWCP4BAAAAALA7dfc2GnY5dlrE7NI4B3EqGhUAAAAAAAADjFgVAAAAAAAAMMAIAAIAAAAAAAADjAAgAAAAAAAAMMAIAAIAAAAAAAADjAAgAAAAAAAAMMAIAAIAAAAAAAADjAAgAAAAAAAAMMAIAAIAAAAAAAADjAAgAAAAAAAAMMAIAAIAAAAAAAADjAAgAAAAAAAAMMC2PABYsQmtDAAAAAAAAOyQLQ8AVuujtDIAAAAAAACwQ7Y8ADhaVZQxtDQAAAAAAADQI0ry0pYHzhJr7TeTJLExxiCpmmXZi5J+WNLZTb7+bkmHJbV1bT+caaSqOOe4ogAAAAAAAEAPK2lMyrf670lqtdrpEydOdP/D888/77Isq13h6396YmLiT1tr8xDCVYv7Oed06dKl9rNf+8q5ux58UN57QyAQAAAAAAAAkGKIxkn6/c9/9bCkv1Gp1PZlWZq9zh8LkkYlfUHSr27y+/sl/QNJB1UkGBpJSowxMUkSGWOCJGuMScsv2Iw5evRoHBkZkff+qj9NrVrT5//48ybLvBxnDQMAAAAAAABdIRYBwOe++rWDkn78+InbxxqrqzJXKaVnjFGe5zp79uzHtHkAcDxJkvfdeeed+40xCiHopZdeUiLJhBDK72GMXmdrbwhBeZ5H7/2VgoSKMcpZJ105kAgAAAAAAAAMNStJTkHSysEDB+pLS0uy9sqZdNbavN1uJ2fPnm1c4UuCtXa+VqtNSwoxRmut1WXbeGOMUpFOuJlO6uDVA4Vmk38DAAAAAAAAsBmbZZnLsuyKAcAYo5IkiVmWOV35YF8jyXnvk/K8D6vNvjjPc1Or1epX+CauDBACAAAAAAAA2CZX2xr8epKeb2K99xoZGTnyQz/0Q787MTGRN5tNJUki771mZmbiL/7iLx5YXV3V6Ohokuf5Tf3FAAAAAAAAAK5PmZx3pQy9PMuyy35v3RbgEEKUVLHWHjHGqHNqbyfQlyQJrQwAAAAAAADsAGOMazab2r9//xM/8RM/8Z8vXrxYtdbGGKNqtZqfnZ0d+8hHPnLYex+dc7azk3ezGoDRex+99/Ley1qrEIK89wohGLL+AAAAAAAAgO0VY5QxxoQQVKlU9mVZ9n15nstaWxzI65ycc7LWhhBCN7FP2iQAWCLKBwAAAAAAAPSZGKO89zFNU99qtUwneS/GGNvttil3+LreP8OeXgAAAAAAAGB3MTHGxBijzq8e+cYvtrQXAAAAAAAAMLgIAAIAAAAAAAADjAAgAAAAAAAAMMAIAAIAAAAAAAADjAAgAAAAAAAAMMC2JgAYaVgAAAAAAADgasw2RdHsVn6Cnn8hJAgAAAAAAACUytCZcTGJ2uLYWbJV39haK0ntdqN5tuZ0W/Ahs9a64ndf5zMZGxWjid6zRRkAAAAAAAD9x0iKUjQmWueCYjCv/2eKmFeIijJGqeTPn3v1nLYwRqet+uYxRhljJCn/2pe+8GvveM8Td88cmJ5ot4OMrt4WsWw/Y6Qgdb4PAAAAAAAA0FdikIyRUZSLirqWKFZUlInS6LhVRfo3//Lnfvr3KknyD733W/Zzbll00Xuveq02/vf/6l/57Z/9n/7ys98y+rCCObi6uvq6bVEfq/ksy8cWzp89bqwjAthHyuA2AAAAAAAAFDQyOnF+fHrvbHOl8bpBLGMUow1mcmqymab69B118xOSzoyOjtoQwpb9lFuaXmidi5JGjTEfl/Tx52OcnpkYz6/2Zy6uro7eO1a59MN//kfe8e0vfv63rLU1rSUGAgAAAAAAADvMKJqYJ9Yl9fHRn//YH3z2HzxtzN6ZsbHG6/3JhlQ/Zcxsz3+qarfWAOzR/QB3GrNwDV+/LEknRysXp47dHh1bgPtK0FaeHAMAAAAAALA7RAUpqeq1b3xj0RiTSTp/jX90+bJvtcWSfm3E2+66P0lDWwpsOAUAAAAAAED/qSQVzRw5nOjiUl//nH0bAMxbyzHYhENAAAAAAAAA0HdijIohKOT9n73Wt7s5K5MjBP8AAAAAAADQv4xUGRnp+x+Tcm4AAAAAAADAgNgsoS7Z+AXWWhljYu8XxxhlrY2SLFl5AAAAAAAAwM6JMUZJefnvnf+mEIKJnf/QI+n9g845k6bpuVdfffV/ePLJJ1+7dOlSYq2NeZ7bgwcPNs+fP/8PT548+XiM0RtjHM0NAAAAAAAAbK8kScz4+HglTVNZaxVC0MjIiGKMcs7FjQl8vRmA0RhjvPfNj33sY7/3sY99bLOji88nSaLNIokAAAAAAAAAtoYxRjFGX6vV3CuvvPLFSqXyM5JqxhhvrTXVajV75ZVXDjebzb/unDtcxu+MtMkW4EqlYqy1o61Wa7O/K6G5AQAAAAAAgO0XY4yVSkVZlr304Q9/+Nc3+RIr6S8ZYy4PAIYQZIxRCEExRrVarXCFvyeU9QGjMeaqWYCdWoJcGgAAAAAAAODmdDbkltt7q5t9Tb1ePx5CuOzQ38QYo3q9LuecKfcJmyzLrvR3JTFGE0KoXG0XsLVW3ntJqqiMNN4QY2L56Qgk9gdOgAFw1fmI+xjXlrkO9Gv6M9eUawmAe99QtX8skuVu9vsYY/Iys0/OOV0p7pYkSZ7nuVQeALJRq9XylUrl8j/XarX8c889J0nBWmuvsPW3Y/7FF19sWGuXvPdX3A5cZv+ZNE3bkrIb+eQhjVYx1stjh5nw+qFXx8idBcAV9fsx8VFRVLAdzGt7K1fPlDkeHsYMdscetv5symvKtQTAfIZtvUfHWLHWKLp4syXzkhBC/dKlS7pKUl6xNrc2SdNUkiav8jV5tVrNJMVONmDivX/ryspKZ26xklJJ37nC9/hz7Xb7z21HI7rKyIu1pPUTyl0iE5jxdnRBFV00Ic3b+rFozX0xRh9j5BRoAGv3bGMXbWL+jpXNFK3pq/t2tCaaGHye/5fRxEdDjKGc73B1wVpro9FziY3/zMRq0WYDOCcbF60JytI8vEfSn+6tlYLB7NvOWhtN/EVnzFdcYqvRmzA4D4LRGilL8/BYjPG/Gop7lTE2Sl9xJvlXdoBWqMZFG4OyPI+nfPR/ibkLwPr7vfHOGBdi/PVaxf1etKoM0ny2W1iZEJ0ZSRL3uzf5reaazeavPPvssxW9flanlzQm6dNX+rHa7fbB7373u900wCzLWNzi2j1275l/V63WfqCdZbkxhgNhAEjlCfJG5uVPf/VPbuvnH/St993zLxNnfzTz0RvDS4zXvbAx5pVKJcnb6X/+7NPf/FPD8JmffPC+H48x/gJB4sHv29VKJTHt9vf9/tPPfHxg+/N9d/8XwdqPDnpAOxrjK8UD8L/+9Fef/uFB/IzvfPCeB1tRXzBRrnwo5BkOQHc+a6f5j/zR17/+i7QINvg+SRMqgoWSONUX18FZV6EVAGy6ANkFwRJrbZUrdf2MG557v5EZpdjFMC1sND7IHy84NzZMdQ+MMQN7j4/WTch7xiyAzde4zozSCtjExy7rK7QJru8ZHwA2edDcBQ+ZkXsY9/7XYQzbZobqvmWSgb7edvj688Deq4K1gZQ/AKxfcNNrA5oA18o5dswBuNLKo/9/xAr3sBuSVIan3axlY8RQ9e0Bv9x2yO55g7xOTRLuTQAGTEDtAAAgAElEQVSutsYlrINrXBvQBAAAAAAAAMDgIgAIAAAAAAAADDACgAAAAAAAAMAAIwAIAAAAAAAADDACgAAAAAAAAMAAIwAIAAAAAAAADDACgAAAAAAAAMAAIwAIAAAAAAAADDACgAAAAAAAAMAAIwAIAAAAAAAADDACgAAAAAAAAMAAIwAIAAAAAAAADDACgAAAAAAAAMAAIwAIAAAAAAAADDACgAAAAAAAAMAAIwAIAAAAAAAADDACgAAAAAAAAMAAS2gCAAAAyShEGeNjjEHGRFpkQMXoYzRGPuEaAwCAoUEAEAAAQFKUrTprnGQdrTHA19la55yRTMY6GAAADA0WPgCAm0auFAZBMOG1PA9PB8mbGCmTMqjXOcjnxldq0S3QGtgtooIM1ZsAbMLTBLhGBABx7Q/4zjZi4CkfwIZ7gyRZs0JLYLf7gy98+Vefeutb/+1IrZbRGoNtudGof/Lzn2/QEtgVD2ypT02wqTEaZSUOoEc0RqrILNMUuKb5hCbANT/km/jtPIQYjbGG5gAgKUpRxigx5tu0BgbBf/7sZ1NaYSgQ/MOu4evhrG3YC1K8PcYYVb57AzDk63BjnI/BG1d/ldbAtSCPHNfMGfv/KUZjWXQA6K48YnDWGCPz27vhh41SkGKQxK/X/WVCjApWIuEEAHbQ73z2q69aa77qnDMxxkCLAIjR+MRaE/L4UnV+/qu0CK4FGYC4Zp/8/Jc/+7YHH/iP1oX355nPZEyFVgGGeeERc2dt4n18aXR84tf7/yc2VeecDSFaw+uv17++PlSds4rR12gNANjpObf6T2Jo/WkZY1W8mOGFPDDUQnQmMSFx/+fHvv3tWdoD14IAIK5LWq39VDVv3Zc4d1vmfWaMSViAAEP4HBKjt8YkxlrVTfLff/zTn36t7ye8SuUb3qdfqFaSVuCAh9dlXMWbqFGXVL5MawDAzvrDr3zh997+0Jv+Xl3xr7WyLCiaYEzkxHJg+IQo46uJq4QYP/GHX/7K36VJcM3PQzQBrsfnP//559710P0/mBn9aqVSeaP3vthUB2BoGGNMkiRJjHE+MeYvf+JLX/qN3fBzf/Jzf/wzkn6GKwgA2I3+4Itf/vC7H3mTSZz7qyZG+RjFMhwYLtYYa52zUf7/HR2Z/G9oEVwPAoC4br/7xa997p2PPPIOH1r/rZX5s0HxaCz60g1kAhY7GPI8VwxBrVZrLaBoJGednHMqtqFpMIONRrLGKEYpz3OtC6oaqVaryzmnJGG4XrEXxSjvvbJ2W1mWdZpOxtqy7dyA9p9i/BhjJCOF3Cv3XjGEbtG2SqWiSrUq51zxdTf/V3prNG+l38xHzc//3qe/+nV6IAAA2+N3/vjLf+17Hnnz72V5/hdtNO/OFUfMTdZ1DyHIe692qyUf1koMOmdlnVPi3OCuwyUZa6TOOjx4xbD2OWu1mlySsA6/xme5drst731PHyqeYay1ijEO8LNc8fkue5aTVK/XZaxVpVJRVJS58c1zIYaQyZmvhah/+ekvP/1L9D/cQHcFbs7bH3vzXZVW+6i31Zox5rrv6vVKxT7/wnPpX/jJn3zfqTvP/OXM+xh9NNVqVYtLl/Txj39CzhodfsOR7uQxSB3XWqvzF85rcXFJj7/1MZ04eVJpM1U0MUyMjdkL5879p1/42Z/+38ZnZpzxhve8m/DtRhybmR798Z/6q7/cbrUmvA+KihobHdMnPvkJfec739Xtt9+usbExee8Hpv9ESYlL1Gis6oUXXtTx47frPe95j1YbqzIycs6qVq+v/vOf+0f/9fL8hVVbGbE3MkYlKcZo5PLchsqF3/niF79ErwOAPl+fPfymP5dn2a8M+qmx0RhfMcZZ5z76+1/8yg8N0zV+5yOPHGpXWidqaXXvjX6PinPm1Zdfyp764Ifue/xdb/vZaIyNPspVnPIs1yc/8XEtLa/otmNHVanVFLy/mQBG362jnHNauLSgc2fP6v7779fDDz2k1dWmjImxVq+bdiv92s/97f/5b1TGx4KLjmfnTdTG6u7bTz/d/OG/8OPveuyJJz+8uLTojZGzxinPM/37//DvlTinY8duk4wU42DckIoba5RzThdm53Tu3Fm9653v1qlTp9RorChKYXJqys7PXfyD/+Un/+LfeeO9D440Vlv+htfhwa7U68lLv/1Hf/QSvQ43ipsY+ucmGuPj3/nuy3+oGIyPURXn1M4y/fIv/ZJmZ2d1z733amR0VHmWScYMzAC0zumZZ57R6uqqfuxHf1RH3vAGNdNUijE/cOBg4sZGf2rUmH9MD3l9K6urX1paXn5TmqYhz3M7s3dGv/kbv67f//1P6dSdJ3Xo0CFleT5Qn7mSJDp3/ry+9fzzevJtb9OHfuBDujh/UUmShFqlaienJv9kfGzsfnoHAAwXAoC4znW4/e7Lr6xKse5DiCZGMzo6ql/+5X+lZ559Rvfdd5/2TE6qPWjrKJfo2y98W3OzF/WhD/0ZPfTQQ1peXZUkPzk56SpjY7+4p17/EXrINfWhR1597bXPZO3cxRhlE2ucc/r5f/rzWl5a1BvPnNHY2JhCnmsQjrK2klQmp7zwwguan5vTj/zoj+mOO05oZXlZMibsmZqyk3v2/J2Kc3+LHoJ+QC4z+sZ3vvOdF1dXVxve+7E8zxVj1MzMjKampvTiiy9q8dIlGRXp+YPCWqs0TbWytKjR0TGNjYxodna2TJ2PRiHIjoy8QO+4NivLy19vLC+/aWlpSZIU8lwHDhyQMVFzFy5ocmJi3baEQZA5p7kLF6QYdejAAc1eOK/VlRUZSeOTk5Li0/QMABjeZ/Ly18B/RmMtuyRugjEmfOMb3/hOjPF0mqbFFsYYNT09pbzd1vzsrKpJMnDr8FYIWpifV4xe+/bN6MKFC2q321KMsZokWm02v0nvuDZf+9rX5oL3r9Xq9dvSNA0xRjM2Oqo3HD6kL7z6iubn5pRY2y3XMwgS59RKU83PzWnP1JRq1Ypmyz5kjDGN1VWlafosvQN902dpAvSL48ePn/3Od77z1Var9XiMMcQYbYxRR48e1Z/8yZ9oZWVFe/fulbWDcXhnCEFJkujSpUtK07buuutuVapV5d7LOReSJHErq6sX9k5OfoPecW2cc384Nj7+wyurq8Faa733OnbsmKrVqlppKu+9kiRRCGEgPq+1Vnmeq9VqqVqt6vbbby8+Y6WiEEIYHR21SZJ8mp4BAMPHxmhUlsQd5M8ZY3QyxsQQON39Jk1MTHzKe386y7IgyWV5rjvuuEOf/exntVJkxQ3MOlySkiTR0tKS8jzX/v37NTW1R61WS865aIxxjUbDj01OUvbkGj3wwAMvPvfcc8/VarXbsiwLIQRbqVZ1/PhxfeYzn1GapjLGDFQfss4pTVM1m02dPHlSe/fu1cLCgpxz0TlnYoztkZGRP6R3oG/6LE2AflKr1X53bGxMMcYgSa1WSydPnlS1WtXi4qKyLBuYSaNTz3B5eVl5ucByznWCU2F8fFwjIyPPHDtw4Hl6xrXx3n/l4sWLqbU2iTHGPM81NjamY8eOKU1TLS4uDtaiw1otLy8rTVMdPXpUY2NjKrNno7XWzc/Pt51zLFwBYBhF5VFqS2pJSgf1lzWmGWLMTfFZcRNGRkY+5ZzrrCPUbrd15MgRjY2NqdFoqNFoDNSLeGOMlpeX1Wg0dOrUKTnnuqOnXq+bGOMLU+Pj7KS4DvV6/Y/LLFFjTHE4yMGDBzUzM6PFxUW1Wq2BWovHGHXp0iU553T8+HGVH1xSEWCu1+t/Mj09/RI9A/2CDED0lWq1+kerxRtGa4yJWZaZffv26dixY3rppZe0tLSkmZkZ5Xm+6ycP55yazaaWlpa0f/9+3XbbbUrTtPPbJsaoarVK8OY6NJvNP67Vas9Za+9bWVkJIQRnrdW9996rb3zjG1pdXdXMzMxALTo6AcB77rlHxpjOgjaMjo66LMue37t37+foGQAwfFxS/c26Cd8y1cE/QMy0gkviyCxX/ea0Wq2vXbp0aTlJkokYY8jz3E5MTOjuu+/WZz7zGS0vL2tiYmIgdlIkSaJ2u62lpSWNjIzo1KlTCiF011H1et0aY74+MTFBv7oOY2Njv/vaa699WJIzxqjVaunQoUM6evSovv71r6vRaKherw9EH+oEyVdWVjQyMqK77rpLjUajEwD0o6OjiTHmd+kV6Kt7H02AflKpVD6XZdnzo6OjdzabTd8J4Nx333169tlntbS0pOnp6YF4c2SM0dLSkhqNht74xjdq37593Qy1GKNrNBo6fvz4/02vuHYnTpwIL7300qck3adyy1O73dZtt92mffv2aWFhQfv37+9myu32hWuj0dDi4qJmZmZ04sSJomZNz+9XKpVPGWMCPQMAhs8nP//5hiReAuGaHT169Cvf/OY3v1Cv19+1uLgYpeJl45kzZ/S5z31OS0tL2rdvX++OlV3LWqvFxUUtLi7qxIkTOnLkiJrNZue3XaPR0N69e/8fesX1mZmZ+fizzz77gqQTrVZLIQQjSWfOnNGzzz6rixcvas+ePbv+c4YQVKlUNDs7q0ajofvuu0+Tk5OdAGCUZFutVjYzM/MxegX66t5HE6CfTExMzIYQPlmtVrv/rbMN+NChQ1pYWNDq6qqSZHfHrjtvjObn51WtVvXmN79Z7XZbMUbFGMPIyEgcGRn50ujo6GfpFddnZGTkX6+srMSima1arZZmZmZ0+vRpNZtNzc/PD8xnnZ+fV7PZ1KlTpzQzM6N2u90JjrtLly7FiYmJf02PAAAA17GO+q3yhaKx1qrRaOi2227T8ePHdenSJS0tLQ3Ei/gQgubm5mSM0b333qtqtSrvvay1MUkSI+lirVZjHXVjfejfjo2NmRhj6PShM2fOaGZmRsvLy1paWtr1z3JJkqjVaml+fl7WWj3wwAPdfhVCCGNjYzbG+PTMzMzH6RHoqzgETYB+U6/XP1Ke4uqMMUrTVHv37tX999+vNE01NzdXnEy2S8UY5ZzTwsKClpeXdfLkSZ04caJbE8N7H0dHR029Xv8IveH6HTx48DO1Wu0r9XpdkkKnDz3yyCMaGxvTpUuXdn0QOUkSNZtNLSwsqF6v67HHHusGkCWFer2uer3+9N69eyk6DAAArtm+ffs+GkJYSZLExBi7h9Y9/PDDMsZobm5uIHZRLC4udsvwPPDAA1pdXVVZ/9CPj4+rXq//h6mpqZQecf2q1epvLS8vp9Za21uT++GHH1aappqfn1cIYVcHkp1z3WDmiRMndPLkyW4GqTHGOOc0Njb22/QG9BsCgOg7d9xxx6eq1eofjo+PS1Jwzml1dVVvfvObNT09rYWFBS0sLOzKAE4IoVv7b25uTs45veUtb1FngVVm/9k0TS/kef4f6A03xnv/v5f1RaK1Vmma6sCBA7r33nu1srKiixcv7vog8oULF7SysqJ77rlHBw8eXBdAHhkZUYzx/6AnAACA6zE2Nvba2NjYR8fHx00IIVhrtbq6qjNnzujo0aNaXFzUxYsXValUdufDr7XK81xzc3NK01SPPvqoarWasizrHH5iG41Gu1ar/Sq94cYcOnToj6y1n5qYmDCdgx2bzabuu+8+HThwQPPz87p06dKuDQBaa9VsNjU7OytrrR599NFuv7LWRuecbbVajRjjL9Mb0Hf9lyZAP6pUKv/YWuslRUkxyzJNTk7qySefVLvd1tzc3K48EdhaK2utLly4oOXlZd19993dN0adU4Hr9bpxzn302LFj36In3Jipqal/m6bps2X6fYgxqt1u68knn9T09LTm5uZ06dKlXRlE7ry1np+f19TUVHdMlNvH/fj4uG21Wt+anp7+N/QEAABwvWq12i8sLS01yiBf8N4rSRK94x3vkLVWc3Nzu3Y3hXNOc3NzWlhY0MmTJ/XAAw90M7dijGFiYsJ673/n8OHDv09PuHHGmH9S1sOz1lp1nuWeeOIJee91/vz5Xfks13mem5ub0+Liok6fPq3Tp09rZWWlm0E6OTmpEMKv8CyHvuy/NAH60cmTJ3+j1Wp9aWJiwoUQgjFGq6ureuihh3TixAktLCzo/Pnzu27SqFQqmpub09zcnMbGxvSud71L3nt57xVjjJVKxWRZ1rDW/hN6wY07fPjwQgjhlyuViulM1M1mUzMzM3r88cfVbrd14cKFbtbcblpwpGmqCxcuKE1TPfHEEzpw4IDSNO18DlOpVEyM8ZcOHTrEqXUAAOC6HThw4MtJkvzWxMSE7eymWFlZ0enTp/XAAw9oaWlJ58+f33XbODsvUS9cuCBjjN7+9rerUqkoyzIZY2SMsSEETU9P/xy94Oa88Y1v/I/W2k+Pj4+bGGMwxmhlZUUPPvigTp48qeXl5V35LJckiRYWFjQ7O6vx8fHus1ynDE+1WrV5ni9NTEz8C3oB+vJ5kiZAv5qamvqZMmPOxBjlvZcxRt/7vd+rer3eDaT1HhjS7xPGysqKzp8/rzzP9e53v1v79u3rBqFijKHcbvHPb7vttm/TA27OmTNn/n6apt8aGRkxMcbgnNPKyooefvhhnT59WgsLCzp79qyMMbti8WGtlTFG586d0/z8vE6dOqW3vOUtWl5eljGms33cpGn67Wq1+vfpAQAA4EZNTEz8vTRNm845KynGGJWmqd75zndqZmZG8/PzOnfu3K4J4HSy0M6dO6fV1VU99thjOnXqlFZXVzvrcD81NWWazeZvHTly5BP0gJtXqVT+bowxM8bEGGP03iuEoO/7vu9TvV7X7OysZmdnd8V28k4tzEajobNnzypNU7397W/XoUOHuju5vPcaHR211tpfO3bs2NfoAejLeyFNgH71hje84Tcl/cbk5KTtPUXq+PHjes973qM0TXX+/PldcZJUZ9Hx2muvaXl5WQ8++KDe8pa3aHV1tfPG0Y+Ojto0TV88cuTIT3P1b416vf7hWq1mygBZDCFIkj7wgQ9oenpaFy9e1NmzZ3dNAPDs2bOam5vTnj179IEPfKC3dmQ0xkRJJsb410+cOBG4+gAA4EYdPXr0qzHGfzw5OWlijL5zqNrU1JTe//73S5Lm5uY0Pz/f9wGczjrv1Vdf1cLCgu644w59z/d8j5rNZvclaq1WU4zx0uTk5N/i6t8ap06d+k95nn90amrKdZ7lWq2WDh8+rKeeekpZlunChQu7oixPkiTKskxnz57V0tKS7r//fj366KNaWVnp9KE4MjJim83m2X379v2vXH307f2QJkA/27t374fTNF2uVqvd9PGlpSU9/PDDeuSRR7S0tKSXX35ZjUajbycOa61CCHrllVc0Pz+vo0eP6qmnnlKapp26bYoxamxszFSr1b85MTGxwJW/NW6//fZ/t7q6+u+npqZsZyt5q9XS9PS03ve+93XrMZ4/f76vF6+VSkUXLlzQ7OysjDF63/ve180eNcYohBAmJyddnuf/8cyZMx/lygMAgFuwhv2HrVbr2ZGRkaQTBOxsBX73u9+tZrOps2fP6tKlS327jursoHj11Ve7L1E/+MEPSpKyLJNUpDeOjY251dXVXyBz69Y6ePDg30zTdKFardryhbVWVlb00EMP6dFHH9Xy8rJee+21vq4p2anT/sorr+jixYs6dOiQ3vve96qT0SgpGmN8tVqVc+5vjo+Pn+fKo2/v6zQB+tnk5ORztVrtw1NTU6acn+W9V6vV0nvf+17dd999Wlxc1Msvv9yXE0eSJN3g3+zsrGZmZvShD31I1WpVrVars+jwU1NTbnFx8f86fvz4R7jqt9bevXt/qtVqnR0ZGXEhhNgJIt999916//vfrzzPde7cOZ07d64vFx6d4F9nu8FTTz2le+65R0tLS53gX6zVai7LsrlarfaTXHEAAHAr3HnnnQujo6N/pVqt+rKucjTGaHl5WW9729v05JNPamlpSa+88ooWFhb6LgjYCf699tprunDhgur1un7gB35AMzMz60rwTExMuNXV1T+69957yf67xaanp18aGxv7H8fHx42k0NmR02g09NRTT+n+++/X4uKiXnnlFS0vL/fts9yrr76qixcvanp6Wj/4gz+okZGRbh8qX8QnaZr+xp133snJv+hrBADR944fP/7PLl269JE9e/a4GGPeOWY9xqgPfvCD3Xpu3/3ud7Wy8v+3d/Yxcpz1Hf8+z8zszM7s7Nvt3t3mfL63+BIH26El55CURKmdkDYB5ETFIKhatSKigZZCeatApPzRgkRbJFrSUrUFIVooTVulkTDB4DhKUmKcQPyS2nexHfvu5Dvf297u7LzsvD1P//DOdG1MVdrYvnOej3SydNrzH/P73c33926vGfEhyzLa7TZmZmawsLCAQqGA3bt3o1QqwfM8SJIExlis67oUBMGxOI5F8uYy0N/ff5pS+v5cLhcoihIn1UfLsvCmN70Jd999N9rtNubn53Hu3DlIkrQmRoIppZBlGXNzc2ny75577sFtt92WJv86h2Ni0zSjbDb78NjY2AlhcYFAIBAIBK8Vg4ODT3qe9ye6rlPOedw5dgDXdXH33Xdj+/bt6UROvV6HLMtrRkclXVtJkXfXrl0YGhpKxzYZY6wzZdTQdf19wtqXh4GBgb+3bfurpVJJ4pzHSSwXhiF27dqF8fFxrK6uYnZ2Fq1Wa03Fcr7vY3Z2FouLi8hms3jnO9+JSqWCzoXjNJYLw/Dk4ODgB4S1BWsdIh6BYD1w5MgRRdf1H1NKtzabzViWZYkxhkwmA0IIHn/8cRw+fBiFQgG9vb2oVCoAgDiOr4rgkCQpbWmv1+vo6+vD7t27UalUYNt2Ui3iiqIQwzBcAPcMDw//UFj68nH8+PHPa5r2h61WK+Kcy4Sc//NnmiZeeOEFfPe73wXnHL29vejv74eiKIii6KoJjmRR9dLSUrow+bbbboNt2wAAzjkIIWGxWFSCIPjT66+//hPCygKBQCAQCC4Hx44d25PL5X51dXU1AiBzziHLMjRNw969e/Hcc8/BMAxUq1X09fUhSfJcDRRFSY81JNdad+3ahRtvvBGNRiNdzyNJEisWizSO4/eKKZzLz+Tk5EuKoryx1WoxSinlnKex3BNPPIHDhw/DMAz09/ejp6cHAJIR26sayzUajXSKq1arpQlkQgijlBLDMHxZlu/bsGHDfmFlwVpHJAAF64a5ubkbbdv+AYAB13VjSqmUvDgkScLevXvx/PPPQ1VVVCoVVKtVaJp2RcWHLMuI4xgrKytYWlqCZVkYGxvDgw8+iFwul1aLOOdMURRumiaLoug3RkZG/klY+PLz0ksvfaNYLP56s9mMCSFSkgTM5/M4evQo9uzZA9u2USqV0N/fD9M0wRi7YuIjERyWZWF+fh6rq6vQdR1ve9vbsHXrVrRaLQBIjn/EpVJJsizrsW3btu0W1hUIBAKBQHC5sCzLXFxcfIpSeotlWREhROacQ1EUZLNZPPvss3j66afBOUe5XEZfXx8Mw+jek3ZFdDjnHCsrK1hcXIRlWejr68MDDzyAgYEBtFqtdIJCkqS4VCrJ7Xb7U2NjY58XFr78nD179gbbtp8EMOx53gWxnCzL+P73v48DBw5AkiRUq1VUq1Vks9l0V+OV8iHGGJaXl9NYbnh4GA8++CBKpRJarVbSXcoppSyfzxNCyEMbN24Uo7+CdYFIAArW24vj9iiKnvB9vydJAiZn2Q3DwKFDh7B37140m00Ui0X09vaiVCqllb4oil7TsQTGWDqqCQDNZhMrKyuo1+sAgO3bt2Pnzp1Ijk8kooMQgnK5TKIo+r3h4eEvC8teOZIKdqPRCDnnSscmME0Ti4uL+M53voNTp05B13X09PSgt7cXqqqCMXbZOkqTsWPf97G4uIiVlRW4rouRkRHcd999abURuLDzr91u/2B8fPweYVWBQCAQCARXQIcP+r7/PUrp5mazGQGQu4upU1NT2LNnD5aWlpDP51GpVNDT05MmVS6XDpckCYQQOI6DpaUl1Ot1hGGILVu24P7774emad0jm6CURn19fbJt218aGxv7sLDsleP06dNvZIztjaKo6nkeo5TS7ljuyJEjePLJJ2FZFvL5PKrVKnp6eq5YLGfbNhYXF1Gv18E5x8TEBHbu3AlJkuC6LiRJSpJ/vFKp0CAIPjk0NPQFYVnBekEkAAXrjpmZmbcGQfAPjLGq53kXiA/TNDE3N4d9+/bhxIkToJSiUCigUqkgn8+nY51JJTL5o//zviSA891aycvI8zzU63XU63U4joNarYYdO3bgDW94A1zXRRiG6aJhWZaJaZqIougTo6OjfyYseuWZnJz8nqqqb+10AlJCCOGcQ9d1MMbwzDPP4Ec/+hF830cul0O5XEaxWEQ2mwXn/DXrKpVlGYQQ+L6P1dVVrKysoNVqQdM0bN++HXfeeWcqOJLkMWOMlctlqd1u79c07d6hoaFQWFQgEAgEAsGV4NixY1tkWf43WZY3NZvNmFIqJcXUXC6HZrOJp556CkePHgVj7AIdnslk/l8dgZfS4ZxzeJ6H1dVV1Ov1dJLjjjvuwMTEBIIgQBAE6QQOIQSFQoEyxr4yMjLysLDolef06dN3Mca+Hcdx78WxXC6Xw8LCAvbt24epqSlIkgTTNFGtVi8Zy71WPuS6Lur1OlZWVuB5Hnp7e7Fjxw5s3boVrusiiqLUhyRJQrFYpFEUfWZ4ePiPhUUF6wmRABSsS06dOnULIeSfJUkaaTQaIQAlqepls1lIkoSjR4/imWeewdLSEiilKJfLyOVyME0T2Wz2/C9A52c450iWGicvh+TFkHyu+ytJArVaLViWhdXVVfi+D8MwMDExgTe/+c3QdR22bYNznrxcYkVRJFVVY1mWHx4aGvpbYcmrx5kzZ76VzWbfvbCwwM43ZRLCGIOiKNB1HXNzc9i/fz9OnjyJMAyRz+dRKBSQy+WQy+UgSRKAdBw39Z+LBUm3DyXX6JLPOY4Dy7LQbDbRarUgSeqZbs0AAAveSURBVBI2bdqEu+66CwMDAxcnjzkAls/npSAIHr/hhhseEFYUCAQCgUBwpTl58uSgLMuPUUpvXV1djTjnMqUUcRwjm81CVVVMTU3h6aefxtmzZ8E5R6lUgmmaME0Tuq5foKl/lo7qLtInGqr7ZyzLQqvVQqPRgOu6UFUVN998M+644w4Ui0U4joM4jtMiPCGElstluK77hfHx8U8KS149zp49+wtRFD3GGBuzLCtNAiaxnCzLePnll7F//34sLy+DUopisYh8Pv9Tsdz/1YfiOEar1UKz2UxjOV3X01jOMAw4jpMmDRljcSaTkTKZDFRV/fDg4OCXhCUF6w2RABSsW6anp28Kw/Absiz/omVZrDMaSTtLfaHrOoIgwNGjR/Hiiy9idnYWkiQhm83CMAzkcjkYhgFFUSBJUjo+kHx1J3eS8c8wDNFut9FqteA4DjzPg+/7qFQquOmmmzAxMYFKpQLP8xCGYdq1xTlnpmlKhJBlQshDIyMjjwsLXn1mZma+yBj7SCfRlooPznmaSJ6ZmcGBAwcwNTWFdrsNwzCQzWZT/9E0LfWfpJLYTbf/xHEM3/dh2zZs24bneXAcB7quY3R0FLfeeitGR0cRxzE8z0sFSpI8LhQKiKLo0eHh4d8V1hMIBAKBQHC1mJ+fLzmO8w1CyP2dgne6mocQglwuhziOMTk5iYMHD+LMmTNgjKXaKZ/PQ9f1VIcn14O7dVRSoE80VBiGCIIArVYr1VGe56FUKmF8fBwTExMYHBxEu92G7/tpoR9ArOu6pKpqm3P+cbF+Z20wNTV1I+f8q9ls9rZGo8EB8EvFcseOHcPBgwcxOzsLQgh0XU9jOV3X033w3ePgP8uH4jiG67ppLNdut9Fut9HT05PGctVqFe12u7tzlDPGWKFQkCRJWmWMfUDsbxesV0QCULCumZ6eViiljwJ4yLZt+L6fHnfo7uZyHAfT09OYmprC1NQUPM9Ld0gklUpN01Lh0d0ZyBhDEATpCyIMQ8iyjEwmg+uuuw5btmzB9ddfj56eHniehyAIkj1tAMAIIbRYLIIx9pyqqu+v1WrHhOXWDnNzc+91XfdLsiz3NJvNGABNugETkUEpxezsLF599VW8/PLLqNfriOMYURRd4D+KooAQknYHJsm/JHHs+z48z0uFbqFQwObNm7F582Zs2LABnHM4jtPdNco55yyfz0uc84aiKB8VS4YFAoFAIBCsIS3+2SAI/ogQAtu2Y3o+g0eSJI5hGAiCALOzs3jllVdw/PhxtFqtdJ2KpmmpjkqSgN2F+CTx53lempSRZRmyLKOvrw9btmzB2NgYarUagiCA53ndOiod+Y3j+BVK6cPDw8NPCautLc6cOfNlQsgHO7HWBd2AkiSlhxRnZmYwOTmJycnJNJZLtLqqqukxkUSLdyf/fN9PdXgYhmniuVarYdu2bRgbG0O1Wr1kLAeAlstlxHH8POf8AyMjI4eE1QTrFZEAFFwTzM7Ovi+Kos8QQjY2m01wztPdbsliWV3XwTmHbduYnp7GzMwMFhYW0Gq10irQxYtlk5bv7o7BarWKjRs3YmhoCKVSCbIsX1wlAoCYc05M06SEEF9RlL8YHBz8hLDU2mRhYeHmVqv155Ik7ey8+GNyHnpxIjAMQ8zNzeH06dOYm5uDZVmwbRutVis99NI95puI22T8PJ/PY8OGDRgaGkKtVoOqqmk18uLEn6IokmEY8H3/PyilH9q0adNPhLUEAoFAIBCsJaanp98eRdHnFEXZYlkWoii6QIcn3VyEEHieh5mZGZw5cwbnzp2DZVlwHAe2bSMIgp/S4YSQdPLCNE2Uy+VUR/X29kKW5bTQ2p346+gvms1mQQj5ZhRFHx0ZGTknrLU2WVxc/E3HcR6hlI42Go1LxnLJ2K9t25iZmcH09HR67dlxnDSxnCSRk0YOSil0XYdpmjAMAz09PRgcHMTIyAjK5TIkSUqTx0nisDuWAxBpmvZXAwMDvy8sJVjviASg4Jphfn5+mDH2iOM4v6VpGhqNBu/sTaPJTojkylMmk0Emk4HnebBtG67rwnGcdLQg6fJTVRWyLKcJHMMwYBgG4jhGu92+YAltJ/HD4jjmuVxO6lyTepZz/unR0dFnhYXWPrOzsw95nvdZTdOus207GQuWEvEBIPWf5DKwZVmpH7Xb7dQ3useINU2DruupeE0u/gZBkFbAu/b8xbIsy7lcDu12eyWbzX5u48aNXxTWEQgEAoFAsIY1lMo5f8R13T8wDENbXV0FYywmhEjde7YTHaVpWjrO271WJ9HhhJC0K1DTtFSDm6YJxlj62e693YmO0jRN7hyLmJRl+ZHR0dHHhIXWPisrKxt83/+0bdvvz2QypKupQ7pULKcoCoIggGVZaSwXRVE6uZXo9WQF1MWxXHIg5qLd72ks1/Gp51VV/dTg4ODTwkKCawGRABRciy+Pex3H+Ui73b43k8nAsixwzhk/f+khrSRxziFJ0gW7R7p2rv3UktgoitJ/k5dEpzKZ/N9SNpuFoihgjB3K5XJf6evr+xthkfUnPlzX/Zjv+7+WyWQGWq0WwjAEgJhSSgDQxH8IIVAUBbIsp7tHun0ouSyW7ACMoghhGKY/mwgNxhgnhFBZlkmhUEAQBKuyLP+jLMt/et11180IqwgEAoFAIFgPLC0t3eL7/sc9z3uHoiiabdtg57mkDk80eDL+250s7O7iCsPwAh2eaPEujS+pqgpd1xFF0QlJkr42NDT0eWGR9ce5c+d2hGH4Mc/zfiWTyRDLsi7Qy69VLNflZxfEcplMBoyxI9ls9iu1Wu2vhUUE1xIiASi4Zmk0Gjsdx/mQ67r3EkJUSZLQeYFEHd+nnPP0dyARHBcvjr34e4QQDoADYJxzmsvlqCzLcF2XZzKZnxiG8Ze1Wu3rwgLr3n/GbNv+bdd138cY69U0LbnKGzHGSGfHDRIfuliw/qzvdfwHjDFGKeWKosidMV8AWMrn838H4Fv9/f1HhRUEAoFAIBCsR5aXl7f7vv87tm3vJoQYXUX5VIdfSkf9b3Q4IYR3xnyJpmmSpmnwPA+U0pOqqj6q6/q3q9XqvLDC+mZpaemuMAw/6DjO2znnqqIolyWW03WddibDuCzLhxRFebRQKHytVCoxYQXBtYZIAAquedrt9vULCwvvieP4vlarNVGpVGiysy+O4+TYR/IiSMaGk5cG6XR1Ec45TY6EKIoCwzBg2zYIIZOqqj5rGMa3K5XKPvHErz3OnTv3Hs/z3hUEwe2aplUApMuHO5Xp1H86XaG82386f2sJpZQQQi7YY+L7/nImkzloGMa/ZzKZrxcKBV88cYFAIBAIBNcCrusONJvNd/u+//YgCLYbhpHtXoPyc+gomlx5TY6L+L6POI7PaJp2QNO0f+3t7f0X8cSvyVhudGFh4V1BELzDtu1bent75f8plruUD3XHckm3YHIoUpblKUmSflgsFr9ZLBZ/IJ644FpGJAAFrysWFxffwjnfFgTBXZ7n/ZLv+xXGWObiC66XGt3sXIQKVVW1FUV50TTN/YSQHwdB8EKtVlsVT/faZ3l5eTNjbKvv+7e7rvvLvu+Pc84zmUyGJuMHSZIY+O8rwMkFuyAIWBzHga7rJ7LZ7H5VVX+oKMrRnp4ecRlaIBAIBALBNY3jOBOO42xpt9t3dr4GOOcZVVWJoihIkjMX6/Bk518cxxFjrK2q6hHTNJ+SZfkgY+ywWJfy+mFlZeV2xtg2z/Puarfbb+nEcmr3FelL+VByCZgxFsVx7Oi6/uNsNvuUqqovOo5zaHR0dEE8XcHrAZEAFLyuaTQao3Ecb4rjeBxAjVJqhGGYp5QanHOfUtokhDiMsRVJkk6oqvqKaZr/KZ6cAADm5+dLmUzmxjiOxznnwwAKlFIjjuM8AEiSZDHGHABNQsgZSZJOlMvl44QQkTAWCAQCgUDwusZ13QHHccYZYzcQQgYA5BhjeQA5QkjEGGtSSl1JkupRFL1KKZ1SFOWwGM0UJHieN2xZ1g2EkE0Aaowxs+M/OQBtxpgNwKaULgM4pSjKK+VyWazZEbxu+S+S6ZtlvNg8AQAAAABJRU5ErkJggg==;" vertex="1" parent="1">
          <mxGeometry x="312.1" y="611" width="218.81" height="60" as="geometry" />
        </mxCell>
        <mxCell id="eTgD-rTSjZ_ZBX3sN6aC-5" value="" style="shape=image;verticalLabelPosition=bottom;labelBackgroundColor=default;verticalAlign=top;aspect=fixed;imageAspect=0;image=data:image/png,iVBORw0KGgoAAAANSUhEUgAAAkQAAAClCAYAAAC9Z+JUAAABhGlDQ1BJQ0MgcHJvZmlsZQAAKJF9kT1Iw0AcxV/TilqqDnYQEcxQneyiIo61CkWoEGqFVh1MLv2CJg1Jiouj4Fpw8GOx6uDirKuDqyAIfoC4C06KLlLi/5JCi1gPjvvx7t7j7h0g1MtMswIxQNNtM5WIi5nsqtj9il4EEcAo+mVmGXOSlETH8XUPH1/vojyr87k/R5+asxjgE4ljzDBt4g3imU3b4LxPHGZFWSU+J54w6YLEj1xXPH7jXHBZ4JlhM52aJw4Ti4U2VtqYFU2NeJo4omo65QsZj1XOW5y1cpU178lfGMrpK8tcpzmCBBaxBAkiFFRRQhk2orTqpFhI0X68g3/Y9UvkUshVAiPHAirQILt+8D/43a2Vn5r0kkJxoOvFcT7GgO5doFFznO9jx2mcAP5n4Epv+St1YPaT9FpLixwBA9vAxXVLU/aAyx1g6MmQTdmV/DSFfB54P6NvygKDt0BwzeutuY/TByBNXSVvgINDYLxA2esd3t3T3tu/Z5r9/QBKOHKWsUD58wAAIABJREFUeNrsvXmUJddZJ/j7vhvxXr738uVWq6q0VFl7abEt2daCDQaz2RibphnO4O5mnWYZ4LA1NKfBbg/Q3TbdDafnQM+ZZuYMW9tuMA2YgYEG29gI20KSJVmWtVpSSSpJpVpyz/deRNzvmz/iRsSNePEyX2ZWVpXkvEepynwvlhs37v2+3/19G2G37bbd9hXTfuFXfu2wieLrBHwEhqZI0QQjICJDSkwAAwwiIlWl7Dwicr8LNP2n1IiL31VJiy9UIQC876Gq63aSSMldh0hJ3fFE6cUIrN6lFMygda6plPbHP0bVqhCpqfSZKDvGALCw3nVY2buHhRDn5+efCsBEQ30RtUOfsZJm4yLu/uzuL15fDTOUWEWF0vOy8Uj7k42PuLFg71xyfdHK+KTPaUDsvhdVUlUi0vTVkrApxibrF7l+av63qjIriSozqRArq6qIaKJqAYlgpZ+QLjWZX/jFX/yZ53ZX4W67WBvtDsFu222v/vaLv/irV4PxDijeAaLrmXlaCSGlOpiUiRgEqBKoKhY0FRVDmEPrRQi5Y8k7x/8d5M6tacxKm8BOpQOoTpxp6X4piNDSo3iorwwc8sfToe4q1J1X+/ylo8+ceRlPPvE4oih2F3UXJoD880mVXF9V3ZUJaDYncPQ112LPnr2ld0CseubsGXz5iccRR32A/KuliKU8JOUeE0NnZvfiiiNXoTXRdEPJam2MZ555GqdPvQgCKYhgmECU/hTPRyAwQN5bINUwaODQ4Ut1z569qoAQyKrKmiieJ8WDSvo54eDzv/Len3xsd2XutoupBbtDsNt226u7/av3fuC7yeB/AfgNUGllTA952CcgAhuTqzkQcgUoYiGiThmnCpuIYIwBeRpXU6jhqV8q/b3RrqxQ4E6xOxAlqhArwyDKAQpmBhHnFyq0s5awzBAMy0AbUD7IB0TlX1I4o+lYqKawSFWGsaEWIGt1dQ3/cO/dWJw/XRqRbJz9e1MFYKkqTNjEm6MEd9x+JwITpFdQgMDo9wZ48Av34/Spl8DeGAyNL9EQnrUimJqewzd9YwNXXXW1e4aUH3rp5Eu4+3N3IYmjAgghnS/qw678/adP5kAVrr3uGN72tV+PTqfjnphApFcS9C1Q+l6S5Mvvff+//yRYP/bL7/u5T+2u0t22C4h2227bbTsHhP7VvzkAxo8wmR8EcEmmEcnp4XSzzzABY2JiAkFgcqWXAR5mxmAwQJLYkrZnTs9hJog4cKAZd4IaNqnMrqQHpZApByUeICDKgE76hbUWURRDxNYQMgxjGGEYwhjj+lL+yQCQjsM6ldDNMJulUJCmtIhAoaIQEVhrIdbmkEcVICbMzs5iZmYOy0sL6bjno5QCjRRYKQiUA4zsbxFFFMd44cUXEA0GaE6GKQhzsGRubg579x3EmbNnauBlznqlgMUjrlQEooTFxUU88+wzOHrkCIIgAEAIgwCXXno5vtidwcL8mYKqcmOX/aQgNGO8OAVEorAS4elnnsJLJ1/CVVdelR6L1PQHgEVkCorXA3STiH7Le//1r/43tfj9X/mVn3tid9Xutl1AtNt22247p+1fvP/f70v6/Z8yFPwwINOQzOTBmbUGzAxmRrPZRLvdAqcKK/3OMIIgyEFJHMUl41MQGHTabYAAEckZJFWpBx1aAUTwmSDvdxTMFDGBKe0jMSFJEqyt9RwoIpAHVrL/h2GARqORghWRFKxo+m/OYGgG2ur4H8/cV2sSVJR6mz2ApveJ4wSDwQDW2vxZJicnMTMzhxPPHwc5ds0nn0oWNseKUWaHSp2pMH/2DFZWVzA9NQXRwlzXmpjAvn0H8OSTj8Pa2OduPBNXpfeqECYwBFYEL774AtbW1jA9PZW/t71zc9gztwdLC2cruJBApI6NohJrRg4gEgirq6t49tlncdWVV4KpALmhm1OJtUgSGyQ2uVaAnyXWW9/3vg/++i/90r/8+O7q3W27gGi3bdje//5/cwtz8/ZmGE6D0VSlUJ0vpGrq16qUyTxSQHKnSsA5RHK2WdaSE2nJEXZoB54ew2DNHVTJd1BNPV/9z4myexkEzAhDFmYjvUEc9/uDldXB4MVB3H/6P/67939p983uQOv3/1ci88METBOAIAxASMELeaDDGEZgGIExIC4UlzEGgTEwxiAOAtjElsiHMAgRNsKUaSCCkEBUoUq5OQlVbqXOLFWGRoWpDgA5wMbEOUATEQwGA3j2sVK/4ihGo9FAGAYQx9yISMpqeKAoZ7N84KbVDnJdR2v+TEGHgUEYBAgDg15/gCRJAADNRgOzs7MwQQCIpL4+OdhB7vvjFk6GgaAqIAUUjF6/j9XV1XRMRJx5EgiMwf59+zAx0UK/JzV+VM4s6kAgKaAF8gRRyhItLi1iZmYacICm027j4MFL8Ozxp1MASj6YpfyHyAelKXcFBkQFz79wAv1+H512ByKSj3cQBmhONGGtxSCK0O8PWhZ4hwoded/7PvCfGo32Q2FYqCdmKU0jEe/vEEDs/wEAMYwxpXOsTc+pfj50vZpmjdFGOmBCDRIjRuM4EZFoEATJ8z/90z892BU4u4Bot513HRf/QDPU7480CQEQO7TjaHey0NxpNFMQSlTe4GXuDuXdXeFsQTSkuXR4k186zon3kjCmXE8kSJiQxFAiQpxYieMoSQb95X5v8MwP/vDPfoYNPhF0Op//jV99/wu7b3n77Wd/9pe+n4l/iBnTbBjNiSYajRDRIIJKoc+YChNNZiZDxhylHzhzlMlNO5lZKz8+jfDKQYzHsxQK2GdWyOddPI8a8nyXPGWdM0iamunCMEQcxRDVMkBxfRcR2CRBIwyRBmE59gZpJJxohfDwwJrWkkKEkodzHeVVIosIjUYDxgToDwaIBhHCIMCx667HRLORAsscfzk+hWrwmJbNU0EYYnZ2tsKvpf+79NBh3HH7neitrXlrsAB9xbU9ICiZ+VAQhk202+2S/5IJAlx7zbWAKqI4Qj26pdK7zkGwYwo77cmy75cqrLWIowhhu41Gq4Vms4nABFhdXaVEcQPAHxA7OJtygAMX0eb5qVUc1kl862wMVlaFIpEEJJRHw+WjlrDm5koo8p1c+vR1TmogGyNSUSJSxCQEUhFr49j2Exvf+y//5ft/7YMffP+zu5JnFxDttvPYrE2mE8ZE5tRqN9i0Fm4EXuRKbSROzZ69YsZQp/Q207SqeJxwt9Y2bJK0kzg+ECfJGzSh7zRx8sA//6Gf+WsKg0/8l9/44EO7b3tr7ad+6hfeIJAfJ6VLoCmwaYQhmo0G1BamIyYCM4EpVYo2SRCGYWqeynb6YqEENAKGNkNYa4ugMSgkiWBM4ExbBNXU5wUQZBH7hf9OGbiUJ5o6ZqRgqMo/AKfhcAiYEAYmdWSuU14ATPZcUIBS6pQ0DaBj969CUgTkOV2rFn2pwz0Ygnw1n2egkhikISAWIoQrjx7B0Ssuz01WCkA9YkK16vNTrJf8mo7B81heAMCeuVncefvtZbct55dUvK3sWQrQkgLQVC4YZhCXcifg8MGDOLh/fwnoFCAxZaOy56maATMfJxMEIIUzm6X+RiKCJEnQaDQQNEIwEZI4hu31oNC52MpcFEUwDnRn4Hxot+W7n1Hp8Ty5V0MA+gAdVOOMX3Nu5UKqCisKsXa/Kj4EYBcQ7QKi3XY+mzHBk71e/7k4jvepykROg3vOqKnPB5UE1CgxXguAqEYC0AiFtu4FK6e6vqbC0CKxFrEVqJJR6OEkkcNEeBtJ8sQP/OBP/cf/+7/8+u/svvHNt9V+781hkFwXhgFCYwC1WF6MsWYMmKlwiGUGKGUorCRYsxGMMaliJHJ+LZ4fivcOiQCJCclg1bE4tH50llPyBeDxAtYqk4mI/NPK9ItTtJkfUHWmEaVswsAOEK0tFT0YYb7LlHaZsUq/pA0mdm30nHrfOYYnJAWM+8oUTtTD5w33UWvTFPgpA9g7hqu7j5zx9Z3YHVdWHYihpymuG+RO2QW9jNpzquwWiHIAnjrep/5lYgW9NYto0E99vazFII6hYiHq5EMcgzQpQLE/capspLd5G7LKVhzCa0Va3SceY+nPIfJc4gGCKJZVk2hX8rw62jnJQ6SqBwBcCuASAIeSRPYDMsXMEwAaxWqCOsfNfGYKoFzK3CbqfteqyKjmdyt/Uvq2bHOGKLvvBAIGjxNmkiWf08pNtV4MVj8f6tuI8/zvBALW4nbiktoxRETPnD4z9/iTT1z/4gsnj8VxtJ+JyV+4xc6GUDKbDUkvzX0QyrslT3isMywVDVUmADxhQZlQzKNPLOI4QZIkKVXfaKLVasOYwNulK/bt3fPZr7rzTX82MTERbdCJjTqpG7wn3eR1x72ejnnNje6tm3l+ay198lN3vfPkSy9/KxMZZiqFdvvh4ZlYJ9CIqCutOEKP03v10hUVNqhcoTjwpJ7vDjklpz6oyaOYqMJ4lNkPqjIfVFZ8VJqNPlOioyVg3S4CIzYH1cOzZ/f8g9QDVzoaQdVL4tLaqvo6UW629t2oSnCt0k+qSf80nC2gDiBpbVdHZ8LU+uNKxisa6kVG0IkI4iTByvIyRJJzoNKGmbjKlKlhkEq7ufz4zFnfBGZpcrL75f379951xx13fOzqq19zBvUJtnQM3YEtyomqnJHK79b9iPd3H8AiEcku/DnHgEhV3wjgGwHcrtDXEGhWVCajQTIRBCZgw+Rx7Bvuunb8YYusrbTRMducqJs+3cWNKPkhu0RVgSVp95VFJBjvHW2xe1pj8hpJG409X/J/c9dMn4FwVzTMlpmTNFmynut3oGOtCN3gHKoQBeXzdOT11tcmum4/hu9Blb5QkthmnMRNqpkDhTMxsB7a0VEd1HEHVUfegoauX+d5NKpPo/s1+nsaBh46ziv2uACt1d/rjoludLBuZ7Lq6FyZNWB2PUSnI2+6zuhUHqkUjzHmc5X9xeCxkQ64qsImCap5Mse+kdaLqHWvpiNWgVY3koogCHpTU1NnWu32SsAsJcCOkmNchaKkMvQqzSuPq6Iygiyc9zUzR2tFbGrh1e50hSIBaeKSS1lAE4AGAHqA9ABeA7AKYAHAae/nFIBTRHRqFxCNp9huBPDPALwLwFFVbXq7VMSJxUSzsWmfk92223bbbtttu+2V0jaxYbvo+utYIvWYpIiAHogWADwP4CkAjwJ4AMCXiehV7ydFWxjQfwTFT4Bwp6qG1e+Xl1fwhYceRhRFef4JeLuAIWe2ykax/JGfEdWLAgFKUS35AbUPRSO8jss3pbojqOZ6FWfjEvM14jrV9Pm16fRpeHeKoeGjyuNSld2quY/nDzE0ZtVRrj5zdRxoxJhQ/bgPjUnds9b0a+QzjRqHmrdK47zP9a896lo0NJ9pvHc89E6HnXhpxI1pvc90zGVNdRzIxqdutJ42J0BGM1Dr6paRt62ugRHf06jHW+97GnXYdvaTY0piGsnt0Fjn6qb7WB9uQWOes8V5QQTaQl8LpVC3Rjf3xLTF10nrPjONHjpf3tX652dxu+QSX9LoZycMy+g6/ZClsqh5p+uBOiKKAJwE8BiAvwfw10T097uAKB24fwLgF1X0uuqZ6sJiH3/8SfzC+34Zx48/B2NMSWFQSfCXbQ6Zc2buQ1CdJ0ReQAqV7LvIz60N/M1zmyCPrCjuUyjdNDJlaI5SGZyUqN5sQvrhyzVAKYvyIqIhJV+kxCcvVN27t3ff8hhq+VwqK13/bz9BG3lxz37CND+fCnmh1f67y8fOPTgTeWHY3kL0rkdeCYgsqoX85+bqM1LpGUrP7TlXEgHsvcv8mrXn01BYd2nM/HHwfLF8h2HfsdM/n0p0P+UZoEFUcQjN7steXwsBxX7fq9f37olq3+sAqdcv//PqOPhH+II1F51UN5+pVvf55ctGiZWhSKcKCtKaemFDCkZr9YK31GkdPEMYsqXUAGCt1c91yLPIMu2b4bIsFlXn43JJkcxnRoein4aTRlZ89TzzjP99MZ7k+coUDt5aGecs7H/YP8vvL+WZpv1sQ6Vjs+M8J/Xcd3HIn3FYCY96Ru/SQ/NDvXsWFimq9L8MvLUy0XQ906mOsJN7E0RLzvc0aop4G0EqayeX7bsKnLJR9EmDPAKQio1UIdsoz+zu/5D3eRAECMMQjTBEELrfGw20Wi10Om20XAqEdruNVmsCQRAUwTnFwEdE9GUA/wPA7xLR519tgCjYBBh6BxTvVdVr14NRp06dwmOPPoKTL7+cZsVNvQwrviIVQOMryKFFrsOMUKl+kpbylpQmvO++lysNqpj0fUA1LJB9YOD3MzPblpSEt2WvZowdBgtlQZ+dKlagUBj26kT5SroS4juk1EsKFTmIKQ2b55NZp+SoFHFGFQXugbsKGPKBWvq1W+xePwhak2fGB28VkDgECLQEVgpQkioWXxD4kUtUAULlcfNAe/4uufK3D6jqwBTyWlJUBYKlsUIZaCEDp1yZIw4slkAYSoC+DIDWAU0lUOaDRnVhzVyspUrJjJIzGXzwWsOQ+mB/iDX0O6zexpeGMEdpHddts/0NUwV0jGOm90PFUcOlVAFK6TgtO4lnzup+Sgv1Qt6d+PP+rqmL5uvh/FwqfVdE16F8bS/qrHwMyqVKFCXwplnEmXo16FTzPE3+uX75Ex+IlPuH0nFZrsMhQKYFbFJFzbWz5/DGowIas7/V0xFZNFsJDOb15vwxqcuZpN5zebqneq4P9rRIjoksnxSqwFOH/Nty0FZNDko0DBizoJRKlvfCib4YlwwwEZGoenE5ef05JxuRptsgNjBMCMIQE80JNCeaaE20MLdnDpdddikuu+xSHD1yBQ4dugRzc7NoNpsA0FDV60G4mkBvUdX/7IBR/BUFiFT1GICfUci1o3jADEm++MIJnHzxuC6vrCSUps0aRecSQCE2jgTfiDadh+J+QPujj+YKAtFcD3m3ovRAyjftaUeZAGVPvgvABlBT3aWSd58ipYdL+FVowKpHNwOYFdErAG30ej2ICFqtFohIiehFVX2ZiAaOP93Q5KaqlwB0uS/jifAcQC96hsfR7rqbbJz/X3xh72ULKZrUv2YP7+aI01ej+WcKsKoaImpAtQNgj6o2RdJaVyYwCIMQxDSA4iQRVnMSgWhCVQ/D+bylkTe8bAgnlCAp5+RFB9akpRllf6Vas0EZ/HK9Fab0RTHnudZM5uGoUmwR+/OAaw0CQ5ZlEbQUOquiU6pCURSB2aDRaGTATZn4ZWZaSD05yzZZdbgtG134+wEtMJsS8UiTQ9b/LLHiOitXNrSrDY8X11h+RhpoRuQfEui0iHS974SIYoU2Ukf2OA2xD8Nsx943RMsgDMZfXhWDmJeXaNjjt+ioEkj9PKhpJCG58fJt5bnGdYYYAnR96Srrg0qHAdsiLpGzm1bMtArVpGpBSGsJU6BAQ905cRzDikWj0UhzNzElBOoRkJSYIxrN0mWJN33f5RKjpbXmISKHYIvIjXwNKUaAY9Vi4qqokov8oDxGX3MJq2nCKxaVTjYV05QXFKti4EAnVYB/vvXQwgu7xtRMJCKN9B3mG6+E2Sxbm0wBMCVAlJ+mYLicUwQYNq40DrvxZzSbE2i3O5ibncVll1+G1772ZrzxDbfg+mPXoTs5CSgCUbmFmf8tgNeo6m8Q0YtfSQzRtwJ6+0boRETw4osvot/vWyZaAhCjhndx8ypQlZlRfaBSCIJfDLLYtbm8Nl9W1feJyEnU5tofbSZ0SFoBUKMBRAA10CC3w+F0ric0DBosl1B4I/1fwyPv/WgeLZNVpSUWIqSEksNE9F4RfVOa/E4zpuNREflVEfkSM8f5nnAjnUD0HhH700SUgbYEwEcB/D5qRf72AJH1/r8ero7juFYPuag/GqEHqfI9IwVFE8zcBfM7SPWfJknSiqIIQRAgaUiiwB9Joh8mkqVUJ5NV1auZ+V8DOFrs9ug+keQDlnkVquOZkBNv9SSVL0qfDR2wxaVZvaH/b/mUTSQWI1VtBUFwozHmxxNrr+j3ejBBgNbERMYixQB+bzCw/y8CcJDHzKgPUsn1MF1LSbZeTPG9GX7nBnWf2PHmm62fgfXNjHnc8Kt0s9M0GuZ7APo2j2xeEJE/JuIbAb0tiiJYazExMQEiek5Vf0dEvmitXcO2I1DrNxBufEuYz40zuacmDG/48t9VufydqXsnI8YyPVZVdcIY80+J6C0egDijKr+pyk8BlmtkU1sE+zjgdxPw+kG/T0kSo9VqIwiCZVX9r6p6P4ABtumkJcMKqix3WNmkzyTblYEVPej3ez+AHwVwmQfI7lHVPxCRgTdB08q3efbN/J2ZoWcSgEibRPRuAG/y5SYRJaoqqmrWmebq7pdyzQTK3UaYYEyAIGzg+bCBxx57FPfccy/+8i//B+644za84+3fhBtuuD6rF7gfoB8jQktV/92rISptQ/mpqteq4lsBtNfdLrgijydPnkSSJEJESXlOlrlDAlhBmvkZiZusVOcgQPVOqq4ExaKIvDAYDM5uYQEVxlGX8SbCFnJsrUGBNax5H83NzY0JJiwMm5dU9UTm58TMYGPARA8S0V+HYbhoreVxu8PMp6rpA4jojIg8tZW0Asx8ToR6Wk27FsBteP1TOJUGg5YngXS73QRE30ZELddXGOZlVf1Yb7D6SW9O2G63q6o6KPLUAMS0QGS+MFhbWxoTUGu9Bl1Xq26hrXfxpP6YJP1kHwDs27fhHcIwFGvt43EcvwPAFUQE4/wN3I5TmPnpTie4J45jfqULu1OnTq1D9dW3mZkZkyTJ15XoG9UeB8FfquppgN5ARIYo99t4hJl/b3l5+cSY82mLza77kV1no7MXgMzNETNrRXmP3YwxAmBSRN6iqm/xTIprQdD8JDPfF8exqdv8dDods7a2tszM14m1bWtt6uPSCF8wbH47juNHdNzNyUXX5jE/Xzxup9M5QkTvUU0BkdNjz6jqRweDwcpGc2Rqaio9I80zmv2DblfZqm1CcCuK1J/MzEZTRFRit91WOnJ+Pwuq2iZQEyodVbQVaAHaTBINkyRpDAb9YA3ExEwLC2dw9swpHD9+HPfddz/+0be9C+985zdjZmYGUJlSoh8g0FkAv/KqB0TW4k5m3LS+hkgtQnEc4/SZ01BVS0SSMkFayktWcX1wKf/V275QnteCkCVbKDtZ+473CvRQZEHcqUU0IqvF6Hb27Nmhz6anp2vBgIg0mXlSJC2QGRTJ6laJSJIkMSLCG11rcXERADAxMcHi7YYc48TGGLOysiJVYTM7O3vRxo4uLCykigkzoNkhkEdJkohjgLLPACBJTYww/i5ZRNrM3KhhSgK3FmiT82Er82jLbXZ2FvOetAVms/+GYZMrLIrZ2aHvvbHlRqOhQRBYP8Ag3aTk/lgURZGx1vIWc3RdNG1ubi5bl2O/O7fuSs5Gmu6n1e3GS05ARJTNIx4DENEOyarqe6ch3JSW0Nny/a21zMxczSPGaRJZiuPYTE1N8eLi4tCcWVtbS8IwPMnMgyiK2vm8YxNkzPv09DRVZcAIZrm21clHf3O3kF74nMim8d6xjmD61k8NurS0VCs/lpdh2+32y0hZXJNZ3pxYFCrV31N/4/kyET0NoK2qLWLuMNBVoAugzcwTLo1OE0BDVZqDQW8iivq8urqM5eUlnDjxAk688CK+93v+CQ4e3A9RnSLQDyVJ8lQQBB961QKiNAEg3gbVqXGWbhRFmE8FTuZxDAJV8qV7rw0gYobaajp5X/5o7YyhcytNdBPHbFkpZICl+qDdbrdpre1k5jJVRRzHCmBFRGwQBDTGtapYoer4q8ysRKQzMzN1fbvgys4Xgt4OfaQCWVpa0kajEYiIsdaWIi2ICJgDZmQmE1xqjGn4c94z3Su2nzV2x88tg6F0N+r+G1L8ntTGQj3zkZu/CkdqQvV3GuH/80ps3iZla++OhjRc4q2vqqI7l/Ngg+vNwFsmGYs1dPG6dT+GzNK6dbq0tJRVj6caOYMoWp9pd+HcCXv10xzL2/bvPT09Tev0W0eAWBolH7NC2JuQ11td575rRqkMy1BCxfHfN5UfU5aN4UgVEx7wKTtzeoVsoWrA1ALEpr5eLKpqAUqgmiAtj2mZObYiAtUBEfWIaEJE2r3eajOKBtTv9/CRP/goWq0JfN/3/TNMdbuI4/jSj3/84z/+rne96/GPfexj9746GaIYbySDO8dd3r1eDwvpJLIpGtVy8iBHCznjGZPbYcCLFKryvFQ7qYGyp9hYu63NTOydBgdUWcBNAO10DuYFUAVAj5nF24noOMJtMBhQFjHkFJyqqqROs3zBwU8d8Nlqn4wxk8wcOv8kBEGAIAgiY0xvr+xVq1ZnZ2fRaDQ0inqkylREBY2dWO0VxYycPXsWc5gDxrPa+n4LtekIXkVA6NzsnhRgJhGRRV/51Mwl3Y5cqLtOWvF+++vtXFyj1WrBWkvlTPNKSqbwQRjN0qwy84BNHh2FwAQBCM1sLY8rF2oAjq43d4lIFxYWaJvvZYsyQeFZKWkb8kaZeQmKPoApP/KQmax7F16uMwBKRkXbCsREEFW1qmqJyTofS+uyWisB4gSAVdU1Zo5UtR3FUVuX54OXXzL4gz/87zh8+BC+7d3fCmMMlpeX37i0tPRDN91004MPPfTQKzLybF1AJAZvJcLhsWYMEVZXV7G8tARmlixllhZx1VnMoSOOiAGQ5IQRigKENUnQSqBa/RLHOiL3/0UBfMYSdiIywcwTlcKOCREtGmOSun7W0LUKgGZmZhBFkVYyklKm9BwjcF4V/DgCedQx6wlEY4wyswHA7BS5MQZhGEYABiKCWcxi3nEoAYxagiqZkvJKkuQVC37qWs4QncVYoIioLp3hKx8MnUsgpKpDWzVnMltPpmxbHtX5ItYxHFWg5LOJ42426tbgqHXp9UHLqQQUoI1955g5ZSMcAZm6C0hDrHQy+TYuIM/k2TCDumVCuBkdAAAgAElEQVTQQZtka3SjuVPOeSdb0UND9yNLa8LSr+IkB2oqefBSsMrEU+6dJUQkDgglzufXUhpmK+4iWuhVtUS0SmCx1k6trS7xieefw0c+8lFcd+01uPHGY7j99tvNXXfddefHP/7x2wDc9aoCRKp6wCb6ZrALuxpjbq6trWFtbS1LPJRO1DT0MIv3LH4DAgKRilRKvYyooZTn+Eg/8HN9ugWhm5xg5xP0jFqQzoioTRWZUMcQuecUVcSewWPsZxIRrS5Iay2FYTjS7r2VnWedwMxo7o3O2wwjVAfgZmZmKLeve+YBxzimOxwAC7SgszOztLy8TBSGSZBSzXmRxmyn22q1cFYVqBeqr1wgcLZewc7Pz/t5c0aUtNJXJDA614xQsbh1nEUYugifbcugUYEZdeuhuq43y+6pKm1xTVKVWQSK4JQ6+eDu11fVfuYmEMcxBv0+S5pSY+h+81tfl1th6XSMYzYl98/BOhrqkyXbM2z6JUCqatTJvqH8fAAaE62DV19z47XPH//ySwsLZywRWWa2mqZJSHL/X2am1NtUMyKdCBoGPBDVtTgeTK6uLOChh76Aj/73P8GRI5fj0KFD+OZv/qZLHn300bdMTEw8eN999y2/agBRkuAqJly/GffRtbU1DKIojU4BoAIQk5JmPs8CSfMrEJzvcA5C1cuiXOI+UXFLW3e+XsxAaGTlcgM0pBReSSBCBOgyFiDYWomVTR1fJ3Bm6zx2vd1hndluq+awrbBWIkLW2raLrPASxanW5csKgqAnIoMsZ1YmKDJgNIthf5xXWzt79uyQoq1jHBQKUoIV+4p6tp1s6osfi1qXaVVte7UdtyyPxo1SPWcCbIz1588TZlZnitdSYkVVEDONikzNrjEYDGJVTaI4gqoiSRIMoiggos7y8gXVo+MwR7pZ+a/rV+PdUj+ZuQ+gVwGQBqoRUbl8i3GmSWbeO7f34Fdbm3xiYeH0KYASVY0BJEycKDQBEBCRAefZN/PYJiVYJl5LbNLo93uNlZUl/O0nP42v/7q34s1vvhO33vqGmdtuu/1tH/3oH/49gE+/ihgivB6EA5tRxWurq4iiSFNOkNMMB6IKMMACCIPSXKhM7t4ZFU1eEjyf7iHfQuaBorES8lxYIKRjfJcyRMyTlHr1O+GU6mkndrca0bTtZ5svPHbzPvgRaTW7Uq1jnqpA4xyb7DoiEmSgxgGjnhMUpbFLksQyc04nZw6dzWYTvV4vV0Q7rVgvBuDgM4L12YjXV4g1FOOm2LXs/vPz8zXRc5ufKzv5zkTEy57t4SFbqyIJ2wy3P99gaLOgKWNnV7GK0IbqzxkiQJOUofY3Qv7cOX36NFqtlhhjrNjSujUAJi6QvNssWNrIZEY7vV8nokhTx+ehKatppG1PFR2osLWapj0RS6dffmFu/4HDR5587OFT1sYJ0uCACIrY/W6R+hBxBoiQe2aDFGqZuSdiw8GgRydeOIE//4u/wo03HsPevXvprW/9mpvvvfeer2Hmxx9++OGXXkmykUcIvhAqt0IxuZmLraSAKI0sIzjmjgikuVRLPyGTpgIbesOl2HxClocTWU0H74t8erG32HZ6IQ0lpPNmevVn1OdaM94Gafh3iaQTqdqHN8kQ6Tlbg+QzSQsLC+r/uIzamglN/2dhYUEXKp/tJCh1prDIWpvUsV/W2sxfASpazdWWK6Q5vOIabeZnfn4eZ8+eRb/fR5IksC7bYWZK9H/GpBg3zUhm72U9c4iqkqrSjCrNzMxQ9rf/c/bs2c08+5bXUw4aNYVEFrYoo4FzU/n8YgVDtW0VELGUJAmSJEEcJxgMIhkMBtaXB27zlMsLx1T0RaTng3DxzNivgKYbyHcdgslb21iPbHFMERGtFvMz1+kMoj5ADzDRYvZ9+p4szpx6iTqT01fs23dwUkSS3FwGjYkogSJ1tlYVZlZOGSKlzA0mZacGRBTHUR+9tRV89rOfw/33Pwhmxg033LD3jjvueHOSJMdeFQxRFOFaAt3k4OC6r8vLZI6V5WXEcZy+GnGJEEjIZdekFLhm2TeHcpXnNnqvfGkpP1FBPZaKSHbDMGz2+/2dHKdxHfN0i8K2S0Rh5W4REW0x063kY5XVIlSirT7jes810plxpwV75gNT9QfKfq+j7JMkIZdq399loddL6jQTcPEwRVtlIsfa8WaAyItwrCs0q6NYmZ161z6rMF8Duua37+819riOKPfhKb1XvC/+ptaey1VFUX/A4sS9mz9ERDw/P78ug0JEsYhExbsGoMoE7qKcVXtn6JWdB0tl7lCB4SKa5fR6m3xWIooTIBhka9RbOImzODwBohkQzWb100QES4vziKL+7GWvuebQCy8cf8yxQgnSnEYxMVlVFWecUTA7PyJnz0l9Diwz9UUkHAzW6MSJE/ibj38St956C/bt20d33HHHa++55+47rrzyyi//xV/8xfFXNCCyFjeEBkdrXitGJgVSxfLKCqy1qcmMc8WsJAyFkuSlrTgol/QgH+qUWKJS5eP6Zwixoxlhxwq53NZiZWbvGVx5KFUhoi1tl6RURtP9s/7Oa9yw0m0lpjzXYElVKY7jEGnSxfTZRWCthbUWYRiWFGe320VZeBCYifxcKOP0/wKCn+2A9do2GAw0CAJUx8+bmxoEQWlbVB2b/O8xmbXasZ0DqmevB8K2MT602fOq1ew9Z/RlePmhy/lmdr75Y3G+maXTOI32WhtKWSGxYtw2yPNDADRKd8XeeClUQcraqgEVwDksrXH+4dHIFHY6QrOOFZ1IRImS9qg83AzAKBAQMK+qDwC4EZ4nbhQNcPrlF8Mjr7nuim535unl5YUEQOwizWIAsQJhWou0pFuLSO606OxAVVtxNAgHgx4++9m78cgjj+K2296IW265Zd/P//zPf/uBA5cc+bM/+7NTLsrZuJ8sEa4BwNZa/uM//ph+6EMf0SSJmMikYcOqDCU6dux68+M/8WNy8OD+WEQiZl4BcAZp7YKXALwI4BQRPb8jgEhVbgR4plxGen2pIapYLQCRU8Cs4LyYYDaiBGhgvAp6+cz36n9lzkSZ2cznHglFteMdzJVCOwmCKo/eUFUuzLWprhKR1S1dVSCZ07BiuOToeX7GHQMbMzMzlCTJFIA8M7dT5iIiWpeaQFW1YJMAZoK1NvchOs+gZzP+Yec6cWQW4WhUNajkwPIHzGdidIMXiy2/2bPANs5e9xm3vfYrFeuzBIRE1IfCDhlJaOvrZqtr44IA+DY0lzXA+pKmOsBxHGtq1qkjVnSdbfgrDRhRVsBVUZvEcxQJudHcJSKKSWnNj8J2HreWVNmltrkPwLcT0MnMukSEUydfwDXXv/bA4ctfs+fRh+970eVKiIkohmrCpIkqAoBMMbPZaWV1VaY0IaK+tTYcDNbwwgsn8PFPfBI33ngDOq1pfv3rbr+FiG5JYoBZwex103tywwZ798xiarKF1RUBsUsK6w5aXl7A8vISDh7cn8skB94GAJYdMHpeVZ8A8BCALwH4MhGd3DYgmp9XZpVr4BUvHSo2THWsksXKykoW8q0Ap29T8ufPcDJTHlGl/h6sKNxame5Zcin16nvTuLkAtg+Gdjqcn1Q1r07shWdaFMWqxhbsCwsL2m63lx3Sz1JcMzO3XBmC5EIBoZ1oImIyZiNT6KKywsxDxSGTJAEzl5yHRc5bTibaBjO3Y+8mDMOGiLTKYyJDEXiv0KbbXfM5S0W1odOu1rx6UuxcJ9G/uJU90oKi/sgpahLt1GjzmJh7PnPtLLPdqakps7S0NEr2vZLMaerWVouoNHtshf3UEZukdeW+syAMCoVJmQoxqiCotpn5IQDPAnp9mqxaQaSYnz+NlaXF7pGjVx95+slHXo7jgWOHNFYgJrBN48RdWSyCMuWFyzV1UxIotK+irWjQD3q9Ndx112fwjm9+Ow4fugJJImmiXBMgCA3CgGECgjFU2EPcapmcnAQzI4rT5MH+y11cXMTS4iIq6QUylqkD4CCAm4jomwCsAHgZwGOq+vcAPgXgHiIaK1FkMDzIOEpEV44vcVJPH7GC1bW1AhBxzbJIkZ1xlF4F9KR+Lnkea5QLlhU2NM00PFQBUdlIAG5mRzEKKOzkgiNV5SL/fTHZVXWr2mgAQChn4ZSJqK0eyD1PYG+nlR3VUEBQ0SSyka1nP51Zg3Zca201FcP5BqYGpXImWjX9fKUo9/UUD0amavLwT7retK2i7W0yVK+UzUiTiLqVWd9n4t64C8R3k1CAVKlVMbmNSnS5aRPTBZlUqo2Sf2gavbXMzPGI+Ueo9y2q88OyjiEpyUJNo8WEiCaI6AVVfVAV1/trfNDv4YUTz9CVV183252aCk6fOulMZhwDGrsNdQhFoK68qKZR+JphOjiWCECUJEkQDfp47tnn8JnPfg7vfPtexLEgDEMEQYgwCWDDEGEYoBEy2BDIFFaeRrOR9mvgABEVNAqvrmF1dW1DaeT025T7uYqIvgHACwD+TlX/FMDfE9FLmwJExiSXKcyhWpWjo/e51iborfWgkvKnWt5ZqufXkhfczG3zVRaRdKQHS3a4FF71uXd/t9sNRCRwgMkSkSwtLcm4FOR5BkL5fZm5KWnEjP95j5nXsM3ImArN9moAQj6QpK2fTLnT+TkEQOOYwC5GNk63+N1XFlaiGhEy7H8WVuQqvUrH1LEFGuT549KKtwmPsRt3G764GNas0pOOna7klQKKfLbB7U6TdaJtdVxZ4sYwQV5vOOMLKHD5iifjOO4ZY+4B8C54deJUFc8df3Kp0Qz/qjfoPQPgUgAW0ISI4/RfSlTVQmE0jebWjMlLWaJ0M0CEvqpORFGfV1ZXcPfd/4A3vfFNmGxP55GqWdLh1H4YIFAGO5cFEBCaEEQMmySQypriwQD9ft9ZiGjs7aeqNgAcAXCEQN8Iwt+o6n8mos+MDYhU6SomzBa1norcQDSyL4QksVjrrUFUlInTnIwFGMrfFeVV6dUr3kp5BmqgyAJV99CpIiuYIpcI7Yput3utiHwVgL3OvriqqlFnqvOwxPLJXq+3ss6iuRD0KzkQx0mSTJKXmLGSh2grOzdv11p85pxjFa+unWuwvTAr3e47HIdhvJgVYkaLjxS6X/FwSCu/lEts1m9Atpbg7xUMFzeXLs1FmS0P7VNEG8o5kz1KTukItmgrcvy8yP5N+rrqCKZIa9bmalqTLCUZvIw0VpWaDnh9gYhOKPRq/zEX5k/bez77qceY+WljzH612iCmBNBYnS9RmrmahQhCSgQGpQFo8J1WYgBRHMcTcdTH4088gcceeww33/Q6RHGa3NWKQDWtSqEqEGtgDMMYQiAGkDRiOHZuDf6aIiIMehE0UU9ep0Aqq2u6UXU4VT1ARP+zAntU9UeJ6KmxABGg14HQKCqwYnRwoNfiJEZvbQ1IYw5S9yFVOM8uldzupUFumM8gkr8Bq8zPDUUM4VoC/e8i0gFwIFWQqukNFQCeJaIFpFkzaUzhdL4FFaNap1YhxFvzb2EwBFIZWnrV7VBFxBDRTJqPZmtinMYtyLDhfmTdsb2Yx5tRE6WZjUuNmfUrsHlqhsZS/aMYZno1AiPydl4kQE2GuTqAoNUNn6oSM085ln8wJqt5LsxoF+MGcUNQRERqrY19tkkpR+YCYFJEGqr6VBAEj0BxdaYNnFl8BsDNqvp5EjoDoCUiCRHFBERpxnWySPPlCBEYWU2JIl5HXZ2zvqo0B4M+nTl9Gvd9/vM4euQ1YDaIBgHCRoi40UAjaqDRCJ1vUQqKgiBAb62PQX+AwaCPatSvqqK31kN/pV9sOvLC5QQ2nP8QA8T1xVBV1IDoq0H4BgD/54aAaGlJ2wb2ahXloiDceF6CURSh1+9DK+mjxU81nTpkFbVqKm5k+U7D35FRnh6z5EPk3WRCoddWppIfl3aQmS8dEwyd90XhFE4jU0q5M6vKqsTSxxZMZh4/dMHSXJ+nsSMAJhXIJTPrwNnXRzPXSpkMb6lqOOYWd5wQ91eicqO6vwgXQzL4i2BwSOHXdi1s/wYWdqiOVxAEdXNhlHPweWMpdpJBo6355OV10Dx2zWDzNSGxDmN08Yzn5oXxKFAEALq0tCSdTqefAkv1dB/CdFipEQRBG8BJVf0SgG8GqOHpGVLVmx2ZcIrBh929xEVWWFfRTPxupD4+lAVcUKpuNVLVOIoGjX5/DQ9/6WG85c1vwWSnm/oIhUEKgoIgZYaIwcxgTsuKPPXMUzhz9jRW11YrOZWAVruNxaVFPPXM01AVMKcgqhE20Gw0EIYNBGGAIAjTf0MDEzAocJFq3sipahugr1fV3yaiwQYM0eBSaHjZhq+mRjXEUYx+v5/ReDmMKyXBAwIQhVB/h17kGqK6Ui9amNFG2rv8BUVDS4QA8MzMTLXUxE6AoY38BaiG5QgBdJXAlWfP8kJsfsvPQO5eo7WB9xeTX8M5STpIWlCoqro6KqognSvwnddbYRiGlcSem/UDuhDjR9sdszJCLMaHzp0+uRj9Zzbdp3QtqXOeKD63sMrMeZqCKjDaQA5czOBoU2uSPFGjEJgxKCJXab2f5fobI3/TRn3atFPy+RtnGk+qjA+KCkKIqIe0KKv/uUVqxroKwM+r6iIRXZddruRaSnQNgB9NgY0eSh3ANVCi0PnghEjroxklYnKVIXz/zdSnN9WzIhaDQR8nTpzAs88+g+uvO4bjzz6Hfn8gg/7qM+1O+3gYhgvWWkCFoKSJWPnCF+6XZ59/Fr1eL9fHpKRgoNmasMeffaY/GPTEqm2qYIqDYG8zDA902p19MzMzk3Mzc8HszCy63S4mJibQbDbRmGggaBiQc9L2svq8DoRbAHx2XUCUJOaAMTW51RzJs17W6kE0QL/Xz73QGYBkoapZDgbmEKqBVkLoS2+eSjjIy0yhGEer587pxUdGROZcyLnuABiimkXpT8y647nSfUY5BxEYrHZzLkQ0EgAUOb91RJ98s4leAGFb9WOpjpGOJzfyy9cXLQk8+swxRDUmIcp3SesrqwutsBTrhyOP37d1tNEWS634/dNt9+/czrtN96lkyqfS2KwCFG1RyflXk8pn1VIjeoHHqW6s6s+ksSysxMyJtXbFPbvnP0ktt0msAzXirWCqjNdW+ZgdH1va/v5ipPlMRGImtpXHDV2+tX0AvjNd4gJ4yX+9pd8F9O2Z5qwGNldwzxiiRDAY9LC8vIj7H3gA3/C2r8Ng0MeDDz+Kz33m7x556aVn/69Lr776vqMHD54YDAam12xaLCzgt3/7t0f6Kh4/fhz33PMP+d/vec97wiAI9rdarb1hGB5thq2b25Od1+6Znb3+wP6Dhw8dvKS7b98+mp2dQ7vdxkSriaBpCmDAOATBbRsCIlU5COJJ2ggM1QxNFEUYRINigjEDIr7FjRQw2Ra9yCPlMUNDLBTlYIiG8AvVenlXiSIFQmZ+m7X2TwA8t4NgiLrdrnGL3cZx3BKRK5l5jwurFyJaU9VTxpjnlpeXEzchjUPh7oLkzIS6Rhgvd0LdrjJnzZwjOgCISDg5OXlJkiR7smPTIn1yut/vz++AcKgTAaVxn5qaCvv9/qEgCDoZIxbHcb/RaJxZWVmJxu2TVuFdzfIKEEAgJRqVy+4zWbRiA8A+EQmNMX0iskmSrK3msZ8XDAzl821qaiqMomg6A3TMHIVhuOrlb9mmEE/nDytv1eLKrVZrstFoTNBgYCPmyBgzWF5eji/guFG73e6ISAuAcNGnaFNgjUjgktIRIfFZobqs5xv1rd1uT4Zh2BoMBkJEsTEmWllZ6WPYY+F8zDl1725aRCbcBoqYedBoNFYWFxeT6lJTb6Xzdt5OKg8zE3alTfPExGCPMWYKgE2SpE9ESRAEK26sUAOQqiDzvK9ZY0zoZHwe2bqN91IFRUpEKyBEqahPv0qtXRx3u1OWmUlEXCZ/coX4hvx0/boQVJFwWQrkcqxTYdqp+vmmWRMToYcf/hJOnjyJr7r9NgSNFp88+dI1Tz752MHjjz5q/vQjH1k3mGO99qEPfSgGcML9PAjgT777u7+7/fLLrWNPPfPMLdPT0285sHf/nZdeetkV11x1tbn8issQhAZqFcSAEtpKdIeq/g4RzY8ERMx0mIhaZUptPMgdDSJEgygbqkBEmIiMqhqkVJuBatPnlHMqWkfp0EIeaM1mJcuQquusNBeT9loD83oAz9bcYNSNS21mZoZLNKErXAoAnU7niIh8rYhcrqqBtXYJwBwzvxnAnAuJVBGJATwdRdEHAHwufQQNiaiToznOvTb7NSYzf6dUmoYzMzMMAEEQaK/Xi/1j3NjdIiI/CeB2AJc445Koah/A/Y1G44NRFJ3wZdw2AdCoHSYajcYhZr6VmaeiKNrHzF+j0Floyl4x87KI/Nepqak/XlpasqP6IyJBahOuTMvxlpk4PKREpHv37sXa2tqVQRDcZK29nohuc7vVVXfsQ91u97eWl5efx86WitlQKDYa3cM2tu9k5rcirVmkAFattX/XarX+W6/XW9zMe6QRdh4CjeUgWzMHpN1uX01EP2qtvUKNiZiwqqqPTE1N/d7S0tJL25xnW2kyOTl5mYj8CDNfD2CgqitJkpzodDp/SUQPrKysrK3HTOapwogGSDc3vAXzjn+M7Xa7l4nIjySJvcEYE7tinWempqbuAvB4HMfP93q9pRHX3gklr41G4xJV/QkiutaZXgBgMYqie9vt9mMisgjgmaraHLFZ2LCPG9gICYB0OsnlIvRzInI9UneCVQADa+3jExMT9xHRGhENiOh5Y8xzS0tL8ShQPMam7ZyNpap2CNT09JeIoM+8pXtWKQN1pSxsBccYIuZudzpoNJsu7F1rqMki4XH2Z+Flgsw5jAq/3fJrdQy7d2hxaRHFwtIi7r7nXtxx++140+tvxpnTZw5/6YsPHHv22ace9ObPOWm/+7u/uwbgXgD3ftd3fdeHX3rpxG2Pf/mJH1taWXnnwUOXmDCSFLAbBpOCDN0Ux7gGwN0jARGpHk4FrOYPXLu6a9iiKI4QxQOo6qRC29C8Cn2O2KniJFT6kzwsOhR2P+y4lFU/06oAr1mlCnQs7PXdbvfPl5eX7YhFCwDU6XQmgiBoASAaDGRAJEBweRzHtxLRbG6TUV2b6HSeN8AXAHwPEf2gqk5k89RNr8DvrXveg0T0JgD/AMC6MeIS/KPRcmNqaorjOO5kjsCNRiNU1euttderaiuO40WXWLOI5Etv/1UODDWy8dUiIftBDoKPRlH0/LmYnN1ut5EkScvp2v1EdJOIdJyjs6rqW4jwdpe0LFCgWS6NAEB1IY7jvwKwNAp4pTlQuDOcv7KeIrLWJswcZ1ZdN84HVPUf93q9HjO/W1VvJaIJpI7uvja8QVU/41jGC8UOaavV6hLZHxPF91KapdWXvpcR0acBLGyrjxsbRzYU3BTQTST07QBmPbz1vIg8iLT20PkcQwUgKdDl74DqJVoUtUlE9V2k+uFWq/XnQRB8eXl5uV8FvQUYSqeSy9HSqNGAEw6kj9MntdYeJTLvJtIrMtbbVcH+n6B6OgiCT3U6nU+o6gIRnSCiF8MwjObn52WHmA8NguA1AN6pqoeLiBYAwLcAWCOiNQLuUeDTCuwv6QMRKHPgbTpGmfLV+RBZVx4i18lav/m5ioC3K7DHfx8KfCMTrzomy0LkUSv4o06nc5aIMoZZAJyJ4/jZMAyXHFuv62TDPpeNi325urmjyyP00GZAUbGx0zRTjefcHqhYTZIEQRAWxIEb3BTjiDev1R3DrsNezvUKf0TEeeJWprQul0iq20pMqQGSxOL+Bx7AiydfwtErjuCr73xj+4nHv3jz7z39xN+9/vWvn73//vvnd2LAP/zhDy8D+Jt3v/sfL3c63YM3XHf9bddedTWIGUYNiAyIcbkBbhkJiBYXtQkbH4KKyWLtc4CI9Yphpd8M+gPEUQIQDNTtK71sk6NmXeEQXWGLavZBlL35UdPIRRrpMHgKQXRVkiRtp2BrH2dycvL1AL4jkeQyBhsNgtiIxEpylapelyrw/HGEU7rtw1A9hrJyMrX7npQRY2ZuTE9P0+LiYto9ZtLhEgnV5F3a6XRaSZK8k5m/WlW7zKzW2gYz36iqh1IlT0mKbbVR8KsEhWaF9crbgdRZNKgT7ltR2O12+6okSb6TCFcizUh+SEWOIa3XllWFCl2dnNK8KL0xoo66JJsb6d6qCwyRDlwAcLnqYWoe7BXFOQmAXgno+4lIQWimeLxaykrBoBaALi5sE2PMtKreDEhHK2nKiKjhQpZ12/CBtnc2CXUpdcxM51+akW2OlK6cm5szZ8+ePe8+RMzcVaTz3Bu5AKCrAP0ZZnqXJMlftlqtP5mYmHhkfn5eMzOYeju36gSpmMzCTawlMsY0MhORdx2G6iyAWVU9yszfoSJrxPwUgHuiKHq+3W5/em1t7YkdUOSkqhNE1PCyLWbzIS1DAexR4DAU36ikzYJEUIBoP1S/v91uP8zMn15ZWXm+TvEvLi7aVqu1grSUUMMby1YYhs3BYCgAqKFAUBSL00xXB0KYznwylGiOCa91yECcG7wCmG80Gl9U1aedDOh3Op1nrLV39fv9M+cLlY9gz7e8Qpl5TVUHhTWEPHJKXe6fDAzlqTSKy5RS3hQ1Hn1GKF2/OSXl7UilZEUqLDZFP555+mk88sijOHr0CA4dugRvvOWWaz/5yb8+cvrs2cMA5ndyvP/0T//o7pmZuV/77D/c/YHZ6emje/bszR8uIHTA/CYA/0ctIBLpX2I4OFhE32xOJg4GA8RxXBbROoxc1s+M6F5YnqyxPG9KCRlHTrj6vINKegUz73G756ohQFut1qSqfh+A90BhBIJSFREHIDzly1Ddo8CbiKhZdopeNwCIVDXMzG9hGDattW2tmnMIKy69O3m7pCNszE9C9YYMSBa+QvnIm+rn8HI3VCP8vE3mtqPzZzwygxoAACAASURBVGZmOOpH3wLCTygw4edLIF+QDTF9w+yhbGn3lF93hZmTEWYyqcgVdmYnVNNgZYqclNYr33B+bWaqKXjVykZgOxVFd5rWKkKC2wCuHAwGLQBrOP9+HUQgcnUIvFmvgKKtiteC6JhhnhsMBu9HWhahloE+ZwhXpMPMYR1t7tZFoKozIJoB9BBAdzJzz1r7++12+39bW1tbPcfjSES0R4DmcLnI0jxjECZ99tt9tx/ADxOwLCK/2e12fz3zl6zdzQwP6YSIlADl9PR0EEXRkXSdekEifk6o4kJGgSnK96D5tmFOVa9M70lZ0tuzQRD8WwC/jy36s2xONJVk3Ll4Z+pMmpagJdOCiNhebxViY485IohXtki9NZD5CGslKXsW6JQSIwSo5OugZJ+p6JZs4rx86mXc9/nP42ve+tXotNu49rpr91973fU3PPs3f33v+Vjwv/M7v/UH3e7UkQP7D/zCnbfdNtVutRGIQBHCNMObta/X0AQ9Pmwyi8w0GronKy2vHk9Goy1XeesP+kiSGG6iSZZ4yzOTtOCyCmcKO0OVw/qsHGWW96Hqz6TD51DFoJkdwOB9AjkA4Mk6mR0EQUdErskAxWjhXqZDiegoXFWWjfL+uHNDInqtiBwEcNylvm9mmQWzDOx1DJEx5jIAl+rGEq0ASVrg/FFJZUS1A9VjU1NTf+to5K0sVrXWhmAcgaYmMKBg9so7jvpy1lo2es1S6kA5P25/PJu2eLswrgEVnhDVkqmcyC8zXNodMVLFdaHTOqURgVkIuLc4M0b8YgBCTslTvk6Lvu6piSLaeUwGsIjMElHTh2k1VYJCVb1CRJrwzLWVUoO17NAmsxFjamqqCeCYqs7mCUJ9lwItKx3HwrAqOgButNZOAlg9l4PVbrc7AO4k1a4PPkq+JUODm9uEMkVrFDID0DFrbROFH1L96yFU6+eVlmu/399DRN/gTNn1W6Dq3zQSwFLm20pEBwDc1ul0/nB1dbW3o5PQsWx6jrcADtxJKUKZmcOwaePYDpJkzTjFRFTJgayqJQWT5hZSB3DL1SPy+e2xR7keV636eSgUSkzUaDTpgQcfxMsvv5yyRIcP8w033PC6T//dp/+/173udUceeOCBZ3ZaAJw8efa3vvDFLxydm5n5vuuvvbbZaDQhqmgQH5EwuBrAMCCKyU4zwnQRVBTDOCx6v99HklglMj1jOHLcMqdZmxAIhL3w73zyV92FqO6eWTVpLbBpsRB9JZei2Kw2Tvp7ftcOgH2jlKvzZ2loJT0/AcNFaMvnHfCt3rXxn+rtYlKS6A1JkrwBqZP3ZtiBkIfTeHq1VaqCYYOYBqcRCDQBom+w1v4pgKexFVda5CHspqiro97b8jk8H4iMEJKKaxT6RgDHN6f9aOROPooiGGNyMzA8EKr+din3oSvAEoBJUr1hcnKyvbKy0sP5b9mr3AdgL3lmA3XgSIFZpJWfH8IFTEo3NzfHURRNETkfuqF8HS0Czu8QTk9PB3Ec74Wi6a9XzTYK1RIAqC1tP8TibKdZaxvGmEuJKKi+qUpl7yooyoCbwTmORBORJjMfzoQKORpGaVgT+Fne/bWcJz5lCjfIdG7TS68PJIMgmLTWHoQfQZwxz9U0a34uqBEjUilcPHE+srFn4HuLmfHXm0NrzNzLwasCxBx0J7vdTqdLqloyk43FdKsOe297JIZPI5FPWpBffIvJZYfG8ePP4tHHHsORI1eg3Wnj5ptuPrJ///6rzpw58wTOsXN1XfvDP/x/5r/7n//orz/08MMHOp3Ou664/HLDhiHWThHxMQB/PgSIiGiKoJ3yTkfXL2LmtUG/j8QmRJC2CNrZznxoTlJqkxdX7K1MEFV94LOdnHcV8ta+6tBOg0bTOW2nTLi6wel2uwERvVVVL88nTg7cUNmx1dwgm0CFrb3EhgzLEt1DRDdOT0//WRzHnLJSFYuRoufVkdJ2uz1JRLcBaGU+DVoqJaA5o1Ewa2UuZii9QfnXo6p6FMBTWxCqmZPzIQDXZPS5v/i0FE3os2E6/CrTo7tQ3Nrtdj/mwqKH3qhLZxDA262MI2wy8Jy91GEWuwyG3DMYAK8nojkAz18gpogAHCCi2dK7L3J07SeiY7Ozs5/I/F8uhIXMRZi2UJP3JMVDON94qLpRR1mSo+qL5UXCqlfOfj1zyDb6pGXvksxtoOR0UqPEPAZ5s4kI1yX3VNX4w1MuV1KsEfUiuKnyrWN9Jr0Q+mruLCWiZVJE1vO/TMtFYALlSKo0QSDVgdPx4IhW1z/lhUnPT4HYkn/rOWWIEmeVycGW05pEREiSWFdXl62IkHtuQq5Vi6kylOavktDXB1RFPAKVxtcDTBQEIXU6XRAzlpaWcP/nH8DXfu1b0Ww0cfXVV3evu+a6mz/xt5+4+81vfnN411137Xgqjt/9rd98fPZfvPeD3ccem2p3pt566aWHDQWGrbVHSuA7H1hJZlVNq6Qvq5kPRtBEqor+YJBlbOXhtGeU079aNg2NRqtU3sEVZh/4WYY3dttxCkNTP5H93W43cDZtX3DssdZ+K1wEQ70ZhqpZGoqztUonUWVHV3WxJibCNVEUtQG0iLhV8bOzRLS8tLSUASIxxhwB8PUAgpFjVhmLMj1bBifkVaJx835WVY9skR1yllB9IxEdg9aIoZpE4j7CrHmNrERXx3E8BeBU3ciralNVJ4e+ok2ISN+nKnM+rCEAXBbiS0VkvwNEF6oZjA77D0G4KoqiCaQ+Opul+CoKmEBbUPbW2kBVu0SFKbmkKnvnHw2JCKtqIw2loaE1XvmsHYZhI62wrRm4o7pxqrLaW2YQahih6jr3lRgRdYwxHWxc6HRT9bxEpBkEQQd1THm1z46JJ6LSBstbM/uR+hSdRn2W5USHqbamUTNRGZs2EU34KXRcZpwRa33YulFdyx4QOKIaXArg0R3d5Ozc9kRVne3EAy8i+Ryitd5aYG2yfdhXcTXNsVFV76giDEJMTLTAJoTYBA88+CBOnz6NSw8fxp69e/mWW2859ulPffrQysrK4fPBEgHAf/oPv3z3/8/em8Zolp3nYc977v222rqqunqfXqZn4XAbzmhEDmkOSZESRVKmASkSLCEKhEgxEwX54chBAihAgBiyYkSyDEe2EgtObMMSECh2IEeETdDgEooUJVISh5xNs5Ccmdb0TPf0XtW1fN+95zz5cbdzzj13+aqXcYIU0OR09bfce+457/K8z/u8/9V/87f/R0i8vnhg6e1HFzYkGuAEyUdF5Ek4hlXUmlI5kS7AgZd2Y4Pp3p4lYW+Rsi340g+CJJ+JAvExlfpGkkLA0XuYdJogEAz28/JIDOCw1nro3R3TNF2H4LjLwA/6/EbnKh5Rov4aW8aAAHBGKbWePQOWaJpUCJivO3CE5LrtxCVwaQ4PgQxmSeU6OvgRFkXk/qWlpfF+Ntvq6moE4BTJSdvwOzaeNdY4YgDuyev8bLAESiSXxg2LmTi/HQ6HwafpEPpJh8/APBjPf3eQ5KnbggvsFyLPkkE3krTiDRrem6bp8jwmr7zn2gIS84mlW9FsVtoVJ/jNfjaiKFrCrXfazOs1IhFZksLmWdqurCL64rWnjDGnctsW+VpXIr1NY9c1Sf759h5z91+5BysklQSMwSkAj6OuMN81ULb1kobDYYSso8tLTItrgYMViTSfb5L3kvzYgQMH4gbjWJ84TSBrPHPSdqniTkFowi4DH+s9U6vSI/aYlbdHkfnk8vLyHeG1kRyANXXT2/UdopTaE5GdGr9W6g+o+KtkbJbc94qzHq1/ch8mAleSx7P3IgKtNWazWfnrV195BS88/wIAYDwa4V3vfNeJE/ecuG93d3fjbtrPG1cvL3/nO08ev3z54miyMByOx4NPkPgHJD/gBES5xk5cpRt0tPfJZs9GQ+ztTfNhb+LkTOKgQdZmJa0WPnGdemkUXNvfhEQW+pvly2nL79iXy0O5Sq1PVh4JZFjwT4oySXVJUgd9SbcO6O2KYhWqfcmMA1XFK4d1lj35qWrzwSqel5MDVoVF5jfOtgC/XPFa1CIATqdpurgfw5DPtxkUJYBwYNlsPVkheSi4AQpYB3C8j+O0snQDuOXG0PuLfVNtLzrto6E/xpglETmztrYW4S38Kc9GIUVBx2keywPtfRpeWmeJ0PuNiGCVZwtibrbAJ+Dv+7uzZgIgAqVaq+IselmWAEcAvHMDG2KVkWy7VLTjT0HM2spaHZl9NsewYb/RqqPTMnD5MPMlAO9fXFycBFCikCiq7PsZ5udRAoeWeXpXjmOiYxonIvKB6XS6irbG4IKwXtxF7KltpNZtsI7KsSnTsgJN/zBYVdFJLsK6jtvfaSYisgzKwHZveZmLt+nzU3ikdWlAGSmSkPgzAN8BmIoIlDW7kBADkb8QkS9lr8HLKuNw/iUE50XkoohcVSI3RGQLwDYgO4DsIBPG3BWBzpIMYjbbK/frjc1NfOc7TyFJEqhI4eTJUwceesdDD25vb9/VgEgNh6ens/TAtevXJdddGeuUH9jZSj/qBkTkQdi14zlmDBoa7E33csnwOheo4okQDhW6cOAhAqG3y1lwH+lCc6yFbrY9yMttLAOlQ1EULfs3leuGxE7sk3doCR34pYYMsXCkjgmyw0r7VmiT1JbFmCN5C34MG50SGpI7cEa5MS7RkNJplV7Rr105GWYwJCneKk679uF9ZO9iORzlGvMQTtaCKdvBZqaLMckRolZVYy8A0yKyE0WR7rwHgdO+SDZ8buUIlTHmnjRNY7xVPzrbcJJ7qHo5QK2JyKFbR/Z5S0IMWXJkoxrlMzpE8uStOOlbuaaya4qCKt4g7K5lZp2g75guT0ct+0201rsQTNFQ4uoREalcRsGyUwyaXWEVCOcsECF5Nk3T1QCafMtjiVw7YXGFLB5igcwXyUWBSogQVdu73CsiRwPXQmPMFEDqTcuSOsk5Fs/a2HI7bqBGBANKv6TjUTfuNcYcv0OoZUQxVVUpE/TcvN3fQ++x07AWCOZq3v8zgH8gkGuo6Q1BxOArWuv/VkT+sZD/zgBfEZGvK6g/B/A0IC+QfBnAa6LkDaXkTaXkkmRl0SvZeKrsc5MkgTEaAiCZzfD0M8/iytWrgADrB9fU29/+9reNx+NDjzzyyJm7ZQMGg+EEUaSSWVr6qGSmB3u76SknIDLEWnUe6c8aba0cGZ2VzHxxQYFbuQlpKrLh4VIqlKg8eL4JlTq4YjcSFnwQSPZ5IrKmtV6pobTkMAtKPHSg0F4IZb1lLFJpJ1UlF/FKEMHelRGAI0qpRQBjjx+uc2l6WtDoEvKZZ/TMneu06xkmG6E1+Adm3RhzYJ/OJhJgCRYHqcrCWSvb2dcNFmxXcct5lDGAI3k5rm/KBGOycRyhwDdru/b3DltdQ1VSMoJw2fWu/URRFBFGERJsdCLNwq0ERILeeVD/UlyGrhV/lkTkbI6yvSVryNI20DtHYmnI8r4kSZZFhMFzVaE89PZ0MZuwV8DnfibBtoUXGxEESB6XgZxA/0nuvYPQcGBsNRwI3QYWiw5Bi1iiskaW097HFpMLtmvohkjOC6wuIY79HF0aUXWbkF6dW9YCIbsKIYLDSqnTuDsjeZhjXrdl7ydJkpDc9pkStBtXKuhbATAknyZwoaoqlI5QKLwniqJNkq9Q5DrJHZI7BHdE1C7AXVFqCiABkTDXQWKm/q0JmRb3pnWKJE2goggk8corr+CVV7Km4aWlZbztgbedOnbs2D2bm5sbd89+DiIRBZ0a0ORrpQlDfeDVV68PFABcv359AMFC4e1ZA0SkwwEZTKdTGFZtmv7b6DDTfc6CE53ALl1lAsK2NkwVeIhDGJZ6sOaiQyC4opRard9QNMjg9MCp9avTYgUTebokbDAneTG3MLxiwcLMAofj/iBDEbGBW4vekGVNTnBBuEiQbbSt39VJoHAGnFrG+UBeOt2fLxWJJfupOGNSb14orltEMmU2aYoZMSB5KE3T4XwlINMUtI1FZCxKldG1tETZwRIBuaG1Xth/SWr/8Ph6hsAtwBSKva5mUn6lQ5OVfPZn3Cnu/98SQhRE8SKSBfH7rSo6ljZBxK7EsLJNxImcFJxXcxnUyim6ZYt7NMYMjTFLffdGgVpVOVY4GS07SEVKoTyl1GrE6FRD+Ep0zxVspCSzlF+pnwi0SFtU3JxSx+6AiJzF6mpfVFXVh7um4oDIVpDjCg5YwRDcUmOdF1gtjTE8AGMeWFlZie/IuabcKdlUEZFEKHv+ZTeglUpEFkleIs3LgEXtqzh194vIhjHRNVK2lVKFmK0GqLO5adD5yBXmfoiqOjyzPOCDITHLFccJ4PLly/iL556H1hoqEpw5c2bt/vvvf1uapqs/9MgP3ZX5kEoNlECEJudHmjJZG0eRygKi3d1oScCJgz5I+ChR6rZSG43pdFpCq/S69mHB0r7QGG0ouOzXRICfU78eK1GrWwP6aA4hlMW8VuzBaGoYRVEUxRHiKEYcZf9fbGOGrrs8gB2hfvEa77YkGxxzFJlsva/36B9KUUoNlFIqiiJkf2JEkaoQjNrUYRcdYkg3nm5lMs/MDu+3nKGUQhRFiOMYcRRn16kil9gnzP9IOyJRiQkfzuei1ZY5J4DGPeJ2+xole74R4jhbS6VUuHsyaNukmLh999GN9XUIZQSnE5BukAtECjh24MCBW0RgeJsMkEKxZ1VUXvbJtyio9HhNeWCR74fyOjOpr1UROSoiNMbQLvsZY5CmacA8EvZswnlQObESpgIltcos5bVFcYw4zs4WgAWt9cm1tbU2R95UQmsNiqS1vF1HufxnXZ19jAGcWkySURcs2VRyTFOP75+Poaj5A7tkBoZ5NKQVEJdBbkyRM2majrx8+Fb2Jm/vSWqLt9wWGTIbsUEaqJwnVP6DMRgMBjdF5LsZsgOnuQDAUWPMmSgym0plMxFFxJA0ZD4vLg8lABpQjPjRq0g5d2WWzEBjICLY2d7Gs88+i63NTAD+6NGj6sEHHnxHFEWrV83V03clq4xEFZ3jNCxRIgMO41gWYwCIEzVhJAt+lm6XuMSn6Yib5exNp1UJRCptYpsTTS/aKi5MulqSJHyG6MgTBZCcEo0pRBs5EsjB1dVVVUyqzw+yiuPYGVFEErPZDHqWcSGyOTCWA+Ic8lpNHXsZP+YAvFZ3EdIaTMgMNo5VHMeu4GF+jUmiawbKvRd/fSyWFx1bM6LhkbW1NXXt2vxjZgbRABIpKFW2BoMkptMp0iRxtSpa6zWO6NqGMfEigCv+q4wxE5KLFkRVhZMtDjqO47zLIg/otc4RTtNivrKLUcCqaNkA8NJbgW0YFG3jIXZYxvU1xhzJUbW5Vcdvo/E2SikOBgOxtUSTJEGa6kN5UHnpbgdEfm4VKYXBYAAVqXJckNYaSZJMSB4rRuy0R1j2f95io1LZKFExO5RSGI1GTpcuQSSzZGQMTiRZsLHb49FKr6Co4jL2vhcRyROM2O7gQpIkSJLkeB4A7wSOZ0iYkc13wNaO4vJvrUKXUvMXxvC41noRmfK3r+vEHk+NASTOUpG+M9s8D1b2XLtKN9utBuEKRMabm5t6aWnpJWPMLJeUKB+3AReVqPujKPp6mqZXRCTJk04NUJOiSaYKSAkMLGZvzphxfJfoNEWazhDHI6RpghdfehEX33wTq2urWFpawgMPPHDmwIEDJ5Ik+e5dKZkVFQxkI9jLwRCaamdvJ5tKnA5mwyFHE3c2nDt53hb984UGtdaY7k0dEpfN/am2uCBEQiJYahXBAomE9cgoKK4h9QCpbgfKEsxBY0wxDr3sawAQZY5SyiBPaw2RxEGiwsfPj96a/9WxN4KDMOYYlBp6I0xSY8yW/RH50E4V5x0YRXZjZ6ou37Cqzbk6KzaB1GWSStbgeiQnDaf7cddRVGSvUk5VniVJNY65r1colGhFVqPI4X1ZNo4qZGlMe0DEIsOuxnUkmM1mjnp62V1TU0DAglHmEN6yH9MQZDsB+qHcAW3PbYml6ejMnR0zc5IlmpFdPQ2SJFnNO+G+d7dXT4KOPEZx9oszlSTJEMDRSg2ajcI+t96FL4EFt3t9s0B+MBg4vBijjWitCwR1G90aYgw4cWm++D6CXvZohyzZUEoVKBtIIkmSw3kzyyU448dk1xiTeN+lctQ8GPeEVsomffcL6um8JZ/VfSQP0i8G1qYrKOLKyko0M7NHlFFnLft0FcB9ThDIGmonczyzkD1LjDE38wqVVVqQ+ryrrFy9nOXBfEVEbiCTSbVvMSb5gDEmAnCF5CznXRoAmmCKnDNE0oiIYVWrLD4kQdb+EWuTtd8PBllA//r51/H9730fDz74AEQJ7r/v/tWTJ04++MJLL3zrrgREURQpFYkP4eX80GwBtY6GACcV8lCFQH1cWMYh2ivDhSZioLTBPaHqWDnC2A16Gcr2yljLVs+kzy1SyGYpxS4km8ZpmopF/CyNZUM1pwGRrt9HkzpR3hq5CiUbcBroy/jTbhuX2Wy2MJvNysGtBbTvqIoXZPQSc2c19gQWN0CqEbpOrJr99dh+ScMmc4LMIPMMgTHGACbEs+qyAmU2vGqMWQ0teEGcDkDtwW8bDAZQSokd9JImuFOl5H7le6giVw9RlRXfwnmq0ii9JCJrVrfgvpB+8pamopVlo8I5lihR1tm4qLU+/NaunTilXLvEopRAKRnmZ2HUctJvU80DVR2+LPXTQTCTJAHJqiylsvNP8nAcx8u3UNLpuC2Gk1haiaxUiHCkIifZyNd0Q2u9HkB4d4FMtsB6FAMR8e4ndi+54OTYwmqdoW9mUWybWfY8Z0SpdS16oyOAbPzRWg+UUT8J4NcB/LoAv553dH0GwKTYX4YmJnnfwsLCg+Px+ODy8nJUIUm1PyFCvDSYXkquh8c8OqKpFLnpnUsA50med6KCnPJJ8rTWeoXkVZLbRdlMRLQQWimlLYXs8jqVqHznMgGQsGi/T2YgDUQJNrc28cwzzyKZZXPLTxw/MXjwwQcfTJJk9dFHHz1+x4++ilX5YFmnw6hsY6ZDCofeNHd0ZgvlgTWYzRLH6dXGedrERbtmLP2NGPscb2v7i1ScFav77KDWeuBF6FFeaoDW2guI5tTrFwZNDL0tnXW5yCKJg0BYk9IxCXGs7FEYOaky579ILaoJt+UhHHm6P0f2w+8gqaIoGimlxOJhVATGLnZDYBnz+1wWkY05KjqpiGzLtXoIliSJU8ornnehtlsv50mFElUzzQYictjqfHtLBBqbO+MIkqta632R48UmvO/f+xNKmWJNi71QJBv5eIYjeAsH0dLiEJFZp2yaprl0iIISJQCOGGMWSm96p4QC8iQmazDIRV5F8tmN4uxX+9zn/72utV6d43w0WU1POIRlgpm7Wke7SYSeFhBBmrKZwhgDXa6nrOadj9J2FVabvIf8pq7dKpK+RhZUg80TwWAwwHA4LHmOcZxz24hl0XK0IWDsZTgBLJBcJblqyDWSR0lu2M6LwAJE/jMY87tKyd9PkuTd4/F4bWlp6WTxZzQaHVlYWFhcWVkpeIA6X4SWmr64XdGs5luLVPZU5WtrjLmObG6lc8d5H9AxAEejKNpUSl0vDq4xxhAsrkXnKFCRvJPIISpCi8isCFrTNIExBkoUdKrx7LPPYnMzm5u8vLyMd77jnfcOBoOjaZqu3PFzn5fApS5eJVIMX4wiGZASW/vGgiKrPVBDOvJfGKNLZ9O1Md1SmCXK2AjWipsIMCD34+NfJR1aQguylhvkm9bvhkopp2SWzYFJ4QzztUZ0OOsprEs/w53rU4WkDlFrROGGIAut236GwyGHw2FmDEWVE6JFqaBuf8/wLfRvB+I4XphOp5zHBRhjBnlLtZQBW6QwwABaa6SFdHxoDEyLhi3JiYisY31d4erVPjBzKiJ7V3HVhK4/TVOMRqPSqTDX7IiiqCw/dqGuxpiNNE0HqHSc5Y777woir1q0C1zRy3JEZNHrFpR9YfJCmLp4Z0+40AA5UlA48aLcm6ZpbIw5urq6Gl2/fl3fvcBIwZnpV8LoFYJVdkZm61zoloUIg/MEH9K27ITfyUXHzsRRhNFoVJajLPi/ENQ9dIs1OycoKoX6agOuJf9dbfAVQIHWpkSx7LXUWi8aY45hDQrX5jRObSvaorbkj2Oxid/D4bAMMIv/n5FjGNzjXWMTQhREhw0M7IGzzB2HOH4JALlKwapADkeR+r+01h/WWn+8qApEUbQN4PU0TS8sLCy8QfJ1AG9GUXRVa70Zx/FePn6KSimttb4pIkbykqmjvC5ij1ZRFFnOUaldY8w5eGPq8nEoq0rxhFLq2TRNr0DkXpKxFN1mWcCjRSTrNiPiHK2nASXXZJgBYgCqDOGcYTxegDEGr7zyKs6ffx0HNw5iMBjg7NmzG4cPHz514cKF1TseEEnRpuk1XeUSGjEAiJZIIsR2WcoZu2HpG5eCXNaZ0Gl2w/a2cTPMuuZN8zjCytADXusz3aHOVXDlzxCmO8CUVTk11yIa585MrNIU4kGcBRs5TF03X7SGpsKr11VlDFtNRJwMyFZklSxTJu6hcOSl41Ol1E3r2iTf/IjiqBTdYiFKdhvdCcnlvG3YzGH0C2kAsduQlSioOOM+7O3tufPDJIRshJ4lhgDW1gFcdU2gCTmqHN0oIGdlbXnNOB5k87VQOmeA0Nq0k73hBHFKRNbzsuLOXUQ5mHNxDJ2g0lqCirQ3zB2l6bg+M8PMRIzCHTGEKMHIWu++NocF4mpMNSS3SDhEqdik6VGtdYyMbyB3wQ6awhL4XUeSIwc+EpOv4UEQFccvM4GDKIqGALbqQkRlDmfQPk/MiEhWcmAdSRZPA6To3LKRlDzQXM7n681T1Wtab85mM8ZR3PoO8SZDF1iR3dpedJsqpTCdTkcAThwwB9QN3HACYF8VpJ22VkEYQke1tjZkthTL9MhFJKGiCJEoiiM7RAAAIABJREFUGJoMGdQpRCSCwunldHmwhXKYdCiADeFSLApXTt4s1hzOIjAqc2LJYyZGIvIOAE8EHkwiIrt58n5Da30pD5Ren0wmf0nyWwCeEZFdFoGsJ8vizTVSueae3Lx5czaZTF4VkT1AJmLdFckFobpHYiHJa6TMJLMDGoQRoQakKJcZETGFDk52hCgkkqw1H8qYrGw2Gk0gAly7egUvvfQSHn7Pu6GUwonjJ5buP3v/6VdfffXAnR72qiCqcMS05H8MYIxhxqXRkkZArCy5sXIjObNdaaE0FmKptc6Is6FAx+osE3EnKPtDyOhs3zoYUARiUiMwh9M3J5iqOjTW4ji+z3qJQcYJiUFAlGT111KEI6RGxAYCCeeKIAAModQJkOM64GKWR6PRiXwTizHmADPsOq9F0ypI3j5/okQtG5r7RqPRZfRrH2Z+KA6QHDtaLd4oaUd2gW3FDBeRAXBsZ2fn4GQySSwUxBhjllEnkgrJhclkspb/d2SMWYiiaA1p+tckjo/ZjrBykNKvlyT72RCRIwsLC8xJt3clILp586aQsiBVy2NwV5EYGWOOTyaT9Y5naKBxAII4XJaTAYD3LSwsfInk5b7XOZvNhkqpEUr9njxzFofuecIYc2wymVzF/gXxuuZ2ld5BqWRBqWhE4w4ILQIgP6jOSlJYM4YfJ/nOsrkka9U5Yoz5BIA/BQpNKCewX5hMJqvNuGdmtJRSq1rrYcVpsaxu0X5vXSO9MR55ADcmeWYymRzsGbQy54CYQM2AWusRmbEMxT4b4k9Ib7DRngp0FrSJADieE3WLUSc6C4ZpbB2VfASQycsyRfOLroJFqYlVN1kP35cQhDYaRmuouOAEGlhT4I/nic5ujyBdvDVNNXWaiczSneHprWNggJGxPYvl3wa5JtMKgOMi8nbr9TMR+d+MMX9hLX7pY7PhrvRtsO0sDYDzIrJJclJEcfn6jSg8ZYwZRIyua9HbAJZEhEIakzGQCz0iIwIDgYGBAlQe57EYKTIAiCRvvzc02NnZxbPPPItPf/qvYjweY319PXrwgQfPfvHLX1y708NeJYfASnCnCEgMDclsBIHSEnFYGHY72qmOQDipz36rjUaaJM758kdHSE+g2S/tuRPTq9q6/2HOMXBmfNQmdh8H8N9FUbRZOFYROaWUGou4kJJyeCUM3br7l0CbqtufZxPVM5E6IZeds50ZuYMA/lYURTfyeq/RWt9XIHplMTsvRdjtuOIFcNIF/tYNyqoS+SXjtkRLA6ZXfrIxJhKRd9jXI1aZRyTQ8WtLmLuUf2fVIPjhvBavy8pptsEOIOOi2D9jkj8tkPcyAysGURStkzwM4IQ2ejng+DNNp540aYG8g+R/n2duCmHOvTR6je6T0HglovggiAheJuwdkZEo+SkQ7+ww7ASwJJCTwWApyzo/TvIogDcsVDXUvl2lOSIqnyAtIu4sw4LYqkQ9Yoz5lRxlQ8PnNu3WPhmAs0eTRCnAPMJ8JE+RkAW5Y1Ii3BsAfl5ElnJLmOb+ZUEEf4PkXwMs3kl25SNAfhbgB0NBkH2fxpiREvVuY8cxDhJdd/aFaG2uvA8RiUj+uIjcX0MEQ+YI0FrrPQBTa96f/e+Z880fhTjDQas9R7GDkyoA8KVLsmtUEJF3JEny45PJZCt35nv5uIyBl7oOReTh0Wj0YQtJezuAkTWNqUTGa4kqpXRfdJIElgNKSw0aEsbNl08DeGxhYeFCfXxI6x5jmqaxQMbh6hos+1eubGOZusd3RgDG+Z+qSCAW98vywVU3bfne4mLeQGbnj9RoIMA9aZouiZItGm6JyCGTGfkyGEIZFMFkFCZVUM0kQ5Jklg9GRpqm0CaFUhGSNMFLL72EK1eu4MQ9J7C0tITTp0+fXF1d3dje3r6jZbOy614qTao8KNKLi3lApJWKSSgUYyfEwzQhDhhTwWtSlszSNK0hFbUxDfZBcQy4dA4mLSPtgCBrhTpJNTWdjaZ0BPAHlBSDN0Aho0L00HboKZKSZOrXpmmhX+U8MEq5H9xSY1BooABNQySNsQA/kGdKIpBUicQq+8nLPBU0Xdbs0YW6CAB2IUoDAu/JjaV4Bj0Kxll0y6qs4HyIqIqkawXXvvH0HrR/hffnBr9GG/ChemQDit8L8L1VmdLae6bq0rO/v+qM6dW0ewjAp6xLMKWpzmysCKCY1dApjjySIMx+cMy8sJKe84sxKvssqyybnxup+AoRKA8DeMjObsg6aJdtfwwDt5kASA3MWCDvzy/QFNPiG46XrbgxtJ9LydlS2dob8DCIT4tAl3urSo+NhQmrfN+xIajsC4+a0i0VCvNSBezFObKRGGQtyKu5IyWAKXKJDhJrgKfqnj2+GOD7ALwvECIbGw3LgB7TGSWX3WUqKjqV/DLaQyQfqkfUgkB/eX4W2bjXxR5cFvYqYXTGQtvKhg8CURyD5LtF5O9WTpSpiEQEN7wPGwH4D5VSn7aKkaM8SfTqa1XDQwkZiTvcVCRYUoeKFBQURDSSxBQ1/wdJ/gYUpkogNnBpsqyvLLzUwTgFERxGj0Yhtm1du3ldWCeOWLNlyqF2Ituk0RWdo1Jc93yAArGSNxUhjuOrWusLAN7lY1MAjyql1hKVnIsRXy/QIENoAaugSGVltDIMKlZHhAKZZdKHWfl8liSYjGOAxGuvvYbXXjuPE/ecwHA0xMmTpw6dOHHixPPPP3/gTgZElEggquRYmWqES6L14ixGVZIVgg15bq0A5TxKrXVOSKV7aBjUkK5btUJeXfyPsItjBWfI1kWyjq+HC0pbBZiIstewgZBnGQSb+yTiAmjiidqLX8CqI+YuYoRS9MYzTsLMMFg8F+10/5Q8AqsUwXJqdFXbdKN+9nUjEWqdHi3yAfk6mhwSVVZyVQ18tHlWbIngrSDG2Q8Wd0wsVfNGeYcQRiOOJo4Esto+NZr8lmIr7Y+kDnKWEJhjm6XJ70nIJQUXx+bySx0WL2LsSARjD3xsSnJD/zLM/ri7uXCmYhieLVVgoBSxZ5g5yGF+vRRGecDj3zQDV9yJFNmfX87UKspcQuXwEr3FKJAi/4/3XQudJ6f9KlVzYV1K5CWk3m6X9apuM2ncu/TPewiY9YMwRzHa1YWrp1YStJt+FyzJAmkfGGM2xPLZEj4OQnINwBptroZnfWzhXzsSF3svsF5D0FpDG42hDJ3rVCoCJB2BfCCrSNepGG61oMHBtOKxUn++HYVgssFnVueRxpidDKURp2HAh1zzdD0ubHuaplsA3qj4vrRjzoMi+pBK1HcNzA1kfKYhQMJQQ8RQREOUAYzJZ/6RJJVSBCmGJskDYEUSaTKDjCcgiGvXruHll1/G+x5/H0SAo0ePTu45fvLsM888s/Cud73ryDPPPHPxTgREqiyXZeVTSJYkG8M9Q5MUbR+COPabLq1N3+Dii8OqNdJUl7N43E4wP6QJBEO+v2a9E8SRx28fgVg3CH4EzrphMMYgSdJSZbkgVTslKGvI263pkbCNQlNwbZyl1sZgNps5WWw+cLSaC0eL2+QMVLVKdnkTQI8bqMI7Cw1ja5jg8giKrq00rSYL55NcvUqPb2isg1nAGmRdvz+UjVl0IAnMcyla7ZMkcUQ4bYfThRKxvf4l1hOuJGLFytj3SSIuM1+/obHhesn9k8tshebSBVrK8qbW7hmKAcQZdVGsfXa2GNznc5TEmiDxwPOjY/B9+5OmKaazGZRFqq6Pe+i+rtCss3YbIFXyYk3m9HHlIruOoihPhkxuo9xAiRbQ6Crr+8wfOmWukn7MMpx1rTX7W7Ci5b448/6a0I/TxJ0FRYs7VZGQBS0qdnAh1+J94rAY7KvViUYSJSUqHEURBnGMZDazyUr5Rziq+QjHmdYT85N6uPIAUj5jCSTtdPMT+jQLz/6YLHXN1fojZyqEsWZ+1mddZVBmHO9prV8jmeR8wRJGJrmsNY4BMFEUXTfG7IFYEIGhUkZIo7JBsTqvPJocraLJCEwCQBNIkM+my9rvNZQobO9s43vf/S72dncxmUywcXADJ0+eOqOUWoyi6AAygczbHxBFqiS7a53mvl+DRu/ce/+hglQtFRrAcOFZPCK1/apMBMqUSV0WVNTb0GsObe6wQpyctsxkbpFTrJRAa43dvd2ye6PYTIVCrEN8ZGU0Sr98ixchEBgaDIdDKFFVGGORGbXW2NvbcztOmbWMj4bDfTmPuT1/6zrWSg75/jBWy7DbiScefMF9iN8UGfMgjhHFcbgEYJVHMq0ploa3CEJHo1GNYOt/TpWZNZPqhY71g+1PRfa1tO4+b2AptQmissZpcBsntNZZa/xggEFW4rB4CXWuSPtzyq61QIVsba/iTI3HkzLxsVCtUhmcmN88dO/nugtTKguCktmsZqhGo1HnfpTc/k2n08yxDgZ3BOpXIrm0SSEYKnnZLMZkMmmMEHgXtUNLqoEnX6G1RhzH2R6g1d1Dd5BtFozqANJb1QIchEW6SQLwuIuF1EYRsBUoljcpwPc2DkmgmQiBsP5cHcoskhuFjAc5hl2BsJFW2PGiZTMpQuGyMeY4yQezgMbuMMt9ckSEx1QDW1tbycLCwl+KyE5+HXa1YQLyZF7u2iK5DcGagRghDYVaEdqIaAImV+jw4zYjQMIyANHQOVqczGb4/ve+jxs3bmAymWBxcQlnTp4+vry8vLa3t3fH9IjieGiiKNuL0709mMEAqTacpclV5PXw/PlQ/CdLjxxb0/aRwnCM8b7HH8cHn3gCx48fx2g8Ksc3NGa6bWB9UxAUBspr9Yge56XRYUog968yZCe1CeaMrmx6I7ZfM9TT6QzaGCxMxo4BsKsHEubXVJoTjWm29If321Zfug1iWOAQeYcBW+HhTuSsIYZOdYq9vSnG4zHiKGq9RxGBEmVrc1jXyEaxUPHWIFgy9asTDspZD9wF0jsqkjaF99vwY4zB3t4Ug8EAg0HcSMObT3xHauaCPVG42+akm34r3nG06+yc73wQwN7eFHEcYzCI+18c50CO94/0zfX7lhgSwcYSNA1QrZDXAhlMUw2dpkh1iiRJsLe7h73pFHu7u7hy9Sr29naRzBLs7O5iZ2cbOzs72NnZwd7eHmazGWbTGWbJLAuwtS7tSUXctmgWNW5RNZZFa43pbOaVmVnN1bRVXtCk+zhHmYCulIyF9q4A+EURWXW3pisZIIELolAE8iFjzG8qkXcSjCpMI0voDU2Z+AXuoOA+voasOeRA4DX3GGOGg8FgxxhzA8BxGBAKBgaGAiNAOTc+i6NAoaJREBhDAWY5eqQy5DDBaDiCIfHquXO4eOEijh49isEgxpl7Tx/cWN84+fqF11+4U/ZgYXllN5nucOvmFs6fP4/hcACJ4u1pkolUxlasUw50KAtmJTMfrqaPPQLLEMsrK/jFX/wv8OCDZzEajd9C/dn//+ct+XGVnBvTI956rfG2ZrK3AxXr1b3X1Dc1h+P99+bndt1LlzDnra753VgHuQ3v6bsOode1RazS85l1vZ9zPmd7HmVL0FV0emVOO6MrZMFKiul0ir29PWxvb2Nrawubm5vY3NzEtavXcOnyJVy5cgVXLl/J/v/KFVy9dhVbW1vY3d0thzQLrOSsICiX3DLO8bzk1g0j3OBMqs6zGMAD3SBAPTLLP+M4gON1hU8GIaucgzrJW/nzfgxeFJFrJE+I1ORBT8RxvJAkyXYcx9cBpEYYS9Ysks82y4IhgkZBZVIOCiUBPSuZZTwikweko+EYSgSXLl3CuXPn8PB7HgZEcPz4idHRY0dPn3vt3PjRRx89/uSTT75+u4/tMB69NJ4snr/45sXVP9vb5mg0nC0srXx1aXn5q3ZAFDw49NdYwvtjOBzi2LGjmEwmFp/lFowV32In0ff73+rr/PfletiRdb5VQVADotRpEHlr6zDPa4zOnAGN8dqEvey7QAgtgMNOgNkQLdAnZAZtJS3uA52p7VGkSpXkGlE3tL7c53rdyTW/E/vodl5v33UIvY49v4cNMOY8759n7TvWR6lsiESUN66ORqNO5NQavIvd3V1sb29jc3MTly9fxqVLl/DGG2/g1Vdfxcsvv4xz587h4sWL2NzcxGw2g9GmRGkr8j26S7NkL4KHr4hX0ALc4SZNjUbN283nJTXOYBBpalrz13Biy7cYY64ppd5ssJGHjDErSqnrZHRdRM9EMCLILPhhKcxI0uQM1Uxjq5BjAbSAOtdUQpIkWcCqFHZ2tvH977+MJE0wUAOsra6pk/ecOv1HX/+jRa318p04yglvfs6QV7b3tg7s7d0wURTdjOPF53/5l//Wd+sBESpCv6snYZWkatkJEefDBkuScrhhuDsLscG8NvUWuYVsseta0JF9zZORzZt99c0kmz5PbvG++/zbnXzdbQx63tJArO2ZWZyw2WyGK5evAlJwGVzhStI1sZFSkHIsQj17tMu1QRCg5C7U160g2rrBosAYjZs3t7G2vobhcNBSR/j/8E9DU9j/q5IcuQtrsu/PIGoN4rV52dmmjuMYcRxjYbKAgwcPOg5c62yy+vb2Nq5evYbXXvtLvPjii3j2uefw4vPP49Vz53DlyhVsb29Da12opsNVWmIQUKPvI604BHDVaUquj62fap+9/DW+xh0pNW5iky4fUUOL+m4dW0pFoii6SfKNuqkQACj0216OIm6SskNyCYAxCkagjAINM6TIADRln0/F5tei1MyQYzCjNxijEakIs1mmR7S3s4fB0gALC4s4derUPYPB4GAuunvbf/7r//znLgH4N03/XozuUBhYZJw80LHnjJWt3mKp2eREa3u+TrCvsEnGDbfwu66GXK+TzNFN5BwBUJ/vDqEQAb9ht5vO/Zne69wD2MNgtXxP7Vo9RXFpyjCbgrZOi3Ibg1jO50CclmO5zc6J/QNqgtjZ2cVkcYKVleVq1A0DRE1b42m/0WbfQcrF+qiqbfrateuY7u1huA/CcOPVzePo51Ug6vo3YP+KRn1KRtLx397rG2PMvnP/5rmOrnMlc5zRPvfUth6dLj3wufbYcLrvjKIIk8kEC5MFHNo4hAcffAAf/ehHMZ1Oce3qVbz8yit47rnn8NR3nsKzzz2Ll19+GZcvX8Z0Oq1kAkIITSH1ItZAYHiKYjZki+rmxTGo9lBmuxtS8s9l/4Sja4ClNROlhSIgcRxPkyR5HYAGGNvwc969diLvHNuOomjLGLORw8gGAo1snplB1nFmPLED5v15SSZeDTE6G5eiRIE0OPfqK7h27RqWl5cxGMa49/S96wcOHDi8t7e3+FbkPnH1PAp9k1yc0YuAm21DZsiVSH9YlV7QYsn+OJ2HbY6VaNe2lQCW2fV+Bt7fZgikJeBDB/ol1jmxphF3oj0dHAG2aapJA6rUdLD6TIQN3fftckZdQUUouJEeCOS8CB+bsOyW+24J4IqOwlmSYGV5GUopbG3dxO7ObtaZVXQX+q3YeVcO66MirGduaf14Olrl5HTXwzgLWHb/GGJxaQGLS0uIoziT1aCrXBxc177oaJuT7JNQtQUdoaShDzob0t3x0YCQDWmyG9JwS+xpO/bLq+qzV7vWoqm81vQa6XlO2MMmNSWu7MH/QyV2WXzseDTGsePHcfzECXzgA38F29s3ceHCBXzvu9/Dd576Dp781rfw3HPP4fzrr2NnZweatDpJxZIJaWhTEXobJPCqgGZX/V7qWbugvp+kR9BU6TRV3Xyh5d/c3NSTyeQ1gCkpsdeUNwBwkqSKomiPSt0QUcYYbZApVpu8xVcj6ygjM5I1UU3aomQirwZgZGiQpEk2S5LEhYsX8cYbb+DU6VOIIoWjR48uHjp46NSL333xyYcffvjQU089demuB0RitdyzHHuRPeBKBUG8p+JieiKVEZdAy30ftIAtINN+SyWdY777GF80GIcW4x3qTBB0ZGOC3oMepGVCvDUDsZch7S0E01VE7xGwzZVtS08nIT3+7uumcZ+ft1+H5b2nFCpTQDJLsH1zG4uLCxgMB85FVwpSPXhPTkAUyMDFh6/YqO4ynU5x8+Y2xpNJRUZFS7dnw3MX6fGM+4Bc+3m/9Himfcu50rIv5x0kUut83P97e+1F7nNt5/1uaXjpfs9v2zOT7gWrNIjygk7up5aWlvDA/Q/g/vvvx8d++GO4ceMGzp8/j6effgrf/MY38Z3vPIWXX3kZ165fw2yayTGUiQosdfhSGVtuDyvAMdoByUpbSoGoIQd2hxzoapb5un7ep54HZAdF+3/1EwG4h+RgNpsl4/H4BpSkxmAAINOtzgdpS4UUEW7/vzCbS6fzMTOVLp0Itra2cO7cOTz++OMQEayvrQ2PHTt+6ulnn16M4/gAstEidxsh0pKRx8V56NWwOAnDuU4WJf0cJ3v40j6ckPn6f/tfz62SB9smMbEjGJl3uhV7BILzkCnnOdXzrlPb8+07onO/pQx2rNk8+6PvtK2O7xYKBApKFKbTGUbjEZaWl+Yb1CstZQ/OcSYCr43jGLs7e9BJmqG/TXuqT1llP452nuvfh2hwo9NlIFgh+pd52XCZ0uMz+uy1/aw19vHd89pSznF+5rXfTXu2zz73ymqg2zQwiAfY2NjAoY1DePjdD+OnfvKncOHCRTz73LP45je+iW89+S08//zzuHjhQtaqXyiue5LQt4WiJSFzZkPiEjaeZVe+rTlUaT11y3PxTQCbIrJuz9LLhPB5LB+OvZWm6Y1Ioj0RmWRtZFkwZP/JR4qQlUggkXWipcjU7zOF6Pyip9MpXnn5FaRpplW1srKCY8eO3kNyJUmSOzrGozEg0vYSgCgFrkUCBpfepHo6Cs7S4KQagQ+G0eZ5jI/z2Z316jkcMerweK12HMz+A1A9Gvdx+LrZtoE91MkuWzdde1PgMA+iE/g3oqZ91r3mDd8dCph6VTbY/3v976A0o2Rtay+c07h754issk6d6mpopz2gt82xhxx103Of50xYP4ZZvR+sd+axT9DRtg7sgfT22TveevSO6ef5zv2+t8FWScdnzJUY7mPpb4s9nDNB6XtPtqZpoH9nviBM6mV1+iOoch3WYsDueDTBmTNncObeM/j4j3wcFy9exPMvPI9vfvOb+JM/+RM8/fTTuHTpkjPJgN3zIa3pAXXidu0I1EbxFNffoPpoGbea1hcR5CY6MFAUbRpjbrg8w/IwHVFKHRSRa8aYmypW2wAOZLPtxYA0SiQbfpEN9DEw2Vwzlo12NCKSlPpU2pSiymma4ty5V7G7u4Pl5RUsLC7i8KHDJyaTySmt9atvSUBUbUFBMa62bOkt53dVhC9rVFZFuA7Z/Taj3ZTlsT3ocTK3gGF1DkCfEs8cGQ8tJyoSCMg8XhK7gjxpCJLYklBKQCVZ5jRYEhwRVuNu1XxWg+yCsx9avtOhc/nES9TXjR3GuTHp7eP4W3RWbGE3aVhfNpD0nWsK3UigyyQrwwcC3nkcdZtCLnu+znv+RSmgTKj3gwB6wRjt/VbrdGtfc38EQ2fwLz0Cwy6UcQ6iMb0JbPTus40SEOTD7QeVals3ttAR+nKqQi8LTZ5rQjB7Xj89LcKmoIg+ktfmd9hmnqSIjEqkZRgPcerkKZw8dRIf+fBHcPnyZTz33HP40pe/hK997Wt48cUXcf3GdRidzWtTosJr5cwRojfclfVJZcxFkVnw/ujNI8vnVQbUfxkcI+4o1cekiezLS9P0pohccZ+rFDZqg+RppdTzALZIdV3EHM2EhXL+EKmJrPUeEFIZFteej5khIElh2rXJlOujKILWBq+99hquXb+GlZUVjEdjHDlydG1hsvCe2Wz23GOPPbb853/+51t3OyCqdpAd3djD+poG0xWzdUrip/RPKNgjaGpBVwRzGPquTLVHouM0EjQlj+xhqxgOPPpcHvc79aTtxtgdgLa+Bz2amJpI8B18sj7f3Tvb3a9uSmAeUs0Bs/86s6AcsjBx+X+bnsEb+iUN+y5TMPx8W0bH9UNx/UC/T3m5b7AvPQ6SN37NWRZp5pcF0TA2OOPQ4aV3iX1KxOIlDPtB0fogqNKRNPjr1vdn3iQN9WdTJk594sOAvlab7ZcWorlY8AZ1FRydOHYCx48dx4c+9CGcP38e3/jGN/CFL3wBf/qnf4pXX301G6ukpBy95Af64WtxZpFUY41ozzDLw6Dyvug1o4kVSKFEdGuoLggRLMQxx7NZdUVRFO0a8hJYn19HmlVAPp6m6XkRWVfgfRS+XUQWDbmlgBkNBgaMytmyRhEKhoaZGrZACZgUZTSaTCIhirLw48qVK3jz4ps4ffo0lBIcPXJUFhYWHr156eY3tdZHAdzlgEiLcGAHnRYM4UfsqBPmSu0iK56SDqXUsqzEuoEJkmCt13Je+L8pM2QgyOirBhv4TPtzROqfG2zIoiW85WfTbCBcsiHDlLqqvARga39CdOi7/Sy/1ZH5Ege+gwmsGxvKCGJLAXhD7yXkyGwH1dZ8wXbQAAFtEeey2exHJIQKoRn9C6JA0uyofYckaDH+EkiSQw5ZGoL0Lo/j+/u2LqyQP24qJ0v/RrXgke5RYpZbUcdui8kZfi4S6khrsEO1pWd7g1eTCWwsI3tt8ER34wQDe1pa1s3vZJIW2yTSsJ5syDMazkufxxk6u47tYZieU4AArAZuA0KM4hHO3nsWZ+89i09+8pN47i+ewx9+5Q/xxS9+EU8/8zQ2b2zCwXRs5FsC469yREgC+E7NN3qRn+MzxY/D86CI9iRDKmCQN35lP0qphFpfJoIMmYEIfpzkIwAmRsxBGi4RiATYAWQPkrfb55UkqYAv5kVJAhjZH621Lpu4Nre2cPHCxfLLDx06hJWVA8ffuPDGe0h+FcBLdzUgqsan0DNcXm2UrvORkEJxvrt8h8yQQq4fdARSAUozKuRLA5ABpFYaymhdnB1pCMRQu9Xm8ppddvFey8DvQt/Ntk69ttZY78AHy4vSbDiDg0NZL3lIKHt6UKJcAAAgAElEQVScl9jsNTCWBzvw3dInI52jHNAoU9B033YgKS3r1uRF2ZAxsuFZt4l/S0cFrYto3oD09UG9nJJhC2LmrBu9EojUg0XpieCyLXFg8zX7QW+tzMfmpIz+2Q54Ys6JZLaVGUOjE53kKnAmGLqXlmPoJ5nSUK6bm8cdIMkwgLp1ymQ0nHGbylrba/a/od6Q1XRWGNijdV5s7tt0VvJeO7CGJ/7KE3jvY+/FT//0T+OP/+SP8bnPfQ5f//rXceHiRaRJks9P9Gc8enMqC3RGbKQoL42JeMe2uZYZEmy0f2cM4I17lCiK0jRNz6OYTC9+BoxliLzb9vX5Ny8ZmiXnmbhj2JirWZOQqHLBLInVJLGzs4OLFy+Wpcf19XVsbBwcPP8C35UkyQMAvnZXAyL6mqGsF/KLyeCl7LkDRdPlXVjoCBucuTSVHrwDIl42zZaDJzafqUsWie3ZlJ3dBLOzDjhcJJAcBoIC8YKMPoahsXXcg/HZUZoSuggffYdvBYRO3MoAKhNAf4LNSIHBib4IJNlSspPAGnvOrk95TTzxyZpjagsW/fUNOESR5lKDWFFHDYQM3YuHnrDD8ddiNDafHaJHyTLwvGuBVBPCFXL4dKsFlA6EIvBMxdPxavPQEuKlsSHIaEASQraLaEjoPPsROo+9dGB9jpXXRWoHpf6ZRega+yQrXXa6N0TVYKNDyG7DGZeQzZZAgNhUBSR6lq0CyLV0fUclpEoDDAdD3HfvfThz+l782Kd+DN968lv43L/9HL7yla/gpe++hJ2dHYgoKNWkUyRWadSyDXawVBKyxeHwNu6nHB3yn2GSuK+7ceOGGY/Hl0DuQbIRG2WJzWv0qDZyFY2XQZI4Vb3iJCiHwVRQtUwVM8xmM1y4cAGz2Qzj0QjLyys4euQYlFIPaK0fB/DP7mpApKHPaS0vR3H0qO/1aEmOh6ZCl7whegeoQ/2Zjdax5bA0YOH03yvd2VENjhXWs4C+mZAEQC72SshrWUgTqToYjCGQEbHuVFt1D1knOzc7TVegjD4S0ELCbHPcfhBVC1wanIKzbmx4ruhApgLXzYaypBNsSACVkPZnVBmp5tJACNFjyNP1cDyN5clApu1n0jXeSoj4WisNuc3CjTy5Fv2tUDnOtxWuuKR7H6FSYdM5qO0raT5nguYu1pDOYtAh920bDzU1tJS1a+arYa9LAL32fX/wLFmBiDCAxrc0sgRRfGm4dTb4iADizZbgln0wuSahttDelDp/jt4baKoAYnVlDT/80R/G+x9/P1544QV84YtfwOc//3k89dRT2Nzccr5WJLCJrEhXimDJx31I78IkkLRJUMhyMKgFRUYpdZnkNsnlws6X4ZdnMHw00R8KW7dP4vmPrPWezBAhrVNcvHgRu7s7GI9GGI/HOHbsGJRSwzRNH3jkkUfOfPvb337lbgRECgDuu+/o01/6t3/w1PWrV0r58lqk6Y6edDcWGZQlKUoqDoTrG9muMQx9yy59NXYQ+H7p8XnsHpPB/fx7R4t5V+kCDUax0bgEgp2+TThN391r/ff5c6fmsJYBFRtQDHTOfKx6EBgoBbddLBsgjEA21+ue28ptQYJ0dfHSEmMRHek8w2gp2+43cE3CuR+b+znsBinsdeI+dc7oB+5016C1Iy9wvXORjaXlXLcgffZ3O/fO8La0/11CXWpoRq3aNqn/3ZzDtkiXbZGO84X2PMIpZzMATXr+rXGGNa2KiQYWJ4t47Acew3/5N38Jv/2Pfxu/9mu/hk996pNYX1/PURJTJTtWNMlcHoB+k1MRkJQZWRXUCeoRG0kYssuUmJWVlYExZgkgGS4Q1VCnfavSWp21xpj8vzXevPQmtre3AQEGcYyjR48hjmNorY9orQ/eVYQIAH7r13412dnZwU/+7M9lk61ZRaa1KNY7feyC3EPZYC3lQqt4WQ1aD2Q/bCs7iQe5NkaxgXJWh5Jrn+8WNlx/qLQiDdBt23ejfaxOr0inLaMNPJAOSZj5PNw814n2Usc8ApNB7oSHbjZls6EZxvb3BqUDQskBxeoWmbclp/eturafLWTkLodl9vGlXWWKXntIgvc9Vyzul2xD/LC2IOx2BOE9ppI3Ebf3db56rG3NtEtHabZrS8otXGNTU4NYQZv0uEEJrZu0DhBvlHLw+WehrnfxUaO8nBYN8MB9D+DsvWfxY5/6MfzRH/0R/uCzf4CvfvWreP3116G1zjTJlHhlSrFK0SwDCmnrgLCuzZBl0OUEcRY6NBwOT+4le58Wyn8E4LB4mhEuOMQ2xeuOXeF1n+edZtkID+Da1avYvLEJ3JMt5NEjRzEej7G9vX3QGHMcwJ/f1YDo3Mvfk//zd/853vnIo3j3Iz+Q3XxpOaUhZmBjFtqqZtvmSbscYiiYcgh7Xgmuy3C38HboczcaSoBsgVrtz+ozpLQpEJIQmZIBjoAdOEqPw40A56enowtKAFgkV84RhLFpzENX51/bHKYu59ESwMscZT9IeHv6+4W1K8p5Aw1e0oflpcFBS8f4mcYRVOwaG0HvjEstS5Y+UWwLLytUamX/CClYVpnHc9PbVwwJPLY0dvTdb138pT4oYO18t4AkbYkGG/Zv43vZL9Cpcb5aCNq95FgQQCAbSPoIDPG2B2oFk7y25yrVnq9NyQh0tNpME0cEsvhuTYgoHDl0BD/x4z+Bj3zkh/DNb34Dn/3sH+DLX/6/8eq5V6GNhhJvREiIlFpyiKSuMlQe1/x/GXDQgwQrk5Xh3t7eh0XkP4HBRyBYtg8jA6Oki1mJIi2bmL6ykvuAinI3QRijAcTZAOnr13Ht2vXyMg8dOozFhSVsbW0dMMacuusIUQTg+ae+jX/1O/8Mp86cxerqmhcZSjCC7qV9It0Gyyn5SHu93y1mu3wW8V4iYs1+KYhwfUdZhMoGfedy+WTHtq62Bu5H23XIfpR+Q87Sb8EOzKJik6yqdKA25fstiXuLn2WrXLeWCY33vBu6+iSAzLBzsCTrsE7oufvZZkOmFCKCuvIB7AP4BJc3KKKIbk2uutkq5p2x3SPXyqLeZEN/vpmvKdbCGq5kN+qevqn8V+qvBCAdsSF9wDPn7tRvWr3f4piTLKMv3m+/VnzepL1l2N881J5Xz2YAP6DyxVnZkNgJWwKdOZT8GUC4fK0g6bCrwXym5zzKUDdgk7ZVqxZRW6NKk3q91NFFX0LADoZqSJktJ5LP+jy4to5PffJT+MD7P4Anv/0kfv9f/z4+//nP47XXXkOapllgFOqS67iZmrSKBPrxMWCapmeVUr9M8r2VzBH3ge4XJG+bc9w9sK7USWKGZG1tbeHylcsopqGtr61hdXUVr79xfmKMOXO3AiJl/YdoneLfffZf40uf/zfQRlsPhBVXwjMIYhMom0otNQZct+6/NBnllo1dGnuLhEYGmINk+8kItvQ0vKYj0+E8fAGfFRq6/44SWu3a55hRJE0aTV11GYGjg+FzK5oeWw0RKjaYYTXZnawcWNnRaOlrWOQE+jyALkShx7MMGSLpehYd26s5ggpCSj2CJHYPf+29IVgncTMQtFvPpFx3w+yP/VgKwUnr+WWcDFbEbe9RirOlCCnQalRNABk3Mf835HvGVJ9J771iGeHys4sp4NZ1iNdZVaF9xXvt97vvbeLVsQHB4xxzykJOtldbv/TYCj1smQTOd6dpYwPqau2NeZreeo6fm1vn11976YTeeqyVaxadD2RRTtPA6oFVfPSHPor/4e/8XfyTf/K/4jOf+QzOnj0LUQJtjNOKz1DgV55ZBLh0khOr62umtb5O8opARNhm+KRxY7HQT7JeKx2Oye5g04aZkKWKMJtOcfnyZRhm+kRLi8s4uH4QJKG1PvnEE08M7mpAhKw/DteuXMb/8S/+KV78i2cholwD6Jzy/PaFzZy2DgJf26bs3tQS7AbzK3mVqIT06jzzqwSNhoRo5E41dbl0Orr9nGR2B0FsUKIOcAeDBPJ5yN5sfajSvp4e4VQKMqMVxZDhgFHySTo2sbG1JlY4P0o4qw0QhIPkU/9OOV9prrFKRXu+YMv3Wc65TzDGwBnyeU1i32SQQMvAHpNa0FMIr9HLCH3+FGkFOIE2per9VZZNbyOz1nlE53fVd3j7pgiyScdWkO6twHkvnd8X90bWD5e9DUUQFEkNiqP6j1Ia/JOfpDbZJnEdfp/ckG2Bgn2B4uYznYle21YNEcBDvsO20wwUD9iB9LcFkH6zhbcXG4HVpkQ66CClSiI0sLSwiA9/8EP4lb/9K/itf/Rb+Pn/+Odx+vTpbNlMvt+tDeTTNMQ5ymyWiQGQADKdTi+IyL8UwaUiGS7QJIG45yTgnDMBRqnKgxJKsK2AzO5Iy+HNilROJGmCy5cvI01TQIDxZIyNjY3iXJ3Y3d09dlcDouKaFYCnv/Vn+Oy/+j1sb98Mtu2FSQnSS/lUULcKITGx1sQ9sFlDaqTVv/njRCQz4HbW4llqaTi1XdmQY7d8IzBP51AT1h44jF1dOiFUQtCuMRKqFpH90jHpdRWV5Suzbw+FrCk7e11YDL7edbw0dOpnthqs87SlnyH1O3HQ5IjmTyyzgC+HKETq+juNox9C3o6B4Ad1ONtRly55D76gG7uzF6tWUQ9+PDQp4HHpgITW+wPBkf8s6KEuvrRBaCpR9Ws6U6Vs/oXPkXRjbXp7LYf/Dd0AKUexnCyeDZQ3H4mTBvvGbsC6K3npMxlF+m5i9ur/CNoxeokYQwF+IHhkyG/4ZbYWrSw0qFe3rWNNGJb9kNxqj9KNtqRKJMgMXV1eXMbHPvox/Orf+VX8w9/8h/iZn/mZKjAwBuEmJil9q1geqKzwmOpCRchBNZ2ebIHHassUHLgnjZQH99HVF8mw6jRL0zQLiJIUBDAYDHD48OGMc0Qe2dvbW7/bCBGKgCiZzfj5P/h9PPmn37DAN5SaCEFn4TtoNmQ61sZznKzM5Tf6O5pA9Co9D7sEsFoJZUJdMwbkFuDcpnEK9DfbHJ/K+ZsmexncOUoAtoMSX9cohNCgRbDReZ/UAhcWmZiPCvgoQxN8Hgh22fO+pedy9KlKtr5IwkFvV5BNrwxTIxH7FW7rIbAmCsU80ahD5ECowY61v0kNIZG6Wr6FRlE6srXATAgyPCpCuvYzQ+fO+zuZDQg1KPkQtPR65+pUC+kBsfnssWfVlD336jx1qK6pLzVtoxyua1WeDyCXTpNy4LolMA7Ifj9DEaSvot1iykP5h5/4sg+6XvNP2YeaspS2hh/90R/F3/v138Bv/k+/iU9/+tNYXV11W/U921Smd6xoLraAUvZXWYmMeWx1YeHjAH6W5KGmykKF7NSdtMAV4mka7FlLblilP0Wglgc9uHTpTUynMwiASCkcPXIUURTBGLMO4OjdCIhKEe814CcIPFJc9+aN60IAj3/ww5gsTKx6ZGWeig053ZtiMIgRD2KnPFUJ/9GKKaSWAYnNbO87PTKklTBn67bjAMoR9tI4x0xq190vamAb6t1zhppP4qshb+JFitIQ/Pkt5WxxsNK9rKHPl5b3+8RwCWQUvehZTluo9NkujYqz+5LUQL1Dq5Fv5DULFCjG3t4eFhYmmM5mEAjG45ETIIZmCkqbaJSge3QI3C3uy2Tb9m97Zwej4Qgmq+NjPJmUmWd4tmHT4fXmOnl7T7rCQWneG3UldPv6WMtmGqUGpDk4CgpjBsOASsXPoadS3O4FWkmA+EEgrTWRDpEw1iiZxeDg2tAGi4XdpEnoPzYiPP8tRC+pzahrsePujDfxVpG180S65zSMRtCde1k/5eXn280FwVEYdqCWd0W1rRfrebPzO6nBsfXmgWpNperupmBhMsFDDz2EJ554AqdPn8bW1hYuXb6MJJnlPhl1+f9cTHE4GCKKY6SpxiyZ5QiIHBhE0QcV8Vc1zUPZTDKpbWO/w9oFQ3IrFRIn7ewQt1ZfBKPhEEopGGNw8OAGPvGjn8DK8jIIwYWLF/HlL38RSZoMNOXNtdXjT12//ub23QqI/gMA7ymekQFw7fIleeS9j+P0vWfLRa4Cguqup9Mp4jgPiChWeaJZRM3RamGo3CrBrif/fLdyvySQYVleytalkFDraWACNu2SWi06kUbouZU86Gw+Bg+y74jdb8wVSRn+zOCYhUBAyaYAyUvdhTVrFYZUGphIhdOv8SjaCu8iDbDknNo9jYa46gFzsj7vOgrjLNIxTNbP8H1+SC0gAsbjcW7bGljcwenALTkAbeNm5XNS3a0ED0r2s727g9FoBJJIU43JeFLyCkOBum3oxdmE7sA4x/g3lCUbSzlsylS7YIZ6f7b4gZCnvUKHuyZeZ6EVjJOdqI8duLeWXZyGIP8+WbMKbJRs9u2YjcLS4oCGA2tHwVy8lCNgOMQbH1IXYGZt45INk4ClLjAmwQtlQ9jtL68Ehx/79pUBNTBxnpnbAl8S9xt2o/TItCQQQLnZdPYvKysreM/D78H73/9+HFw/iItvvokrV69A0+TnSMrhsZQq2IijCEmaIkkSCARKREUiiwSXKBI5CVKjSKt4e9fXHMib9Ityf7Fb/T3mHTilFIaDQR5XEMsrK/jEj34SB9fXQQJbN2/ii1/+AjY3NyManr25e/N7u9s3n7orJTMBVFEyK/7/6uVL+OM//DKm06mbhYfKC/ZcM1MnHRrDqr6eC1aF6vwmh5rF6hxiHzgYXj3aUx8tkCp6heZyQGnJY7E6SWhdbwH9GR9BZOMmF9q9AawJZNmvq7pYxOmwqXgOVYeMbYCCwWL5mQGyqRdU+d09NdXWUPnY+9LyM0Ly+QEGstgfbgdDDi+IDpHWZVO75EJa5GC/+azYT8b4nN98PxpYNXy3xFERm/1SYxUYSuOoGZe5WxrORsXhCjFo1aUpQYh6TVro8luCjjGfjYSCswWbdGyRJtk4iK3GDbBzbrL6bSuxwJ6BWJsy3gZYum2Y/vNxyM114+SVblzSN8puWqmV/uBMDrf3PcP8NefvLMu2KG2gVVaz9h2M3WlHD1137sRVSzd0z41xu/wKG+byudhYCpNQ56jNT+upui2BMmP1jGh1JxZnjshmp/vlbJsk7zUbdJHCrdCpQNBYdEmRTqomtJiuJW/R32d9xgs0BPS1OiKbq/8o+K6ZjpFChIceeAi/9Dd/Cb/9v/w2fuHnfwHHjh7L9pRhTfagGLsRniIhiESs2WrNQb103ksVXtpYnEg7+l4oaRdo0c2tLWxubpb/vnFwA0ePHMtUrXU6me3evOOdZjEAnMmCoci31TpN8cy3/gxXL1/GiZP3BOoA3phyj/RWkSwDw1CFgJJaFw89jF/slkOvrtwMYNOK4MUpMzhz2ewyVK284nb3iDdYiCKe4ZYwis5+5bxaRG5PFfbr6UEFVh9ylnaB4BZ/1SlKKFIN/rMMNgNrbgujhaS16WXnZSeZBb4VNXZp6Z5jIzPcwvQcGXtrA5hwTuSK1Ei35e3oP+h0Iqzj/bSH60rF4wk6KYT3dbZlA+Vo5MFRSFhQ2kvVRFjGXRpNfE6+FLplQUc0jyVCxkApll7bEz1eiDQBDvn9w3aK1v6t0G+2PkB3niMsDZYQkuXhCmQYKvSKLM2K1XQSCjeQZHDMii+tJ559KzN5kWbWQYtemi966JbPwxMMfKX0Kkn0tKKcakDGTRPQK2v6iExT55q/gnTn4bWJ8wLhOXtC167RdTKV/hPrNA2RVvcQPnYCGMIQGA1GeN8Pvg8PPvAgfugjH8Hv/O7v4Ktf+xq2t7ehlHIuuBzdkcObRaIvIpYP65r+Rq/cLvtkGbi+vUhKJc52zu7eLq7fuF4GSwfXD+IHH3svnnrq2xAlLy8sLPzZ1tbWHQ2IIgBYBSQC/roC3ukXChYXFuVDP/IJHD52HKCxeERVTX42S7KSWRTXs+SGUdY1x0Rv4e3IU4roky5/R+BJInfLzYvYE4O9jUm7bs+Wjh4v3BC/2OenWW5Zpjz47KAk1PTi7VHfrge0uVhhhVrxQGEEWbTu1bLMJgQ+wVVqWXvRx0Qr6HVr9ZZ6K1HP2FkvE9SWIHAUJXze6gSUQBQq3j6jtc/8AE7QVE9tLw+Euoj8khkgGI9G1R4Rd12dclNN+Cnw3RJ4b1BASVALK/Pv3tn2SmaTSU6ARK3GTNtBOKUxCW5usTMTetdWG53CUCOxdRIbOIr+bmKwluOVnh3SBBjgtPjuXWrfXr/WWmU5QEoRcblG0uZYAoED2AVXSDAIE6AaG9HZvWqvNiFhWKNTa8hHCP0homJNrxWx1rl3l4J7IqTBF/hPEj73S2pLXpN7a7JNYiefoXKUSAD59CrDodk/+dqORxM89La34/HHH8eBAwdw/rXzuHb9WjY0VSkMhyPESiHVadbODkCJYFAMfS3mihUCq9LcKV4rVPukcmku2xCWQKTnA2MVIY4jkEQURfjwhz6Mhx56KP97jNXVNbxx8Q1cvXrlwng8/t8vX7589Y4HRCeAYQr89Qh4u08MW5hM5Ikf/jhOnTlbiZrZHCLJAqJBHGVzSfz18FLWPo0QtnkRkRpi0UmaZT0zlyCILtbB9wy8Jdtey6qlkiCXgG8UqRtUJxgI1mqlZmybNCWcGKdW8K8nLRJS93Vsomc4pBnq8qdbs+0Bwpue7gUorLW+hiv67nT5lrkF4ka3dJqpxeVq1UrbEgh1pWZSRRq9Y1hZnS7sb3c5lQHRtAiIxo0lWJcGGkAkpe1qBNJDKd5/9/ZOHhAZItVVQBSy+sK6EjYcQ1iPVsucQCxRAKIhsQhz3IIMjqYz1pGG2xwh8RKamrq0VCVIm6lCX1aY9MKP6n86ic12alJzzNJsA0NjJUQCgViuMFw6Ziv0lLD0QmkrHWkL5GKqob3UwP2hJ2Hg79XA+thOvBl3QC0Ja4yb7A3jB+4BYpJ4IzsYWHTxDV9gfqbA5XHSlq1hx0O1zYqpVK9/8LEfxLvf/W5sb2/j/GvnMZ1NMR6NSlJ1kibO89cANOkquUhzAFnjW7byJ2lxgCUs3ZMftiiKEMeDMoj7wPs/iPc8/B6QgDbEwYOH8Oijj+GBB9+mH/vB93/ps5/9/ZfveMksAYYARsUNqrysnbfgY3dnx7kRJ3q3jF5Is8B1pab+YBkE6HLDJwHyih9kVLWaIDlTbADZh3dp8aE8ljddbZSyHGoJX4jX3RTA6et1qjZHVJOLZ7C12Je9bz5IzWhZgcaIj4BYJcpgZuNL57dNw5Rm5Ib0Mh5hRVamHwrQL4h6iAecjJmoAvd6qUjqQabUpUeFCHa4VCMnWvFtNxgS936dxhC2xJNtHYCewa41Gfgl1zava39Oud/qg84cox7QOfLLuyJNJWVpdlSCRqK3+B5H/KaMystIS2UyPMWl7tCcUk4r8GJ1j/mBhHhnu48qtJc81RtCxPMrNhpYXTEdxIEVAiUSJG47wTcDCZttd53aKsMdwqgPPC3+u+KOeARmcZNOoHv/h+PcqmBoo37VKCVxBobXylcBQNHPKqoydqCZhuIhte5FuM09bQqPVj3YmrogFthgDDEeTfDRj3wMb3vb2/B7//L38Du/8y9w4Y03HO224t6TGkpQGSOKhOe09AXmWhJjhgrBVoBvtMGNGzfyvZE9PyWCkydP4eSpUxuaeOIzn/m5L93xgGgALOo8IPKTIKM1ktnMVWEVF/YWCdSNIS5RMSCfTC9IEg+thDE51Rv1/lSnPCbBIY+OBoqhN4XcayEUj6QIj5xZTB6253sVQaE3AJBOQGXNUbOCtzoOT28Gly2i4zIb68Tdlmwxn//kzNGiD+Vb8IJBALplvQushdMUbnXLM0mYUsDOvw0DU24Hsii5iXVYA8/fGypG+nVvT225GNVuBUo1Ei5pZf8BAy/1EmjTZHIGBKuYT6EuRMmcB5bvM2mKQEUC5A5bHE2seV6hUkpgv9DJA+pGC0CSJEiSBEqkJZnp9vSCnlGBLZfIWrwTnOMlXn7KAE9HQuX60gb4QW/3QJQQ/yQoaBlMu8Xt2Ayhg9LeUef0j1gE7nBgUvAyxU30pOqabAWtjCmdsztHjOGmCyv4tZkNzD+L3qxEP4CWlplrFgaR3bcERhMSzhgn96xKs7aXZfMk0NHmBCX+4Zd6WaxvCa9rjxXPWLwW4qJZKYoUDq4fwt/4hf8UBw9u4O//xt/D5UuXrNl9brDI0Frb/typ1bBHplY/S4EI2ltulgR/rVPc2LwBow2Uiqo9aggoGUWQH9nb4++Nx/LCHQ2IpkAswDgwuBxGa8xmU4vZL85mBAQ3Njext7eL9bX1uuBZaVTYKXjrPzeRCnLr1osJ1GAZnvEkHsownc2wef06DqyuYTga5j67Xvdvi4DrwUjHEM8AtB3E7kP1XGmet0MSOzs7AIiFhcXaBdPKzPzSho/OuINx65m5ez8M+wivvEpnHlmdR1CUZW3yYWhctl3mItmwtq5ks8NTyI2ejUGlSYIbN25geXkFo/Gobo3EzWSldhZ8nLN6++7eLra2trC+tg4VR5hNZ7h65TIObqx5MAhrRbtg6ZTNuZr0Kow1E8V90zWbTfHa6+eRGl2Wxcm2Ylut5uNx7hrYqxJoM288Bk0Kg64N8G379vY2rly5ihMnjucE1H5lK3ZEQm74GLBFobKVt5/CpaMAeh1ax15TthEMuDIzq9xA3Av0ZrMZzp07hxPHT2AymbisansMgwBKVI1D4A/LrU+rlh5jw7ygpCOYlnqUhbrgmdSCMZt0j3r1sxZ8OxclVqnIsXt17qhILSxpKQNIVXb3AuXr+aT406dPQSmFOI5x6NBhDAYD6P+HtzcN0uwsrwTP897l23OtzKxdKgktJWGhkhBCCyAbG2zALGYz3e32MrbHbUfPhN3umB/T7Ym28YRjbAw2PY52YxuEEAhsLMRigZGEJLQg0L5UUVJJpdrXrNy+zG+5yzM/7vauXyYTUVKEgiqR+S33vvd9n+ec85yTJvA8H8ITWWy+8TYAACAASURBVGisoHJSlKTzQLcZMWWYliaKNBcnl2GTNGzDmr9EOWnGjCRNsbKygiRJIIRXgQ7FXkv0+jjGjQDOb0EkgDAFGtYMwjRFGsfaxaJSR8TE6Ha76K6uYHpmGsIgOMzMLJ1+ACwGfSTRcaOEiEoRob6bMSrpEDKu9Vdx4OWXcPU1exDWWlpX7yxyR2PwP2HnXF0fsk6gsQMxtl3oc4vzICLMtDdVuhXbW5LlUTTwZVuH72iJnV5QFltYnTKSaDMu7ApG2LvqyK6tPSUdkaQR8YNEGPT7WFg8h1a7gXanXdkcWCoNMrdeS+x7RaN4y4RudwXjEx0EQYhhNMRg0NOgdYJt7JFclY61KN8AQWTNHsn1JJqGh4B8g92E2dkZeEKoz8d6zwTpZYO9ZrX9rrHmtaJ7VI+qzx4Ul7gWBuj1epjZtAmeJ1RDQUfjYscB1+vx2dzrpJVJVvGhi27ECAjCgIRHPBOwNkOwmGXqU4tRFGN5eRnTmybRbDTtBbVzSER7r9SGnqpF3gblVWqIt1Zk6g0SrVcv2gDUkcaYWPd82VALP+LzsT5woJhcZP+tXgtRC2uYnpyEEAThebj4woswPb0Jhw69ijdeex12XLAT373nuzhx4kTZCLDEi2pyUtR8D4EQiJMUwzRFnHJZAFVFnjzQ4J42ZfM0Np/tvDhaXV1FnMTwg0B7eBnM6SRS/OzyMn95bIzWzltBhFxD5EQoXbObufHJ9NQUtm/bik6nLY1Rs3nTtc6NXVS8FoZoaBH0WU/+/1ORVIaMzXod3jUeZmY2IQhCcwcz7JkJ68wFj9zhHX6OsItPydLujnh9AmY3zcATHtrNlipapI1UchYLa33e2Dyp7Ls4jRBep6xHYFnXwkj4YyPikI0yHgT4wsPm2c0Ya3UQBqFaEFlNhCjXZrjuXVWYtZttzGxK0ag1IEjAJw+T45NakS/Zu7OrGmU3X+QskGzqUMchY9giZNMe7WYbgfDLBoU3Uhtog5GMDbi7qyygSYO4DlLX7dfO4nrYwOT4FHzhZ82b3mzpaKOmV7F29KTvayxpPHQPCRh0LFlHuyzIhVzo6Z4zShaSKicgVy2l6fxI+h0GK7lOvvAx3h5DIEKI0u3TLhJ0zFhqztaSLYAFNlcQYLDRo7HDdqXIBiPSNKbSVCxr/bOyxlgdXpCnj0m62NYCmTe6FWkKLrZsRoqIXf6uQvlsBCAQAeq1evYNWYAYWXKE74OZ8brXXYL//If/GW99y1vxt//zb/H0M08jjuJsslADIYrr0fB8tAIfUZxgJYqQcGL2OiNEceqV0eXtaqOZFh58RBgMB0iStNxby3oi95FLGNfHcXw1gEfOW0FEwMADFuz3kkdnZRHg+R48z6uCFRWmgSUPEIkzVCYxpEVO8kNNFopIq2pt0eO0XiEHpQUiUF4IVUF76oFD2nmSrRpO9dPDvSxkiL/Ux7G+IbIFGmeVK7M+bfbPW+Z3FfQfyVClhYaRn0BbFWtrm3h9FM64Kilbx+6VJcKw84JsL+BICxhj/VTV+ityI+2VfkxGK9n041CT6NlNTREp30s2h7R2omwrxHXIRHJINqwByMT3VVwbDucm5VYqq5elEFTm0dilU0SvenqYwwCkFR1V0ALz+sqL0hyxuMO6BqiwDLA4SyuaPUMnxQ6LIjYeVSYNUdKhJqmoKz3WpBlr5ZAxs01y5NSiVmWtqmG9yNLROVaoEDWGgU2gktmUTRhathEIpm4GJ/1n3oi2jFyADed6QDIWWokIy/fT5RVWXAuXK6hldo4d7NbI88dyfYj0EAczLdf6xGk+ZPL+XxkUZy8wOTmFj3303+CK3Vfis7f+A+76+l04ffq0EsclO4cLZni575HQvgSveyE22vVUYcjFL8ZRDOZUWa2ykW6S8o4oSq47rwXRfuDglUHw94LE1jgaXlRcGYJqnkVadWJMB+jggpwNJouxYRYG8kZLZIeFZSCCnAZY+tOmvadQJ5HUI7QSDZUHoG3EUCosiDU22TL769KZgLTsHkdoLcvvI49t2tYhV0UkcjdWxbiJNoDCjMTV2AkIGYZvUKcw1NaCS2Ezs30Trc4mNszvSBYfj+CRNCsoM+0d6oROBWzkVvTyTxq02/p58K79gG10h9JLsDKWLg9okg3BVOpoTTzMetzMBubvNWsGJXmdSKtLyUB/ndMpZGIIei1Piuu1jMLBLZeRFqXuPaSXf6MjNsgO6Wt/q+oQ+4SXCbu44shY8wiDopEz2WeyJqkT2YLqqs9gkpVUCWjZPHjVZ7C4H6TVHKO1S1w4P2vwoIL8WfPPVItFkot/NuP72DZt6rQPJKnO5I2NmBsIGFt7F9tatj9X9hFdZYpQkPXcc3n1WZ4mAAwByjRdKeCRhz1v2INdf/THuPGGm/C5Wz+Lx594vDR0VA0ksuIgJRjZpRUoXRh7urhH7R7ZejSS9xRGHEdIk7Qqwsv7ng2ixHESDIfDGZynf0rjoJ/7t7/3+R8/es/NJw6+dFF/OKhqes3iRs6mJjhYIsogrjNnzuDEyRNZjkr+IKc5NCYKoVn+sCRpWoquMhtymSKgXHyVGUNyyiBBEIWegaUuMoejlQkeZIZUIKAW1nDxRReh3W6rDyYbZXpWhEiYpQ2IYj3fi/VoiaqIZCU1UbZ142pyw6YnsD5dtC7DzjYOX+pKTHGfbWdUSW6GrcutJj3KA2wjsHFesBZFD7NKLdg1Y6QdGvbqwyh7SJ5G0Vc0youimiDKzDerlgQ2fIRt6fFsxJcQ2c0aVfMoDYkhFwoh77HVNTUj0Uhdqwb4tE4GQ6Htkkby5am2KMp8ToIgNDU3hraLLEyv6kovNxV6oQfo1IsJIBLJBTdvjI510PjyAcDQPqPyuJCzdSeHG7SpseJyPzAfX7JSpQSzQzKDOaHRPebzxet2+mZTZCQPazwnk7p/seKgLYuf1eKSLd9dbhTUyBubMJnW1w1B1eeoSA9JSe9Qk+NL5kxDIeU6TusB1SFpVeCmPv4MnDsAnH0JiAfgJAZxCiYB+D4wvhOY+ymQH0gMjFyEsbKvy+RGUVSMj0/gwx/8CPa84Wp89c6v4h+/+o84cOAAkiQpz4J+mqLODE/xEVLDY+2FGGnWLaxmVxKb0U5SERXHsXR2q7E5WfxXijhO6bwXRJ/63KfS3/rZdyyfOvJK2htCMLI5/ADqtBDJsBzMjb54MFNOcOCVg3jppf0YDPrwfB8EQhRF8DwPQggkSQLP90AgxHEEz8s4zziJ4QkPRFmh5AmBJMnGlIPAx2A4hCcyI8gkTQBm+J6PKM54UU94GA6H8LwM7EuSFL7vZZ85TdHptNFqt7UqT6dv2NYuSP9Zy1CybFqsuKuOzgUf6eHO5own6cCCVMaTLVV6BI/NtnE6cpy+jsbc6E9IPhLYiAZkMjud6vAiNV+E12uz9WLI8hBihK+J/H0JzgJY/+KsIU9MbC/Ncqy1dILVoHCZMrGdlsX0xrooB7FxiMtN56jvU2kqLOgGqaINufc+c/YM7r3vXjz55BPwPA9vvv7NeNtbb8HExITh/WWwKND9bNQ1R5DRTr3wYBWdNjhXDfVRpitV12FsgGG3m6CzturktSwl6yqH76hGpmoEZV0a62uXs8PYHSUtfRImxe4gcxS3rDV2o9RcokyWFp9oBDWkMQqlJk+HmKl6/RGu8pDH62U2wgHD6QaTZBhQ642RmhZnC3c27tmI21nFg7DEmtiL13IlRX3QE/8A2vdlSAFv1ftsvwnpO/4SGN9a0Za2c8Tmc0bVsyBAuPzS3fj9//0PcMvbfhpfvON2fOdfv4Pjx48jTVOsJgmGaYq6EIiMhqJqetmidbN2HwwngCKjcGma5sAHrL/AzIDQ0I7zURABwPD48WQLCQ6DGs6mCRpJzDsA8kd8SXY9jwyEtTqmp2fQH/TheZkgM4oiCCEgRDYGWIzxxnGMwA+QpgniJIHveZn2Nkng+wHiJKscwyDAYDiEEB58TyDJr43vBxgOhxCC4HkehsNBWWCl+eghESEaDsrA1izPxZJzw+6D1pojpogqLZu1kVHFRk/o0sIWJphypIJSM9A6ztHK86yJOoxn3dJtySOX2iFT0Yxk6luka6UPAJKt1pMEhWRpn3UHczlklEa4RtMG5A0q9EXqYcemUNR+cPLIy+3CIvRa2bb9Mkm9sIbsVQuFjfcuxmqrLt1RTJK5lolNulsxBBcCJ0+cwJ//5Z/jC1+8Db1eDyQIt9/xBfzmb/w2/uPv/kdMTU2ZnkilT0nlp6TqyknxoIMFq1MkraQiOaShlAaVwpUEIAu2ZMWvhpX8O2lN5hoaUjZwbXyeJV90hgXJVNFggt3dW0XjKj2UDQEty6ICbVVhI2PNkZwNqKPJunZPA6RSVu8HSP1du7+ahhayjmAV1JqswGc16454RK8o5z6SIl1gqSgjKUeDdBmCw/zdWAkkj5bzKGcUU6VHtubDsv2mMbByFLR6UqLN8nyyNAavngIlw1xfy849hvPioiqy1Ye8+P/rtTpufPONeP2Vr8e73/Vu3PHlO/DAgw/g9JkzGKSpUQzZmt71lQKsNL2VLx+X0poiaDeO41xUrW9Okqdhwq9NQZSeOBbt8gOe80McjyMEa1263Kh6uOxQFJRAiRLP/uj7IWq1OlIGPM/LqDLh53RXNh7oeRlyQ8JD4PtIkhTCS+H5HpBDfL7vQyQ+0iRDiEBejgQJeGVBlH2VotgCqFTZZ74GIqfqBDzPd1bU8qZQgSSs6rChCtBUzprNATSoVu2V7n7ESWibYCN1s2O9u3ICW8XiM1MK1UBQ3RK4oliY1J2TbbuIzM1LaILc2WFkPyv7dLDpSaVrC5wVj25sRdpfq47NuA9agjysnaRacNiumYvVrGhos7+Xdc+qJsVElwkyBTiiKzEQTOl7c2XZr4iA18spIgKnCe697x586ctfxOraGjZNTUEIgTNn53HrbZ/Dtddci/e86z0WWkX65qRherxe6cjasBbZoEptHZkomq5/Yhl9cCFpRBbKwwaGkH0qVSvcqxxFdhbMVc/CdijHanQn0c9K0ZMXHqSQ+bZTfAQjr7SNFXWmReYUeiOrC4VhqaSmZ1uTNBR/XEskCpku6Kpw3EQkydAPwGkJo8yQkE4ZWtA0i8u6ShS4NgcGhA8e34GkvS2jkZWQYAaPXwgEdcVAkWkkdK80oWyjy5nRaXfw8z/3C7h2z7V44MEHcOddd+Khhx/C/Py8o40kt83kSGGWaWLHXAkkkyTJDUDd0LwQ4rUpiMKEkykSmPZ8ND0PGPSxkzPFuaGNY7YL/CS3Z6JMHJYp2bOChERaFiaCBIiEtJYJJAgEUcaBEHFpzJgVVKIsboqAK2YGCQEhMiqu0BcRstdTuq38/1PnMqXPL00aWKv4wt5c4ULZANlZukY2fYl1JVv2PZnyMVhzSeTFNh63nKbZwCy6fNrKXTKRfENNh2SbuZqEVhA5+AmpxS8Pd9X+VjpzlGjYDXwPteAzYVfzGhdrWo+BUFEBO5UgowPKvdCMtopgYWWaB+aH4XUPphFDf9DuuyUIUJ/4UrVKLA0UsBMF7/X7eOqZp3B2/iwmxsaRJDHSBGjUazh56iSefe5ZvPMd70Tg+xrCSAaaJt8QNhez9OxUa5PkYpa1a05Ox9MR61Bm2kidLDQhAvV6KkW2ZNpJFUVENqMfA8TRc2FG2F4yO8ABdjgzs7I7scth3mWHzSYlaaxzOb9rI/ua40ecj7V83ojRWkKdogfbIWlDVyiPlTr2FjcKr2H9DLuswghSlOrCoIb0mt9GuusdEGmqPC1MAhjbDNGYlkJTNfTX0Ryy0W/oPgbZX+dmN+PDH/wwbr75Lfj+ww/iK//4FfzgB49hYeFclkwvKudxlRaUi9DRCbxlCkGhwWKGEARmQpKmZawLG2dS9k/CSfKaFERjW7em4cIKeyljMOzhTBKjDWBK22z0yXUZJWLWHiAmK7dailiJyopQzejMNpQM2pME1ZLy3NAJEJQMnIRTCIjqUM6psqpzsjmyscOsSz9JZNmHLeOcFZ8Otj2qSrc0YhwcIwQNNlRJszQw9ECWjVA3GLRbF2kPPGmWW2RuVnJ7QpZXUhATlk0bSSpQyOEHpC0C3uAOaxt5AOw0sDQF5HI6KKUi7GIfTVKUjYKMLN5ArP53smg0QGYBNSrjwVZn6d297QyE+drF8zgYDuD7GSo7GPRBADxPGP5Mxc9XtQ2Zzsu2xHZyBDUzqwLholnRewKtcSPb7dXQPsNlHU7HB4mmYg39IWn6y/6skiDVPd1Cr5QHmjyiTI5E9PVnLTTNIdypsLAXRjyCHDHhB7J8LYaOfRGbqFd5f0lDjAgjQo03UFlJ/xo0M5sTZG4Z0SjuWUOfXXuuBU2kyQvhTV5YriViDS1ndk5qQkN+yFnEasqGYugpH27aunkLPvxLH8Hb3vI23P/g/bjrrrvw6A8exenTZ8BIMyCDoEeXS00KjZiu1RDjIguVU6CMzMqp89Q0/uFEvDYFkX/JJcm+x37Iy90VHBz24TMjArBHu/1k2b8qbt5SaJDFkVXaPLjkOMkwneOUkUm8UfKNRcyEICpMT7VCKbuAHokSPhaU6R5ih7OmAtlbEgWMvtaKXkiIlVIzk3GOkTJ1phdD6+SCrOuaSpYDjawHo0r3waTdmLXsLks9QJTR3FYjTawbUG9FzDiH3VndiEkDAdYTfessg4K4sakVYLPSXn8PtFQOGW1ITu+2Es63+NwQzAJVGWBkzcDE+t5q8c2u5lHz3dHfm6wAIqNeb+Daa67F3OwsTpw8mQ00AOgPBrj44oux5+o9CPxQQv4kHw/5RDc+XEEpSYemhLSRI26hQigtxoZ67IrJZpkhxlpjUE3WkElraW9CTgNUUghaThkLSwtYXFxAFGXjximn5V5WGtMREAY1bNmyGeNj49rDO9qfiaFncskfh0d0LNI+Tg7qdGThoe2LMrouTZaRsu6rBks5RkS2v5Cxcfzk/5C+18iFSaqzAa4Gy3AKtThoqtSiMqygn0BqIF2Z0MDMiIbZhHY2FCTn7JG2Z+l7O5eT2VabPiJjA5an0TKPPcLczGZ85IMfwS1vvQUPPfwQvv6Nr+Ohhx/CqVOnqsBgOTuQSUvctPhf6X06Z7QZyVIAnb6vaE4m4vg1KYg49JODvVWe73UzhAXAKQCJXGkqPCsrtAa7YFdLckAhiyqfNSLjZoIEQFk1Skg1r6KcbuMkryzV7r6g2DJT5AQCXv7fhEO5avnwZD07lZtJOijONq8bdTlUiC3Zc2JAI/Hk9bN8HM3fepPVI2sYUvQCJBe6AmYQo41esiiTiRxUhqYL5bTU1SnutWQrbG03CmQFH9xNMQOjzhwadbHYUJeVa1ImNtju5mtDqHijFSazqZ930gmm6ej6YvACBBR4+8+8Hb/6K7+Gz33+czg7fxZCCFyw8wL85m/8Jq6//gbpOXacMLrkSgquZGmak5xKG204gViLGNJoX0m/Q5ruhSXXe5Y6cZBWyWnWGqpPFmGd0l/q6wiLy4v4m//xN/jR4z9EGPioBT7SXPOYpimSJEVvMER/ECFNU7z/ve/Df/hffwf1Ws2NVup6MSb3RKvLPEdHmBUIRYbG2WhiqjrXVJiwbNVQeBQ5DsxsT6Fqb3FSx6qmb8TuI23rKmWlDAQWTVjKZTyFOZGn60dt7bU6XqMa7zh0NxKadPzEcXzv/vvw/PPPo1av46Ybb8KNb74hz6dkKdts9B5O2tNDeshsrpHV6zzSiunNs5vxwfd/EG+56S344Y9+iLu+cRceePABnDx5MstIy89VIpW4lccHqHA3J91JQjUQtjZ4+edJGczE0WtSEA0HUZRyynG2HlEHeBqg2qhbz5X+gzR61KZfMAALbbqHpBA74mrzqLowVlgVpe+rZEXQrnfuf5RtXEaoI8GxaY9AbEZ5EikQuNPI3pANGCgjb+C9dc01HN0c295W7lotY8ysqhupuiElIuTarFjLlCbF4FKdEnP9jkotqJRW0dGVfzY4AYZhnGRr8NgKTlnF9iAHW0cW2M0YJ8fodVAWQ5aZQ7aMedmWBquVjVoPOnlSC9Yu+zBZSjAGUqSYmZnBH/7BH+K6696Ip59+Gp7v403XvQk33nATOu1ORoVrKJZs7WU4MMteNeQKlnJ+qpxmhyQ4pdJNmeXGSy5Oyexi5dBfZfIOoyJwtPLXNY4uHcrLy0t44MH78dTTT2Nm0yZMdFq5vhG5K2+K1bU+1np9LC4uYtuWzfiNX/111Gt1K79mDAhYrZTJrWGU17I1Ai+tyhm9AJQiZ6wDHVoGijPWg/JnXTjQ5uJsKO6v4pPjLg1Ier7UvQZqfppMRaZaU2ZrcwuUhNXy3Fi9vIGGJnfcPnzkMP7kT/8Y3/yXb2J1bRVxnGD7Hdvw+//bH+DXfvXXs4KYJU8xi+8YFwHaGtigFuaqL54ey6XEa+QjhnOzc3jPu96Dt9z8Fjzx5BP4+re+ge997z4cOnQon/IWyhWoGj8y3kq1qZDXmE3hnxVUzGBKXyOE6PS+F9LJNGUOQiwnCWbSBP8GjCs5QxOFy21Z8zRUySVZoKweeCU0pnROsv+IOcWVCbHT8qEqhNY2kj+D4UQp6q7qNGFkFAGSfx6pFBaDtJ5TrdALeoSs3hlkdMNyZyVHV5F8IJG1BzZ/Fww1Gdtw07D4ZReICUniVHtwYHXQSI7X63RtSlHDmQ9UEsWIkwRJbrxFQsDLpwyDwM/8qHKKcyRkVRyoBTQrOZ1XRbk2O2yxGKi0J5bDlV0Fhzy0JgvmSR3z1bQEasPNTjZuNMZvKc5LKpccBQIsqdnq+lanaRiwJq+b+3lxCSYnJvH+934A73nXezPtkO8ZsSTq3eCS2mLHwUtQeazS4FKZsXfIV9ZL+KDRa1efblJ1ICMsx2U9oWVCSjbvL8X3zEiTBGmaYHlpCSvLS1VafLF0czM6QSyZF/MIKodGLCWXN7NJqxv6F3mCzpW+a8FIWGqAlCBjXaRYFEJE+f+OuH/554iiGL21NSwvL2NhYRHdlRWsrfUwGPSRpoxaLZtybrVbmJyYwPjEOFrtFmq1WpXjZfn6VM3lZ0xGqk5lKl5HDkrduH6j+m1pncRxjLu+/jX889f+GbVaiOnJKax0V/HqoUP4n3/3t3jz9W/Gnqv3VFS7A3MozIaNUGRlOKp6/phlmloXUUiedUlWDI93JvAzt7wd173xTXj2Ax/C3f/6bdz3vfvw4ov70ev3yuQ4Kqeb3YCAnFiRFvYWZD6XRQ2R8mtUEMVHTnq7Gg3aGhKODPuorXXpGga2I7XeycqgSesKFF0RSjdplo2qyoSUapxWFlsLIZByxqnrOxkhc6uGp3XXpEZyyN2DKHVHInOtdk0SWJAZWSxGWgdeFkwjhq90AIOYrPCqofWR+mEiE8pQtreRFIcG4TIZD4iiHGFb10YGNVZxyNV3TpMUa6s9zJ+dx7FjR3Hs2HEcO3YMp06dxEq3i15vDdEwgh/4qNcbaLWamJ2Zw7Zt27BlyxZs37Edc7OzaLZb8ANPEeKW71e8pZd//mLTkicfJMqFbUM9tvwkPReP7Eig6lUAefhJOazleIfCadWyuytrhHR9D5NW15H2kcmVKWvHOW1m5Gwn06prYmrZVZd35PYZFoqF9QxQlWI2jD1lWQavw0ApzgKSCSrr2VU200vHzlz8ksNNQd7jrK7W+rOovbUcr1MdghH6yK1JwMpzxSAkSebNljV3ZmEv73ejYifVST17gW1k4slfRVBlEOoQpVW6SCpH1EGqe5PVIkEA8LTmQboORIQ0SdFd7uLY8ePY/+P9eP6F53HgwEs4fvw4zpw9g263i2EUIYnjPJTYQxAEqDcamJ6awua5zbjgggvx+itfj927d+OCC3ZianoKQRgYepwSgfJyqi/VGgtNy8kavU3YQBGk7McMQYRer4fHn3gc/X4fzUYDcTTM6NQwxKuHXsX+F3+MPVfvUYp36/xEkckIzqa2WEdZ1fdWNxnSpE1s6RWzYrHT6uDmm27Gnj178OFf+hDuue8efOvub2Hv3r3odrvWM8IQrJd0GWuPKZWgSa/Xx/LKMla6q8v9fnTqNSmIakh5CoRAeGjW6oiGfXScdIu0cDResCS2qBI7E7lRBIUmIIkm0zgKMuiF6qEhVD+fskxfVRRZNbFAEr1HaiGQazCEWL99J6tQx97xlkUNk127whsECcjaS9v3d/MTSHDohuCJChHy5MOflYIziRIsnFvAgQMv46mnnsTTTz+Nvfv24vDRw1haWkK/P0CSxFJgKpe/m/lCeajVami1W9iyeQt2X7YbP/VTV+Haa67BZbsvx8zcDMIgqN6bZeoDYFHQI1W5TdIYpEp72DUUViv6dQY5DI0Rwa2FspS+suDY5ffjGoazTrzYJjt03Zfq8+/epNVgN+v6Yr3bl9uRUXIaq8jasuYVPzAa+ZxYnyOHPyE7H2TXi5pdfmkIaNPS0ujvrTYaAiQ89AeDrDtOE3V4ILcYCfwAIvdsG2UMPareW+9+OBsBBjbq3EG24Ed2Xx+ivBCyoELFM7m22sOhg4fw+OOP4/4H7seTTz2Bo0ePYqXbzbKvfgLjYt/30Wg0MTc7iyt2X4G33PxW3HjjDbjsssswOT2ZjX/rxZjIl18KUErKcIG6hDYar2SXWsjPWxzHWF1bLb35ojhCrVZDEAQwsWbzGeA8DitNU7AhrJZYBWl834qUk5XXV7zQOAGajRaufsMeXLH7SnzgfR/AA99/AHd/+2488eQTOH36DJIkruxySiNOfb/J7mNhzs2cIooGSJMEx/Y+ikMHX+72/Mkv1ifnHnpNCqKw0+7XvSBtQGA+SnE2ZZwFY5IZvr7PSz4+RO6niXJ0QZWjkLO6IEkIVByW5e4gyOCmZTiw1Ajki5mVfZ8VfySDuiBTaa+gEWyilvMAPAAAIABJREFUvXpLwSxZtNtoE2gRHOxCqsgcIGJ3+KtBro2yrCalPLKf+6RuVhCwBqQO+0McPPgqHn7oITzw4AN44skncOjQIayurZY/K4SA7/uo1WrwPb804yzNuJgzKi1JsXBuAWfOnMUzzz6Df7rzq9g8N4err7oaN910M2655W24fPduNNsNs+AoDNNSQklBw3XDVHjBTe1XyKULgGHpxpgGk7B2kvr5ywbNaQGqrRHXVfYbGeK9EQdiiZ6xFQEhtoAIcEijWKaLVfE4W6oTkl2EWQvWLV+BMNo5y6o0U03SrJk2o6kK4/kix48a2WsaK24ZxFA9TatvFgYhms0mwrCWufQXi5erwl8IQlirQ5CHifFx+J5nXVMKqmj5Aqw4NlvG4bVReft2TgY4p46V2+TFZt1Z7j8iQ/nJoXnsdlfx7DPP4u6778a9996D/S/ux/LKSoamCA9CeKjXmxCCJM85LtMJ4jjJBepJeU7EcYyVlWWsrCzjwMsH8N17v4sLL9yFm264Ce9597tx/fXXY2ZuBsITRmHNko4xO7tVB3UVaKy86GSEhCXdjz6pxMxoNpq4/k1vwte/+XV0u134vo80TRHFMXZfvhtXXvl6G5FlDIyWrEw5fc0OatN2COiyDHlpOMYb0gyN8j0fF114MS7cuQu/8M534bEfPYZ77r0Hjzz6MF599VUMBgNLCWC3Cq+e9BQzJ+/G8gv/svjYuYv+5c++cO+Z16Qgal9xRe/lffuT1d4qXhr0EKQJ7gcQMuN1kEfQdY8DMp7QCuosDBi1PCdIyJKohNTFtipyYWFWGwmFokvTFMLzIIjApUkjSvfqwktBjggoLXgEWZ9fnWu1WgVIvjjqrWRTP6ALGrTNSqHQmWAPR1a9g6zhiw7DU1LU2vrQb+GyLKNFZGosRKUXkpG44TDCyy+9jLu/fTe++a1v4plnnsbC4kJ5/TzPQy2sodVqotloIghDNBsNeL4HQQJhGCKJ47Jo7ff6SDlFv99HfzDAMIrQ7/dx4uQJHDl6FPfcdw++dMeleOc7fx6/+Iu/iKvecBWazUa5XkrEqBBiJtJEN48a0SMV1JEpXtgLA7fwwPDPVDLR1Qddnziy1LUsWwRYbKY1VMv4OX1SDRqFpUNmRUNgycyDsonLvkKSLgjGbJe1kCFoOiyF/JPoGNIyX6Tqw9l/WcOVLaAd2Sk41nlFhrkOLHWnUgBpkSMGp00VKj41NYVf/ZVfxRW7r5SeeFaQQyKC5wl4vo+33/J21Op1J+rD7IiAViZazXwzY41Asd+yPwfFviEZcJGGEpIhnq58szLhdDXtV+4vRBj0h3j+2efx5S/fgbu/8228/MoBDIcR/CBAo9FEEAQIgwC+7yMIfIRhWKIPvucjyVGRJEkwGAwwGA7Q7/XRH/QxGAyUPaHX62Hfvr148cX9+Nd7/hW3vO2WzJjwLTdjfGJMiifJ16dXAhnV/2pUle6zI3vzqIb7pqbWEx7e+4vvx969+/BP//xPOLdwDr7v4+orX4/f+93fw8W7LpYkBCOAZa7O4QwlMlzysqlOTQtbNekm8MwWOYmKVWVPcJpyOZn2vve8Fz/91lvw4xd/jPsffADf+959eP6F57G0tIgkZXglLUaSFU31/Ph+AOH7aI3V0K8tRnP+ah/n8R+lIKKpqXh/1Of51SXEAEIAdwLYBuB12lNWaX7YrB0o09SIwlna8+DlcRoZXZK5SXsMeMLLoGJOSx0CE0N4XuZgSQK+7yFNfJAQWdfkiSy2ww+AJM4f3mzT8HwflLtdChIQnoCP4ncZIjd4rCoMk7MgIhNqt1qPu6eiqnPQohEiqSBx9HOQs31YheJKeQkcE31kujHr76QI13QImzLuXKmTKNNtHTt2HHf/y9247fbb8NTTT6Lb7Za/GwQhOu0WJien0Gw20Wo0UW804HletoHl8S2+78PzRNW15fdwMOij1+tjMBxiaWkJvV4fa701rK318Ozzz2Hvj/firq9/DR/+0Efw0Y9+FBdfcjGCwFeMIUugIFkvnRX2tI686LUHzdviEvQDxXVSkz0YWE/zNoKAyd5HGb4nZKc79DBJa3tHlqKKYGeq2JhTUe3ZNlxCGtp1tkFottDhkVQmWbU7I3hMBzoIR3Xh6mtNWJa0qQ3SNBj1eh3vf9/78e5feHflO6QhvMXPe55AGITZPjZKp6SFaULH00jdm1x8vF6ky4U7O/WS+qi1BZkuiiFPRTOK4v7ooaP45zvvxOdv+zxe2Ps84jhBrVbD+HgT9VodtVqIMAxRr9fRbDSzosj3UavXskZZeCDkERAABoMh0jTFYDDA2toqVte6WFhcxOrqKqKomt5OkgSHDx/C7V/8Ah5+5GF88AMfxMd++WPYfeVu1GqhFSmiQvOiR+HAHGHZELeaMxfbt27HH/2XP8ItP30LfrxvH9qdDm664SZc9VNvyCOq1DBoq3uCRGEyr/ckOvSUWttIJI9LkToEBHPKOk2zs3asM47r33g99rxhDz72kV/GE089gXvuvQc/eOwHOHToUDkVmqbsCHP1wM1ZhIE3mKrHa69ZQTTsr8VJmqaJtM57DAzhiD6QvrxOQREBrVYbrdYqPH+Qa3Io8yzwMmFzknIW4soZ1+nlRVD25wzp4TyTLAhCEAlwmiJOEghPIPCD7PXybLQsFNbPu4O0glHTrMDKEJ4k5+I1EZ0QZZFnHWJhnRbTAh1sGyyPHi9wuwWTIukuJza4WJRk141I7uAlvws1+FByJ1S44/LcEdK/0oPdXxvg0UcexWdv/Sy+/Z1v4+zZM1IhFGByfAJT09Not9potzsIwwCe5+f3RijTBEkxjg3AEwL1ej0X6LWQJAmiOML05AT6gwEWF5ewuLyE1bUeVlfX8OJLL+HPP/Hn+P73H8Sv/dqv4z3veTfGJ8fNDskDkJAykm+Htu2iIFn3xsooBtzztDwKVWJYNa8MLYpb87Ue9ZoWyyXr2P7ovVAdH+CNCFLskAS7ChUbb8KqUpuZ3UXOqGkmDQks0S/dxHIdvRGzQ0rE62tBWIsTUX+V7e+b/6wnPIi6ZyklGPoMoTPzzTalrIxEue0CmF2XnNU9w6rFqpBxbVdSygCZWiTZZFEqhuIoxo9++Dg+/elP4zvf/Q5WV7sIgxo67Q5azSZqtRrq9TparTbarVZeFNWy65dLMoQQiOI4328YcZKi1cp8neI4RhRPII5izMx0sbKyjLNnz2JpaRFDrTB6+eUD+PT/+2k8+dST+K3/5bfwzp9/J8bGO6qUQOQeRandVFX/C2t7tdogsxqXxMDszBw++P4PIf3FPOoq/44KmuJyTjd6CS7jMOTILTaKdotpaYEgyXYFxWctw8dJSXhSCzyA88LI9wLs2LYT27ftwM/+zM9h/4v78aU7voivfOXL6Pf75hIrpsOFACYuRlAbT8ZokLxmBdHJ554Lx6KhiD0f3TTBNDM2g+ExTOgXeuKvlsIsgLnZKTQaIYbRsLyBRdWYFSoZilT6WwgZrq0U7yKH/UqjxSTJoWQPURzBz5Psi0JK5fqzm+jlhzIzo9lsGiIxITlgO3U4rIk/yA4h6j9ioj+6nggGJk9Kd0Ymv0/6tBrc3Z1ssW6bCixg3YIiE9WGSCCcO3MOX/vaXfib//E3ePa5ZxHHUakP6nQ6mJmeweTUFDrtTo7+eOVmNxzGmr1C9c6iLEAzxM/3s/H7wPcxNTmFKI7RbDYxNjaGle4Kzp1bwMrqKlZXV/HA9x/E/pf2Y9++ffjt3/4t7Lxgpzn55ql1jFkISIGhslkf6dfbxKZd6SnGH6SEbfv4rZnkOjol2l4hkUEC6rw8K5NftngIWIpHYvOYNIAb68UgtWWWCw+SN2V2XEhT4MQGYFS5chfPQlmcGONopBOk9lrBmi66rmzPjpwYwaSShYUtVw4aVcusXs6iMSLLdKke1KyUVeTM3zQTGHU/ODnkl7SfJ/WQdLiBlz8vUfDFjwghsNpdw7e+8U186q//Ck88+QSE56HdHkO72UCtXkOz0cTE+ARarRaajQYajXr5qv3+EHGSIori3JmZK6FwdapDCIFarYYwCBHWahjrjGNifBLnFuZx+vRpLC0vKeLsXm8N37v/Phw7fgxHjh7Fxz72MWzeMpftjcUe4+UXJoXSLNmNeUmT+UnGBNpEcXXvGUKIMr6KSKU01UeWqvgjGfXmKvUeGo6rDCsQKbYbBKDb7eKHjz+O48ePodcfII4jJEkGXqS5BlQQwfN9zM3N4uYbbsTmuc0SPZevX2mDKQZtW40W3njtG5HEMe757r/i+InjyjNKJG/FhHT6CmDuGgrP7KPXrCDy5xeaF9Wb3pYacDQawlvrYhsqx9bK2MzqY6w9aIRmLUSjNgVz7tT0LDRs2dny/8POghA5uQJNFWfbvDRxqeW9dehY/zvrmzXb0P71FK+OCIp1gwPZaT6oaEwkbUX5YJK0DVqKITBw6OARfObvPoNbP/9ZHDt+TBKEBpie3oQtW7ZgrDMO3w/KYnQYReCct67SyVm75lTeNyEIMQiDaJjRrJ6HWhAgDAOMtTs56pR1he3uKhYWF7C83MXJU6fw15/+Kxx4+QD+8D/9Ia594zWlsDKLhMlWOMXV6L4q5TIPWpIQTovuccOoi15EW2xDTLSITA2SOSWlj185OByD66LR3A9BK8ysfv92vHMD+VkG2mW7IBo2YYT9Ot6AoIYom02LimKzzZRS8R3SPJoY9sgRFzo8St83as2wBWmTUWMJcSJLRUMWfyCyfUEbE+kImiZjoZJR9MgHOZmbUL6/kDJWXzyj3eUuPve5W/HJT30SR44eya04Gmg2Gmi32hgbG0e71cJYp41aWAODEUUR+oMh4jjzNpOjTsB22ra4l0IIeCIbxx8bG0ej0cL42AROnDqB06dPlaLfAi3at28v/uKTf4Fz587ht37zN3HBrp3qGHkxfZtYxgF4FCNAtlkaR0CdZAMwiqGXlmc5bg81/47I3hQZt00QXti3F//t4/8NJ0+eRBiGiKK4NAwtImbSlBFFQ3TaLfzff/xxfOiXPqRomMyVUsmnOGGEQQjPr8oQGRQpNLsEBo/tQHjTfwp37zrUxH//6GtTENUEMO158IWHpvDQH/SxhaU0XaMYIhiqCLL1EOTgux11ATsmuSz1hTzRYoas6opJlKhWUSNXnknsbABt0z4si0BLR1z3OWl+nWL0kK1ZZ0odp/nbuLJiXBuvnbKWp06qzq38XinjlZcP4lOf+it88Y7bsbBwrvzNRqOB7du2Y9P0DOr1Bnw/AHOK4TDKgv9QjU1muTipZvFjjqsSKKNShYBIUyRxjMFwmI3J1utot1rw/QCt5mqppwhXAqx0u/jaXXfi3Llz+L/+6x/hhptugMj1SWVR5AGI8wfMaqYj1RdiPYqI7FSWUtOSpds3GwHStWswaxGXJ7OiWdhAbEp14NG669MaWeMKo7TZ2EjjvPqIrd04S7pq0kHhfKSM+0bGIaG/t9M1mBzf20lLjfhwNnEURhSt8u5le1l2nHYj0MZqoEJHiaCb7ECeTrIWpDCstZz7iP23pbeTi6HcdmN5cRm33vp5/MUn/gKnTp9Cq9XCWCejyBqNJtrtNqYmJ9FqNQEw1vo9RFGMKI7LeJMi4oSlDDhVzpE1XAUSnSYpEkpyGsqD7/vojE+gVm+g0+7gyNHD6HZXlGty8sRx/P1n/w7DKMLv/s7v4IJdF4CkbDUW+bOYmiip6otn35dlSxQDxWT7SL/s114yIkrEFpd0npIx6pof1ZtqIiwtLeLo0cNYXV1Fu9VCmqRaFAkDaYo0HmJ1JUF3ZSWP6iGTiicNEpUoUzm3T7HoyVF7AiP1Avibr9o+vvmqDywu8qMTExSd94KIyR/UhUgbwsdKnOA0M06Bsa3gEKm6wcxAksTo9fs4deoUZmdngWbTCuHwiGrZ8E9mGN2GopAnKQG8MO2zUdwMi50ULLVqkXdmumLTiM8vm5DRuroO2wFkkhyGizJLxnJahcijIiC0xVa+nzI1Q9WDZkGGXnn5VXzyU5/CF26/DcvLS+VrttttbN2yDbOzc6iFdYCAKI7KcDpmLqc8rEWmPhpapJSDkcZp5U8kBLxcLzYcRqjXQtTqNXQ6HTAzwrAO389E2ivdLh548AH8lz/6r/iTP/44brz5hpxzz4ui3EeJE9IoTjP1nlwu1VLO1aiJUbaExykafkvSt41ysRUfhv8Xa9EChpxMp4pgHqzrS902rOlh7XAm+wxMSQdU2VZsKUIkDQs7XMRR3BPTifcnw9Xt4ZvrXg92lpQWLZAlYqbUjLC2L6lPeWX8ys4gZrn4YLakvzGrn4b1NQmoYllL4wLTeqAalCE7dE8APGmaDAwBQr83wJfv+Ao+8clP4PSZ0xjrdNBuNVGr1dFstjA1NY2xThthEGDQH6DX7yMuM96ykXp5nL74jrbblSRycSTKibSCIhOeh1qtjtnZLQiCAEePHsG5hXPKa586dRJfuP02NBtN/Iff+R3MbZlRijsuTPZZL1wclCpcgn9tb1pH02Y8YVpGOiPT5CoaJRdzIScrSP9pOBygmybleVtMjRfnS5zECINmZlVAlgZEgz7lmK001wwrltmwm96mnNbjKHnPoDe8HcDj570gqr/udfPHTp4aDNZWOz8erGE5TTDPwOvTBJwyoiRCksQYDgcYRkNk8mtgGA2rg1c6xKuRXVZs+O03hDW0B45NQvUrsVq0jMADbZNZZHXKdFTOGoVAbOMCJDk0G1Garj1UexTkHBjVwI8U9NuGF+nhg2qaqkIPSgLqQjN04vhJfOYzf4cvful2pRhqtVq4cOeFmJraBD/IfFPSOK5cqtPE6NJchZr8Z3kzrXxEGGmS5r5FAmu9BMM4Rr2WFUXC85CmSeZVJQQWlpbw0MPfx5/+6Z/gz/7s/8HVe65Skx4E5V2cmshsyx5lVq2iSKIlSaMwyKl6Zv3YU2bY2XHCV0tYOvr0EE3rQZ1n/UBt7e1Oy2zYjqzXwJiSHvV7sxMVdsWBkOH2TAa6y3DbWuqtgTy4bisB2T5txxrCbY0llVE221bPMkMEGRuwfQ99r2BLm6TmfjkyZBwmjVrGPFwdKjPZkXcdkVf2Gs2Ek1UkyWquKFSaLE0Y995zH/76v/81Tpw4gfGxMYx12mg0muh0xtDpjKHdbkEQobu6imGUmS/GUYw4ibUxcowI1pVYBAaANNfA5LpFLwsIj6MIJBJ4no+pqRkEQQgQcO6cWhSdPHkcX/jSbdiyZQs+9ssfxdhkpzrci4IowTq2E2QeU5apQlon6dFuhafq7Th3vy73XMOJ3xI6S1wOXxdXdDiMMBwOM22opEkVQsDzAjAyv0BB5JBnO549yqcBc30Us+RK5ohaSpgn4jiZek0os8aui3qPHT6UnO4uYAigBmCtUUeSRFhcnC+5dz/w0W61M5W/56PdysS0zoNQMkIsDRMtLXgJ62lEqRK0XELrXIU5wqG9sJQbmtRQKRbUJHJWTgBSNmYdF9KnwuQCg41jjzR8Sh/e19wpFOdlPYNGzTqQD0S2661kulEary+27+XFFdzx5a/g9i/dhsXFhaoYarawY/sOTExOwfcDpGlSitu5dERlyxQQKwZlBXQtx3EUgvnqoc6+a8oMThhpmvmLMCIkSYJ6rYZ6rYbxsQkI4SHlFEmaYnl5Bfc/eD/+8i8/gY9//OPYecEOxbGcPYlmkrtcqathGVkTuvGcBcEgzVPKIgLTvY5MSoUt3JskcmQaVdZrZQhraBGNdJo3YHtSYyloBNyrYyJk0ykpI5vSM24j3ylrnhT6nXXNBWsRrxXPTkyVgLMwx2P13RRqii1nkhw6ptCbpONW6j0llqQZ5NBOMGwllao+kaIuWM9MdAl22Y45KKaybOX0SHInsxdFasxPZeCpBxqZIyQlVaaxQHtf2Ie//OQncODlAxjrdNBptxAEIer1BtqdMbSaTXCaotvrlaatURQpiBBJESJZJI6JUumTiwV6xvm0cZF16XleNr2cDuH5PjqdMVx4wUUAzKLo4MFXcOttt2L79h14xzvejqDmV42qAPRsUvUsUNeA0lTbIl6kC09E60fby7cvLcTPowFOkmkM1japAgUCMBhGAA/UU5IEwrCGTmcctXqj0gI5BU7m+wtBpXEzCPCE6mZFGsRAzEFC3DzvBdEtW7d2jh05eGlrciK8Yud2bN15AS686CJcctluXHntdWg0GwiDGgLfh+f5yjRWZcmtb89Oqt6umyFSERrD7lf6LWarJwmPODjghCj1mpy17zMCaXf0rWYwLKu+pqzOv7ClvNIUL7CGKsLiS2dAx2aHWnZuUk8dDxN8//sP49bbPofjkoA6CAJs3boVM5vm4Pk+kjTOk8wzVKiAnvXcMRDBDzKr/FarjTDMfFQKt2oBQhRHWO2uoLuygn6/r7yWjBhFHMFHVnT3+n3Uci+SJE0wHA7Kn1tcWsJd37gLl156Gf7gD34fjVZdMpXM+f5Eil5wrA+S0RVbG822crgoXtVsIFe37oxksTjAs4Eh2qUrJBU1DiWZskLJ9pq6D5AVl7d8CjKbAt2xklwj8CViT0rEiO4qrxaYEsLCJNGIPMJ7iZ1eSWQBtjaSKq8j4uudWqTQE5WVhu1ayJINl2W6rp10TnfIehS22D051WU0mjUl1jq+QsFseg2tLHVx22234bEf/QiNRqOkyTqdcbQ7HdRrNSRJguFwiCTNxuXjOK7iJwqKvTCB9X3U6/VMyxgEZU5lZuWS0e39fg/DwUCZtirzDjlFXEwhEyGOInh+JrjesX0nomGE5ZXl6nunKZ577hl89c5/xqWXXIJLLrtIheZEhhKpS9+GKpLJblivOTvXoUGzs2rMXxjXspa9qFrl6Flm1ZM1s2kGF164C8IPM/F6OYXHZTC4EALtVgvbt23F9m3blDPANvyh6yQr6q2SS5Am71BTAdhHwvXzWhCtra3d+MyjP/qVhbOn3zc2MTkxNTOH8ckpNFsd1Gr1PAuMJUpBTVi3HR4Mh0HXehUuwcCPdAxnlFWKuhdYkBSHtsdN89BIgJ4sJJUtJ5hkwYbFm8T2+3Z/D/0g1v/mUoVavpaQ8twYOPjKIXzhS7dj797nFdfpudk5TE9tgud7eZeWeTxlIjtWRS35tQyCEBOTk5id24x2pwMSHuI4KR+sbJosK6SnZ2YxHAywsryExYUFdFdWEEVDozCK47gc6e8PhgiDALVa1qEAQBRl0G53dRW33nYrrr/uTfjZd7xdmTwru5GUFS6bRIEgUzlltl5qul7IV5l4pGi1hFzDarl/rkI7W59qceXGPbWVqsWVkQOxMnYcsh+B8gAaBLk5NRv5RRjpI2R/wqtiQM2etIWhocxkKv23SuRPnp5iWCSrDkJLD1vjkboP91fSC7kKBqiKP4bNLIEteo7iGbMzRGo0iq1LJzl/iMym0i6clsagdVsS5Ypxhu7l17xwopZ1NmDgwQcexFfv/CqIGGOdFnzfhx+EqNUbqNfqWUxFNMwkGnGUF0Nc0UH5n8MwRLvTwdjEBMKwlukOPS/zIhoOS9Qo0xAl6K2uYnlpCb3eWolmk+Qrl6HUIvdEGsLzA4yPT2D79h145ZWX0R9UBsmrq1187/57cc2ea7Fly79De6yZMRaFHjN1+7TqrQRJcRjV3SWrCL6a3rINCnB5f4lUCYRrLyvXPitcRI4wMS6/fDc++RefxNn5eSMChKWChogwPTWFSy+5VApjH3HmSzFBlcZVHt7SYAVpjaYMLwHXzltBdPZU998Pe/g/d1993cXM7PnCM+IsKkoj5ySp8hKRnhYHZzpqs3B3ugovLRutWYsdffScRwTtmWMxTstEZRRXXbImdM6O39c6cLJ3m3rBR+abW8F2SNiEMqVA5FRQFcZi8k90l1fxrbvvxn3fu1dxcB0fG8eWzVtRqzeyjSRfCxWPr+rDiAidsXHMzm3G2MQkAEJvEIHTARhplnkjTYSUui0h0GyPodkew3DQw/yZM1haWECSJkpRlORjtp7nYThkBHlRNBzW0Wg0MJ4kSNIUBw++gs/8/Wew+4rd2H7BNlXHI7SGi0iZu9fH7mX3YKvfkNyBsVpZyF4obsTRpZxmaxGj0hus0qZKVUP26TRbNU6ql1HpZC77EJDqc2NVNWh0S/H9mbRVyxbKj+RCRKIJyK79USIF5Pw/dnuCqVVe4ctlAbPIRTU6rDzkvchqAY/qvcrbpHsw5UWLnk0nV20sGaoym0IAUjtDVa9CzrzOamDFgTum0o8JqowGjSYOytRqeTAT4eTxk/jSHV/CiRPHMTk5jsAP0Gi2MT4+iXq9BnCaj3an5Ug9pMIFAGq1GsbGJ9Bst3OXesr0rEmCKIowPz+PxcUFtFptTEyMQ5AHz/cQhiGmZmfQX+thZXkZg37P0DIyJxD5+RfHEXw/sxbprnZx9OgRxafo2LEjuPs7d+PGN1+PPddcBfKkoqVAiXj9dGgmI8dAU/mN8Dll2xlTFSwssR1koRKJVL890vjyWq2Gq656g7G0leEQ0nVpI9sjC6chi0v0bFI2vN/BRIJT/7wVRNFweGWaeBcLQZ4QAjEnuUmhBrOheqCEZXNW4nqkzBpddEnGeKH5/ysQsLTJV/R+LghkHaupNBdqyCIZQL9sIksAvHxiSe60yAJHkuQpo2+1xnxG/j2zzskhrmZo0zZmMCZLyiO2riuWigbtisp+RPKIklBfY//+A/iXu7+Fs2dOlS9fC2uY2TSTOUkzI02SfHorrcw0pc0qCEJsmp3F9MwcPD9AfzBEEkcgAnw/yH82QZrEiOII5+bnsba2hqmpabRaLURR9lq+72Nuy1bU6w2cPn0yEz2WULhUoBMQ5ahRrd5AK0mQJDFawyEG/T7uf/B+3Hvvffh3//7fQngqBURkkvY8ArYzolBI14fYdC9QTeLzt8COAAAgAElEQVRG0upq1lWBbjj1PqStOVZH1hWahTQ0RSZoXInu66K4+vyCdn3ZQY0RGQUE2aoyaIGYli1WBjl0s0b9XpGkDbIJNg39DOuzgqx6sLH2+2wpXYmtxZlOqkuyIWmirKhhNOoSjrge2PdUvabUnffVPcmM/9Hfv8yN1NeLrlnU9Twp47HHfohHHn0EzUYdge8DOdITBEHpMp1NkWVj9XLoKRFhbGwMk9PZQAfnmVlxPEQURYjiCCvLy3jm6aewsLCAdqeD3ZdfgU6ngziJIYSHRqOBZrOFua1b0VtdxcK5eUTDoTLYkaHfWceUJBE8z8fc7BxWlpexIGkq4yjCc889jYcf/QEuueR16Ey0KiRM5A7Wsp+VchbxCOG7hNM4Jzhtl9hwNVMtHeQmRQpPJZf5MFX3jWXCnrWSjU22xLl3li9PBmrMrKGXpOaESgpPnM9/RJymZXZT0fGzBXFlrcKU93whRJWxA3U/UGF3Ui6uvj2QTcpgOzeYzCk0Yuh70Shgn7RDSJDQqDAYZYliR68UcG4/RXVx8ggm3vxsrOXE6QPb5PByhNXWnauHTKjZUWsra/jeA/fjmWeeUrqg6alpTE1Ng4RAmiM1pVdEKSjOXqPRaGL7BRdg89YdEMLDcNBHHA2y2iufCBsOeuj11tAf9HHq5Ak89oNH8MjD38fzzz2DtbVVxNEASTxEv99Dr9dDo9XC5NR0LtiHAhsnSZKNbOZp1oHvIwxr8P0QzUYdzWYD8/PzuPNrX8Xxo8cVwSWRBamzmM9t9NmzUrgjdF6wdIHudaM9I7afYu15s5nakOliXLSIDLJzZDYEqYiFAOsvaoBu69ZUBPvVICOaz1mU6Zrz0jxW2lgN9NjI+bIcCFCDkN3ckkVMz3b9hLqLaGZreYNH5R7M5RSkuk/yhj0FCDAmt5WlTwrzaP4+6conUsOftR8uf17IoGV2vZcWlvGNb34D586dRaPZgPB8tFodNJsteJ5XPsdpkuQ5ZFwO3xSo8/TsHLwgKL3NomiYi63TPCsTGOYFzmq3i8XFhWzgIkkwGPSxsrKCxcUF9HtrmJmbw44LdqHeaEAX5TBnlD7nk67NRguzs3MIgkD50VMnT+D7Dz+EV189DKSaVMJhoEiWE0RKlXbeDGLGqOlpIhMLTlPOpmqd64McpRQsZpxqSKcOMiiaW9rg3knQqDiWEGQVzSqHXcCcMp+3+A5h2aVLXxi2GaWw2YsIEkpFyzrYRTo07hbxVflbujbFTA03MJrck8RabMnFrzUhPjXPMmKpWCPLBqeMcVTp6/omT2SECcjVOllVQbJ0lLRDhrRinpRx9+pQsB2CMAwFXzl4GPfedy/m589W6FCthonJiawbS9MygI85NSLUGs0mtu28AOMTmzAYDBANMwFjEITwPB9LiwuYP3savd4akiQGmNHvZRvUYDDA4uIiojgq0Z/hYIClpQV0uyuoN5toj09kHhdyScic6ZnASOKkRJbqjSbCWg2tZhO+5+HhRx/Bww8/jDRJDf1UZXrFMJbcKJfNynnS7WouHxSWYt9INjU67lGVElfCUquIiKyZqJYvAeghvxYUQoeyoRde2nNlqy11E2xjIFFGbiyHNqBbBBQZSiQVLI4LKD261S0jo+AbVZ2W4+fMphOHbb0wycM60mHL6xbX8vlA8n9MTaRgPSN80g44/fAz7r3u1s82HN9Oucr/ktbAvrj/RTz6g0dQr4eZfjCfUPJ9Pz+8c4+hNFGnNonQaLawaXYWaZri2NEjeOGF53Ds2FEwc55v1kKr1cbs7ByuvnoPdu3ahbGxcYyNjeVRQn4Z77S0tIi9e1/Avr0vgARhdvMWpSjivMlLc9QoSWIAwMT4BMY6Y8q1jaIhXnjhWTz/wj4M+pFEJchyCxtyo09RSVUmadsLy6Joct9gSwOWclp+D7lgUbRAtjPYcpKpjQGZLm46Ks7rA832UrGaemS2RYNxysTxeaPM4jQ+4aXegvDEJl1jwM7QI1SW2kQatGWdUFahcZcTL8s28KzRcC4zMtbaHHVAXh5XJK2dryIC8mqaWf3mTE5mQ9H+sOldwiNVI6axok3l5LqObEUI3OMiZEEJKKcio0GMp555Fvt+/ELpKwUAkxMT6LTHQPmDVaTdK/IJZoRhDXObt6LZ6qDf74M5KQWYAHDo1Zfx7LNPAyBcceWV2LJ5S5Z9s3kzLrn0MiwuLuLCC3eh1WqDAAwGA7x84EUcPXoE05tmcPnlV6LZaiOJY6yuLCtiSIU+S7Nsu3qthl4vQBD4aDTqWFxYwHfvuQe/8K5fwNhER9FRsbSOdSIDLs0QWTQjDu2Z1tdb168OO+tp54Bl9N6W7Kg5NrJdOQPd59M6WaV/bwMyJozUCOoFH+yCXbaIfMgCsmwUDmEXt2ClGRzxJ0rmG63zLP4kCKI0iVhQNCRrexxxE9pOwQbKqRZPVoNt1gLuzcu+/jWXK1rdKZwt1GYJgBGSOMajP3gU5+bPoBaGAAnU6g0EYZgNZ6SV67Sae5hNuLbHxkBEOHv2DJ584kdYXFzE5NQUrr/+zdix84IM3aeM3mm325iZmcXyygra7TaSJIEQIguNjiIcPXIEJ0+ewInjx0AEbNu2AxNTUzh39iyGwyGojBuqKvYkTVCr1TA9vQlLy0uI4+o8PnH8GJ5+9hn8zC1vxebGjMRQV3ocu4JVuoCFZQqpCCs7pmCdhYgNkSZX8S7zwsZwu5Gtp3w4q9GwOreqaBvJ6OWkP3N+3zNRu4nO5yKdHLBIOU3TlKPzVRAJQNwxHAz+j35vbX+apprMaZ1dLv8ZefQagIUdZTgc4nT3FAu9xjCBdTZ2QoY+A8aOytkhVM1RkAJxISuCyIr8mY1KmWBTLRnfnEjrpm10nN4AsAl0yu2k3AXLn8GItMrCCDO/DMK5c4v44Y9+iFOnTlZVsu9jbGwcQRgqUwPyNWVmCOFhemYG7bEJ9Pt9JEmkWLCvra7g1VcP4uSJEzh18gTOnjmNMAzhCR9BrY5LLt2Na9/4ZmzfcSGIBITwEEURjh8/hvn5eRw5fAhLSwsgAlrtDup5KC+XaFWFkpTj+sJDEIS5r0lmsPbIow/jwEsHqofRsGpwGPbZfpZlwSLBOpeupY+TVNyvS60adb9qDqgOsNOIBkHSDSk/p04NlePYbIaFWjdjG69l06eM5BbXR0joJ2EudUkCj4D/2URN7Hiy7aOTfV8cmTGiLJhSYGwNPnNIJFj64DTi86932cmCGMlsjZWSdL2uFirLrCIIMrW+sLCIR3/wSKYLIgHPy0blg9y3piiE0ly+UTzjwvPQ7mQoTxQNsbraRb/fz2g24WN5eRme54FENi7f661hdW0NQRhiamqqDJoOgjCz/CBCf5BZdKyurqLbXcHa2ir8IERnfDyfppZkIcwgQXmjSBjrjKGhUWzd1RU8v/c5HDl2HGliQnC6W7uijweZdJcS+lwNMDGba52Nqkc1uK0QatvoO0G2F7FZ+Vr3F7bVYYWlDJVTY6SLM3k9yqwyhpQLwtLehRn9fg+Li0urCwvnzp23gmjXrtmTF168+R9e3H/gH8+cORMrWSKAMQ20MeaaTE6AyYI4qTfALgvTvZvJDPImcgRZ6M6d7pPIXkCZhQq5KAz39u7QD0Ep/kY7rVoEa8XOn+slDMKAFdZPzbgpuOqUcejwUTz73DMY9Hvl7xbiw2L80kT1sr+0Oh1MTE1nniFJVFb6SZoiSSLESYTJySmMj09gcnISmzbNYRilWFruot8bIgjraLbaSBkYDBOs9oYQXoCZ2c1oNluYnJxCo17PaLq8KPILHp+pogozZrnUEhSGob4XIAxDHDl6BI899hg40WYDSyjZpCrt9QCroLGNYhgNSzhhbpVGZ+eBr0wmkYXmYhh2RSyPY4+gnc2PbEEtzLTPco25wJkNgynrBCqPms9TtUlkfV64qgT1C6RSVKMeRxrBRZGl0C6pEDI3ED1eyN0NqYuE1WZgHas060tbDzoehTrw6MMNquFxZm2R/fXw4cM48PKBfDo1a6SE8FD4BWUHn/rmRAKNZhO1eg1p7kc0MTGByy67HLt2XYSJySm02230ej0sLCxgaWkZg7zYAYl8hD4rvoIwhO8HqNcbmJudRb3ewPj4ONrtDsCMQb+HRp6fll1mqkDY/N80TVCrZ2aw8tqKowhHDh/GwVcPI44SFQFZj8a0QIJE6lokR0Gin7aKHYLUfQlQHpg6urtgxzbGG7XLAUxHddrIl2epSagarXKMSAh5IBQC4gwgjp03yqz4w9JS9ynwycV2q71pfLwD2XzJJHtUAFCurDds3aLULFInSxadkjQRoejZ5bBOtgkx5Rwh2ZGYjSkYZrZiV6yZLJplHylTInJaMesmkpDG4/WRYcupUE7Zke076rQFGzohxY4dsoV99jrDKMYrrx7E0aOHpYOQ0OmMoVFvVMiVYrZVoUiTU1MABKKohySO4fle6QSbJhHAwM6dOzE9NQXyPNTqTayt9SAEodNu4eJdF4AAHDx8FFGSot8fYDCIceFFr8Pc3Bzq9RqazVY+rszw/ACNRhMr0bI1666gzwQJCC9zoK2FAVZWVvHEk09gZaWLsYkxNQRRR/PksVLWuADZNdhi1sMas0AalWye7GxFhUgnX5lGlPrmgcQMjEgU2lg4PVv3azPrTYkBc7+DzeewYh1NaN4q8iSLSaK87FnHUS0J75oWkW2okaw7UiJUdFrN8d1Y6pq50jeqY6tQXOVV1TqvW0mSPk2KyuRRrl5JR9Ccwbaa9IBt6g63bIE1Iqjo+jkFDhw4gHPzZ/Ooh2zaKwzCXDSeU9+segMFQaYHTJIUjBQee2g0mrj0ssvRW1tDkqZotVrornRBRKjXGxgb66DeaGA4HGZaxOEQiwuLiOJhPuUqsH3HTnTGxhCGITqdsVyDGMGLfLQ7HQz6fSRJnMeaVM9nmqbwPA+dThue7ym02fz8Gbxy8BX0en34fkta31SK4+Gih1lt7GV/H7k7UXKF2azliwNFHWwguOp7kmOJtAlmss8dGiHq8qbDtgEFQA0lV8yIq/gjlngS5XwVBMGiDOINwxqaLR5SEEbnvSC69rqfWlpZXOsN+gOknVbuPj26mqzoC1vasZQ5xkWQo5nnY4a7WhxXSC1HWBuxLW6F+llMywDTWJFMMMu4n6RpozRTOGReEtVnr0YthG5u5oD6VfRN87iWdmpW/EqgPLRODRGZc+WMbDJ0ba2HF196CWfnzyjftx7WsvH61LUxE+rNJhrNNoa5GeJwOECz2YTvB2COy+IkDEM05+bQ70cIggAX7tiGxcUFLC4toR76CIIA0bCHsbEx7NgyiwMHD2M4HGJsYhK1wJd0BVkXUas3sLa6mm1a0JPO07IzDIMa+l6vhOX37tuX5SZNjiHXhRtZhnK35QlheK1Y+fMc2k2LCSEyoXFlLcEOM7Ksx3Dkacm8HY8YkyfHumMXrWf5fsz6dZHN4shOTbm6WMf7uAAJzosfkipUU/9iph4q8xey2Z00UcGsF4ywDavbaUPNwqA8+PRqQ/IRUiJiLNdHjxUh1cLebg1gKbDI+HlJjODwcsp6LTaoEN0L07I1SUMVrKADzCqiPBgM8eP9+7DSXcnidxiGwFeJ4yiMF2vZHhRFUakPKhqxVq4NSpIEYVjD5NQUarU6vNyUcbXbzUbtKUu6j+MYKaWZHqnwL+JiWjXNP2dGxYW1GnprsdJ9ZshWAmaBRr2BWhgqBdHKyhJePXwIy8sr6HRaasKwvl6k9VtdC1NxasAOSnYbOal3ZXKMLdJoLQKK7WYN5r4j7U36Vqgrj6wdGFtiZtgEXeW6Q9aIVkHklARBmJ73gmjnRds60SCud1d6VZfGpn+FUtbkO00RzmZHAXnD6LjyhgbOQxZvA5bM5yqvHyc8xWRGybJqymdsQqxCkMoBTPZ8oQJK7Q/62dREYUaYslIAkciEwI16A7VazcwQInMTLh8XJmuQq25sywx1uZaMGWFxcRkvv/Iy+mtr5e+EYYhWu11ubkLoMEj231rtDoCMu19bWwVR5hQthMDK8hKWlhbRarYwPjGJYZRgrdfDbLOOTVPjaNRDnFtcxP4DBzPBYwpMT05ivNPGiUaI5RVgba0PatbBaYLl5aUcuZqAF2QQeNJLjIR5LrVNGVReQO+eJ3Ds+FEcfOVVXH75ZdW1dMTWMzPOnD2L+fl5RFGEJDekVOhjAEJ4qNVCzM7MYnJqymTGyqLVrvkxAyr1usdRSFv9zW3UEkmEGWnPGTYQGIuKXiU1UEZNqSeLn7vp92ULTDZMSGHJfCPVXFCnFMlyYrM5a1FJzZkVV171w7sQEsc1UioIUnkqW7CzEbnB5vdgO6XFLt/Z4ohLTSGXHBYsI82sI12yWSRXjWD5aw7tiEqYsGTfAggBdLsreOWVlzEYDOE3swYoDMJKNGxZc0IIBGEtS7fPouoBwYhjlH8vCq8gCFCv1bC6uoL5+flMGJ1/zzS35gAA4WfCas/3EAQ19HtrOTuThUNnNH+CRrOJQb8HWU8rZxwGYYh6o4FVac8c9Ps4cfIEzi0sYtvWzRWSyqPPIvVeuKNUSEKJShACugibjLO00n+SxR+MNxTfYgTRsiIwyV6P1hN8sGI+qjRDLNv8VKg8ay7daR4SR+AkSfj8F0QA3uAF3kQYhoiHifMKKTkkQvP90C4jlfxlRRVBpxs0yFDeRJlMIaBOS5QoE5GT2HNxryx3vRYHXpfeQ98JmdUcp8FggLu+cRcefvRRDKMISZqUqb6Zmh6Zb07gQwgPV17xevzyRz+KsbFxcL6rkWVjdIcFkP0gs9yzcoI3ZZxbXMTx48eUbsf3/RJVKY4NITnkIvcVqtXriOIYSRJhMBig0aiXI/fPP/8cjh07gumpaey59jrUak0kSYxzC+fw4oFX0B8Msbi4hPn5eaRJilq9jkNHjqFeD7G8sgKBrDP4/9r79ljPrqu8b+29z/m97mvuvZ65d2bsGceP2BMnhsQhJk7chAQTRAPNAwqkJagSFaVQlZYKCaiSlLZSpaJKVFRQ1IZWaaEhCchAUggQK4mjJLgmjh/j8WPG9rznvu/9vc45e+/VP/Z57PP43TsomJDkt6WxZ+79Pc9j7bW+9a3vi6IY69eu4OmnT0MIgTvuPIWjx44jCAOMR8MGw4Ny10YImbfOdnZ28MKL52A1V1palU2JCNvb2/jVX/vP+OKXvgQhKK80RW5O6/4dJ85z6bvf/gD+6T/5KXf+mBurusbzRBP+wWjwN+e6InEm+tg4tTUho6hNkvFEPjBzNTGqKqv7/AWudocb9/XmK5cbgPn6dVzdw8vsrwlq2V5bvQbQlaofqiQRZfOh4jhTs5v3xIKvlPJV6Ec8ARVocDH0heuJJ08tNsgUVVuaeYOE6w9kNPRlKjwrX96jdt5KvxfY3trG+YsX3esSQQpHgvbF+JjL50JIBSElkiTCeDSGUhIqCGHTwjvjHxEB4/EYFy9eQJR6lQkhcm9Ng1SUnjkdn5dg7dTtk0QhjiMQMeI4AuAm2sJWK9VNs+X2TZqECRJohWXniCRJsL52DdfWN1LLEDe4QnQdt3/VicELTmwZYONVtcJlmWlhWqbdUDnnre13VMd/Gj2jqbxnNJLsvchLBa+3LD7c7NKZyXyUEiKvQOMKoi5K/CJ38fN+4kp/HQkRM99vtX1XNE6CONYFGatq/0ZU4uLkIdgXZUwPTBInuHT5MsaRE+c7ND+P5eUbii/HXpVU6/pwMwTnvT75j6BqZ3IC68kLKJPkBGrzYtwMU1MNMy/eezDo42Of+F38yZ9+Gp3OjDMyFSIdD2UoJdFpOeXm9Y1NPPqXj+Itb3kL5ucWig2nagfBJlc/zXchIZutonwEwruy/YLMWou1tTWsrV0raTAppUBpu2iSrp0KAkihYLTOx1oJBG0MxnGEjfU1jEdjbGxsYGd7G4tLAY6vHkGv28WFS5ewsb4BIQjj4QBJEkNIhfFohLm5Wdx0/BhG4wjPv/ASxuMIm1ub2NvbTROVLRxZWYVM+QDVAYACdWEoKR1KlFa74/EY5144h/F4XPCjGlqBTqtkB5///Gfx2OOPY35uHq1Q5YmiO5cuOA5HY1y+ehWzszN4//t+FHMBwEmUG9tChkCrl5+nWqXtT6tl+k6lpIg9HgA1nmN/c+Xs/pyU4KBqc8X7AEM8sVzkKmrBDdwYaobPS5sz4SDlVNQoRhWp1HqmVLXm2WdciiuvVm3VVUO51sDWWfBgHZwpKcsAtHgSmFkt23EAdftcXzajIRnJK8XcUoRqBY3/A672HxunJusctEnmtjWOE7En1cWeNgxXojMXvbUK93ptfQ1Xr1wFWzcpxA3IWnkTJ0glATDW1tawvr6Gw8s3QCrH8QnDMH/XIAyg04JTCAmZapUVE2LCFTFpK01rnU+zhmGIJImxu7uDF144B6UUXvnKO7GyMoswbEEniZdguGLI5j5qrZqJ6fb2FtY3NmC0SbmUOLhIzWOOZzbPDCYBjvvA058Erj4G2PRaUyH41gdAN903uZiqJhq17Y1rzEmu9F2rCZPPuZ3YJadqETEZIWZvjNS/noAmnS525yzTOrSwrYPEvL6WhOjChat3b67v/TIRvcYkbrxQCAKjEFss4LFKMjQBLiMQLl+5jA/9+3+HF89fgBLAW958H372Z37WiWD5/e8K/8jnyJQmMaisxMu+CWeFiJE7jnM26cHeHFsFTKZKpcb11ytfHdRAcaJSC88YjWg8BKyB0WPASrAQYEEgEog1Ix45SHM8GqHf30MSRUADrQ3GAOceAl76HKCTlGovgRvuAE69Cwi7ZVgkH1dk+N3ifBw+zbyNMbh67Rq2PTl61zJrOQPVfa45pQIwgEQnsNZASpkmX4x2u4Vjx487w7+lZbQ7zgNtcX4evV4Xz589iziJAWMwGo1AYAwHQwCEXq+Lhbl5tMKRg7GNxeLSMna2t0EELC0tu+szTTCdr5kvpFgm51lmGFsIrJ1/6TwGgwE67Y6HHJRNQMk30GSL8WiAaFwgQ9nvrbFO+CwVbuMLXwZ96ROgwVahNjx3HHzvvwCt3NWoceePGHNtb+HGTn3REqLK5UteTsBlMmYFjWH2eXlNNZzXcmKq6U/6iUfdzZv9CFkT8SzlQTUSUZOWWVlXrPxiKBGqay0dnqQMRl7yQ14CSBVdIB+xEeD+NYjP/CLo8pc9lFzBvvangHv/GSADDxsvN5P8z93E2eBqkuAnUg2IEVf7gbW2F3mbTqU76osTNXnPNeRHfpJsrSsqiajWdmPP6YAZWFtfx/bOdt4KC0Nn01H1XvQ7JC7hELh65QqSRKPdnsH2zlbqbN9BOkjmlKTZ5rwTZsZwOMTuzi4SnWB2dhbz8/OQ5AZ/bIrU6yRBGAaQUmJ9bQ3Xrl4FCcLCwiHceNMJtNptDAf9yv1W9A+VKuJPtvp7u9jc3HJWQl5CVBp9YZ+LM4GfmVVOw02Ixz8MvPhpgGR6UQhYQcDx7wSEKFNaqMnEtRitL3esm+IKl+gg5QEln+zNvj5z7Upvyg0KmodfAHLtK1tG6hjhcSV9BCkzR2i9fP4damdn2B6p8fEwCClQrhJmK8CCcxSZyBOPwj5TKt49FkcRzp19Bs89/zyM0bjx6OFc9bMGDVbF56gysFLTg6HyzerBdUW8qzvdE1V4OJWgnG8smRJwnrqTb2herpSrTfb0R0I4d0OjE7AwQAW2z1Aap9Bsa16h+TIx6NkHIR77jVIbgVe/E3zyLeCwW6k0uIFHUmwo2cfV2mB9YwOj0bC5umhkqhTkZq01tNYwOlWYhXOVDoIWbr31Ntx4400IghDGWIxGI5x98SW0WiE2Nh0vpwhSFlEco8sWe/09nH3xxfwmkEpiaXEJ83OzIBJot9twBsPCwe6GKwTNcrorBHlTz4Sra1ex1+9jeWm5EL3z+7FUNBSEcLe61toF8PzmtKUj4tqNBNo6Bzr3KYio7+4Ta0Azx2Bf9SPAyl11Co0faFHhxdWk/avkWPJQzjL9kkAVJix78gRU4+sUflc+2bFwRqeG+6Ta3PHv5XIrui7ZUKAydYPjkuGrb9VSig/czNcpIc/lhmi1q8ZAhZDve1lVjmnJD80C8R4o2in8KUiCTNTIUa+SUssfgsq9MCI0U/GLmMSlthZN5DIxUZ1qxRUGGDcgBL5hbokWMak1XRwnYsCm96C1WeJksLa+huFomI/cG2Pd76sDnCiKtexc9HozSBKDuflFjOMot4iy2gAWMEaXipTBYICN9XWwcfF0Y30DWhssLS3mI/jWOnkQmxpEZz5qQggEQZC2z3gCCZ1z38gqb3Q0GmBrewtRFLs4lcUJmiTVQhV0pWzICtWGveFUeq1JF1NEABy6tRID6nluSXw4Q//3MVOkJrQVlQlqlAsGmtSf9VppZf/E6n3gEaczlIhQ1oIq/d79wBIs25cRIRqNRi/ZUJ0l0CtEukmRKBAF8gJGPq5M1UktarAiAAb9XaytXcn7rKUOfS6uR5jIyqI6BYIqiVfN+H7iefdY/TxJDAsNPISKaSrXRJBqmRsRIKVE2GqBQKlKagyjdQmutrYgvNIER28ICSy8Anb521xATgMeL58CVGtCK6Rp2DrvyoCZEMcx1tfXEUWj0lvKtP/eKCnBWbvbeYkZrWG0htYJWEpobaCMRKAUer0ZMDO0GcNai+FohJleF7Mzs7hw8QLm5+aAxPGP2l1nt+H8yEIMRiOQlFBOxxbdbhdELnnKRuRIiHpbg8obqVPBdeddEGFjYx07abVaGgGtKMSScPeBCkIkWiOKIhidpATN4sAIErmKNw6/Cgm/Hzzey+UjeGYFtHCi7gx7gKQXc73PxRVZfxBNnPdgNPU6PSI5V9GmOpunyZmkSP599GKCkm4VAOZsSpLqmypVJ6wo9/FjniTOU37Has80RkkAACAASURBVGvbPwY14/pGblfdRLrMwWGgtwzzhn8F2jlf3O0yAK1+O0ioMg+H4E2DVo8F1XQbKEXu2IPCyUt+qGnYhCuTt9UBijprpDZIzQ0+b1xNzGoCNVw7bgWhuri5jHZt+SiK3NQmF87rvvxI9fwaayBZ4tjx44jGYwxHe2i3AszOzrnWVc7jcxOlDEYSJ9ja3ICOI/R6MwBROna/hW63g5nZ2bwAYwassRAksLK66mx/AoUjR45gNBwiSXSRglYzS3ZE7OplGEURdnZ3EcVxA2+usjtRGXUpX5Lp+3UWwff+HOx4p9BKIwHRc7QTLsGshSZVna/XcH/6Gks+UsxVhlCd31u7v73uURGjvHuglCdwSarGb+35k8Tk+1nl5P502pgt88vZMrvnnlOXH/2Lp/6fIv1WJaWUwrm+EwPMIufrcAVSrylwVsQcZ2ZmcN8b34QjR45AkMC3f9trc7IuJhG6Sq0xboDgyqMWvgYRo0ZtKmvKeC6/zWQ3Ln1+ouv0DKhYNCBFh4IgRKfTRRTF6O/tumTIZ/2nn0kqhVarhTAVHKxaK0AEsHf/GHDbO1OCnSvbuDUD6hyqkT9LBLrG4TN3J0RxjK3tLSTpDTyBrAU0MLnY2hwhykTTsorQGAOVkhKtNciS7LnZObzyllswNzuL9Y11DIZDdDtdBK02SLik8eYTJ3Hixhvx3AsvYGdvCLY2NX0UEKLw4Mmqk2b+UFpVGOeLZHPIlbCzu4utre0c2WMqk9fzSZIgRLfbw8zMLLRJMB4NYUxQEu90Uw8inX6bQXD8tcCr/o7jmWQnUqg0aeWGKZ1JInd0wDXWUNLRBK7JAderH3AmP4j2f50GH7U6NXkCdbuBAMqNX4JrpE8ckFCSp2dWUvlNjYHLwxzZpBw3lxPZ7hO0IW59W8rlK5LuegghTO54ckXhpTI+lqF4+Y8nc6BoYok/mew96WTWkjYPheTKL/OOAdeTpryQJmd5sbm5AWM0pAiLngeKNkgtofbeY2amh16vC2sZUnYh07F9IZyKtVIyHc1mGK2xu7sLthadbg9KCIAZw+EA4/HYTc6mE6icKdunmmuzr5xzitcp8m2MqUtFeGevkALxidUx+n3nzehf04IqHKsGI4+q/IfbRCRodhU0d9R7HFfJhyXD7fIUtneNUlMc99Hbqu8l1yZHiz24MlKRIY9UT7+axqxqN7zlcveGm/WMCqFh0sbYl3fKbJyMHgLx+4Wklawf66tDug8j0kqEUOckFylnBl8ePnwYH/rXH0KiYxAIrXYbQdhCI229ehBrLTUqcYsI3jgzN0CGlfHUDAY3Ke8DIMgUJm2q2Il8fUWuTCRRc5HprV63h/ve+KYUXYgxGo/d2HYDdZsAvOE7Xo/FpeWSd43fxqDOIaCziEpjAyWmiU+q5PrUFXNZBDmKIuzu7pYmzJDzgpziMzdM5TCQOlLrvNpy0xAZV8fCGIvBoI+LF84jDEPccHgFo/EYL1y4iDiJcfLESQwHQ+zs7oDB6Ha66PV6YCJcunoV/f4Iggjbu9u4cvmiM489eiznDvkBqXoj+WTCrFrNqo7BYICdnW3PNLCKeLpE59DCIbzvR/8Bvvr4Y5BCpOO/1hOcQx6IhRC4/833Y3buECgIQYqb5RDA5cGvpgkewCOK03XcI9e//1XtMJpaLY3TehP2WWqa2G+yu+d9BjQbGrL1IMgHq0dXeVM1vyaaYPleBX2pgfzdUG8LamyRcXWTa0BXCVQR4ixPqGKCqfnk96sfuALJPzhxrD+s6ASw1wDlJpghiz/knb9M+4YJOtHY2t7Kkw9rHX8nR3oJzVtmes/m0hnp+4mUVwgAUklIKXMej1IKRALbu9uQUmGm18PeYABjjXOpzzVtHLpjjYFIZU+kF1eSJCkNmTR4LqSaROUjYrRGv9/HOIoqiHDdELyI85MKGaoRDX37Dp6UBPOkW4ImS3c0KMwWdUchzswlQiDt6yrs3wFVrTiiMpTPKAtSljyX01zD1yFSYWtuqdWZeVkTIq0HXxoZ+5AQ9MNSpsx8KpNVhfA2HCp1j1ETNIAbjZybX2isQva7V3kC9N4YS5uqzQbzKSKBzc0tPPipT+LipcsIA4lX33kH3vqWt6LVale4CGicF2bepzjND4H7dK12G//wfT+G73ngHTBaT5QKyoSoDi0u4dDCgqfF0DQnVxgB1vYS4ho6Vt9iyiMg43GE/qAP4xm6OvSHCw5RvoMLr8eUVkhpUHOKoiIdSXU3exxHOHfuebxw7pzzFQtbCMIQz7/wInrdDl5x4gSWFhfx7PPPIdEat99yC4ajES5fu4a1jU3EsUYUR3jpxXM4f/4lBEGIVqvlphQFwH5Aato80s+ojYHJhL2IMB6NsLW9NXm3T79uq93GD77nh/DO73tnHnCbNh8n4CgRttp5QM30QWr1WCOLmGv98uq1xjwB7m6Uv6b98gSvxVJpiTQG1uZRckr/Uyb1Xg8atZ9id6GtUv86XFGI9/kNvF+/sVRY+IW6zKYzG4VYm/3umixEuFETlUqFBxMm+shOCCPNh9XnXnkk/GpcyqkIJV4XN2zIlZZgCVng/PhSUyD2BHWJqpGK8yRK6wTb29tlZXivBUIsKgrHXKBHeZJTIEauWDeIkwSCRD7MoY2BVAorKysYDPvY2t7CYDiAlBKrq6uu2EqTLCFkGvPY2Xp4HCKXDPFElCLjfWqta8fQWseVjDPEPePccsWHgJuK7oOqGqrHAT7opmPAa2NyqejyAR7yuJTUUKxMKArgSZT5llqEWrOwOlpY22K5olRd1YQkt8e0WgE6XTpBLE8AeOZlS4juv//+rT//9Bd+S8rx0TBQt0kpuiC0iCgASBZBOCOXUilgZRukDERD1lAVn+MJMP0+aH29ZV0DmmhiLHeb4cbmBj7xiY/jqadPQ4DxPW9/G+59w71otzspCZBLZofVyrrxMm3yvkufPD+/gIX5hSoXvJnzkZL86mOSTf1fKkM+TcbnntR7zs3g8s04jsYYDl1byl9xOp4apJNkefvBI386jQ5OuWYFyToMQ0eyJkac+gqJdPRVSYlYazAIhhnbO9sIW210ugKDwRDjOEacWMSJRpLEsDr2tEDYmygjmETXPncVJTIpipU9h5kRxRG2t3dylNBHoEmgpI0ipXRcBG4+v35k4dpGzHXh+9KYabrB8T7Cpb4jej72yhX+0P6tttq0iJdAl0nlVILAmeuJX6mY5AOyIKZ9Vd6Ym79rKWGrCoRx3YDywEVlhLSYDaHGAqeqXka1zaPcfi8b53CJpdM0DFcl8vucxmLkfp9ikOtVmv98BtU4OdTESzsQWWywNWrStaHKd6tAF3GSYK+/V0r4dZLAGJ23u0qIXhqwrLG5ppCUspQQCSGQpEUmkaMmGGthARxaXMSd4SkMhgMIIdDr9dDpdD3tMHeTa6MdoToMoVJ0KPuM1nIuwuofhYzHy9YWnmmVhGgcjRDFiScA6un0TOIP8eT7ZD8EgA8CABnuuHik6monoTEDoQZUl8oco/qmS42gt5/oNpm7Z92F8v2ftfcopV3YvJvDsBiNYhpVeK9/7QkRAHzXd7/xjx/+s4efGwfqZkniGFp2hS0vBcrMWZazklSXpO1KFiGzDME2sCxIgGg0GkTj8Zh73d6SIHFICDkrpGiTIJGTdKuBpimwViQ1mkRg6SBuxUQ0hzHob+PalQtgZuzu7eXTEPvn51XuEia3Fbh8g1Q3UJrk+ULlbK8pMGPiplzO3JirRCn2OjKce8eMxhHGo2Htxo6TGEniJiWqbmlZ0MpMXJUKoXUCJSV2B32oIICxBkop3HTyZnS6PczMzGD5hmUQAZ1WC51uF9t7A/T3dtHtzSAMQzz30nkYbfIAlbCDuU/efDM63Q5aYQsLC4ug1BQy0sMJPK8iybCpLH82HmxTJdqd3Z303Ejvfm9Wryrrf/kWEg16Kg2ck2J6hEuCdhW8bmI1Wjo3HmRe3qjr4vtV1WFMKEKz1kYJYaAD2mWVzZWoamNBQCMtiUrfoYQIZdOrHnGjqcXnX8PNSeF1tBD3QXlrrAmanCxwzcagbsPCjdcHNSBGdRic9+VHea+Vq/VTTiWgBlHyslXEPllzaQLOSyDRfLFmyUwhFllcpEkSYzQcld5KG537ljl1bQuQKrX7rXUt6rTToMej4e5oNJyzzGpxcQlhoFwb21qnHI2W4+4QYWZuDjOzs/kGa9PEJkuutHZChyoIMBwMsLW1ieWlZczNz6dFFueG1kWyV1STxpgCBaqctGgcOUkRrkxOUr1YoEb+HJdtptjX46urOpZUyLnh+vEoAzlOSA2QZCXxL+kiTbIPmtC6pQoyUeJpUh3lKKmbs+e97BVHNhU0juMYw8FoZzSMNl/2hAgA7nvbfc8DeL76oBdffDFoJa0F3dYtpWcCIa0SMlGtVosMQNuDrWRtbY3nOnNLQgWHW1IdlSo4KpU8rqRcVVKtCCWWpVRzSqqOEEK5pF2UBzx8q4IJQNPBxNE6jAukrY2wgEc7nU4qsFcF48u6S2VTPa5MtFFjwlwKf0QeyjShvmUqB2S/XcDlcfpJnY0CWi7zFvLJMA+BAjskKEoVWv2ltUYcx6mitvBIksUUAFsLozXanR6sNQjCAJaB0WiEbrcLrTXmZudxaGERUrqE2LIFWzPc2d58rtVuW4K4TeukJ6R7j/FodG13Z2uLrTkRtlptIQQWFhYwNzeHDAxSSgHM0KWAxIWhbJrAGJtO9aUIkaN9iIGBOdNqtWcB3JrPDlWIukQTGhnM4EpTtqn75LPD8tZj1XuI9we6y8VhxSOqKSGujcUy+LoAFKpNYZYbz1wTk6MD+t08kcvAzXYYXChfc+N4d1mbK//7BC+2aruD/ZjAVWftcgtiX245T67Oed+ks66uXT4IhZxJVR26hOpMIrxy/Zos5dH5axcaZdWJtYlFm/ecqm5MeYglPX+WS1NDSeI8wbrdTkpaLvzDjLXOyZz89hulE2AGzK6AaYX01O7u9m/ubO18l7HmboCOLS8vt8xw6Kw4rEWr7V5/HEXpEIbNz5IkgkrlZLQxKTqkYIzBk08+jksXL+L221+JU3e9OtVvc8Mg1RZndoziJMZ4PG5MVLVOkCS6ZsJakisklO7lxsK+Ug00FvhcL6y4MhzCXkCj6+AcVjm4VX4lTQICJiJWhVwP5Z+pnpBbtikf09d6Iw89dACDcTI112Ie/c0kRJPWiRMnEgBr1/HQZ6s/+OIXv3ikTe15GcrlVtBaFSo4Fip1o5TqxkCpFankYaWCBSFFVwrZEkKERBDZgZm4oVBDU3ZCkLbW4MjhI/jFn/8lrG9cgyCBm246mY+GVy8Q3wFq0pmvBQU0txNy1+eG55ah+fJVXyZGcyPXwH3tilkesTd1VCAa4HKv3iFBddNgYwz2+nt2fm5eUCCq85n5isYR5uYFwrANrWPMzc44w9ZWG0opRHGMVhjmJqku4PEjg93Bz/V3t/vz84sf0En099MWnJHSfvTypfMfbrVa339kZfUfC0Gr7nsLOEknAaUCxOMRtE5qRyMjQmailInWsK5lZwD6aq/b+0h/2P/ke9/9nncJkh8wxrZKG0YFBSuRnJs2mwMwa38iLbfZ4DJCUocCuNDUamAZNqJivoYQH+yS3pzETBpDLwdaH5dAA354MFTjizZSoyrthGZ7EwjviTFOugnLDvCMpjHTfQ1MJnJ9rocLdNBj+YAHUZNa9wRyWW2gxJ/AJfaIqdXklxqv27pGU+Gj1AiaNVzPQaBG7U7nbLvdaTHzvDV2OUk0RVGEMAyLTduLfZTGICdVosFtvnzixIkHn9h74qNXLl353qDV+uWVIys3drtdDIZDxHGcCj62oFQArZO0vc6lxMNYC51oSOH0zLa2t3Lvs83NTYxHI/f8lEfkby/+EEeSJJtxEjOAxWpWkyRJyi+yDe0oKiepfpFA1EDmQpl3NeG2qk+oU6kvkNkNgQ/udjclPNTAWKnzgZq00K4vEGX7nkgHFbhGkuJ8J4uTGHE0Pn333Xec+7omRF/Luvfee68CuNpEgvrsZx9Z7XSCpa5UR2QrXG3J8Khqq+NKqqNKqsNSiCUp1QIRzSqlOkSkMp8aKs3MoiYfxJVJx263i/vue1Mp850oR8INbobeFZpfCtwsg881+QpuRKT91Mtn2hPtDydwKdEqqJxlWLsKTXoVCwNJ4jSEKisB8FVYnGXwA2CeLwfFIsBonWA0GmB2/hD2dhN0UmQoiiN02m0ESsFYm06GOU2Qy1cuB888fXr03ve+99za2sZ5p0fJpLWhK5cvqdOnT5994IEH/odU6s2WsUokHVEbDKUCEIAoGpXRkkqPPyM9xnEMtgYC/FWh1D9fW1v7LACsrhy9BmeDWVJGr2PH5U2/zFFCrc1EJU6RV5VRfZvPLTlKirVc0bry3ttHMbliPXP9k9VFpbrP6HrpGqz29eqEmIodSXnyrxk1qQhDctWna5/WYYNxaR0+bgB32PdQKkmEN6kXXDdXY9KgBV9HFlW0smhiZsRVU7sGDtbkepBLKHJVqJW9rXNyCus/i2t7XI0gnLdA3J/FQ4sX3v0D7/rZv/zKo2vMfBcJ+iAz35JxTtnaVHHZglmkxYn7sHEUIQxbiJPkNYbtj1trz8zMzLzj0KHFG1SgoFKZkuFwhOFggDgI0EqTIud7ZqGTJPVbdIiTVDLXOpvtzWJlZRWtsIWjx45BKYU4iqDzItFTvk+LLcs2UUHw3wA8BuDdAN4E4LCPrmtjikFBmtxqxiQ9qAkThgWK6d9j1KCAX5R3IrO4muRPdkBGX+PQNbWOUe/Dcc2gvEr8LT+HU66QTekYPpc3l1Uwhsfj6OxwFH3q5cxXXvaEaL91//33XAZwGcAT/s8/85nPzM6Gs4fb3fZiIIMbVKhWpAiOqUAdU1KuSqVWlJTLQspDSqqulCIEiISgCkRI5bFsLgcaoslu34SqMnVZ2LFkvD3RGo283n35wgZN4otUGiaVq5hKrTj2rAYKyLs6ZpmLpXkcImNMdcLsGoBPAPjvC4sLkdHmmBDijTLVFPIVZLMX7e/uot3uoNVqod/vo9vtpe02N6nV6XTQbncQBAGGwz10d3buPrKy8stPPvnUmcNHVr43axQKYYVS6vtfccstGEeRnQnbr3IQqiM7K6kQqADDYR9JFJW5Hswljo6xBlGKfhHRgIX4aJYMpcc5Zqfu1Xyj74stN9dYZZ88yjlJxVvw/vygGjfFR/6ub5qs3rajsooz1XWtm55csonw7p38T7Xa9HgPE0Hb0khN+d2oUskwTzoVWfuYD6bA7FdUsMfvA+1bgBcJXzNRnOivEOwaJ9KasyWCrzzD+8JNtWNeaYUR0GRXfn142HWR6MvJkI+yShmMfuSHfuSFn/zpn3wWwFeWlpbuYeafjuJYRimyQ8J5NhC5Fn0Wt3WSIIrGUEGw2lPdnz958ysigOa63Z7Mznk7bZUNhyNEUYQ4juGmpAtlecqNmRVk6kVIROjNzuB1r7sH4/EYSikYbTAaDtJro4zUZzHTGnteKfmgMebzAB4C8BYAPwTgzQwcsmzyDb3Jb7BIHMlLM7ns9UUNF6B3cqkkn8IlxWi/YONUnNTXYbvuE98U7vj6nsRMzXGuJIfCYGYmwI7HURwn8ThJdN9au2uMGWmtwyTRnCRxX+tkQym1Ph7Hl0ej0SOvv/eu3/+mTYgmrbe+9a17APbQwGd67OHHbtBtPd+W7UWhwiOhUsekkjcqKY4HKjimVHBYSLUopeh5LTjp32xEAhMFP9CA+pDHQ0AD52J/s/nJeyw1bIpU8b0pu+yV+8ylYIdya87b6as+UkiVWtNJrQjAXwD4dQAfAxCdOXMGp07d9ZBi9Xowgqzqo4oqt04S7GxtYm7hEIIgwHg8RjdVne7NzKLTbsOyRRInECLAytFj3cOHV34AxAbMyqT9filbOHb8pqOrR4//hGVGHGvpDFoBpdzYvkliDPt7ucGij55kG5y1Fta490uTuIeEEL9bagkyJ/Ct7diDebwTRqgLkJGnuDqRk+P37b28pGlSp2lnm8hhaujp1y6dSlOrifBDBzWBShOKZWsROqg/3JBgUJZE+Zd93i7jeiHBVad7qprXTxTNQ1O1XBlJ99G+/aQNSgkW15tqpduPJnMraugXN3ZDSwmI3deEdrLxLnstUB8VYOtN+B7Uy/P5K1y03Gzais7tayrIlU0tOzLpCZeEs2XmvOoSQnycmb9H6+SORCdo2dC9pkg9yTJL8fQ4xeMxpFIQQnTn5ua6Uor0urQ5x6TVao2CIBjHcTKTJHFg0vaWaxU5I1ebFn5SyFwoFkTodLup8XOE0WhYiNR658kYm8t4WNgvtFqtR9OvcxHA/0oTo7cR8MME8UajzTyXhi8YkqmBKM/NiJEnr0DU0FaoaM0RAYnW0Gm7LvtdkiSI49h1AqyB1kneDswvAUF8gCQET4KPPCeYhvvInXdjWFvWiTE8ssbssbXb2iZbRps1bewaG3NtZ3v7io7jTR1HmxrYVqGKtE6C4XAPe1Ey0ho7t922vPU3lXv8rUyI9lt333f3GibwmR5++OEblFKH2qp9pBW2VoMwOBao4Hggw6NKqRWpxBIJuSClnJVCdokQilSZmytwb73fe7090RogWNEt4QmCaoSay1KjS/E+sGeG/liH/lhrcxa/9UzynHaHZiHkSwA+CuDDAE6XX0z8X631ewj0ymaUyH3e0WgEEhLzhxYRBK4HPzszi26vB6kCRNE47etrCCHRm5+hdquttNYYjgbQiUYQhFBBgDgay62tLWgdQ0pX0YVhG2DG7vYWdKJrm1U2sWJTEmYUR27ihPkcgP9y7dq1UlJtrY6ZmXNeAANkCdYIGKORJIlL4FJ3a7CPLnKtZUG0jyJIEbQ4TmIkUWTjJBbSuOMZx5GN45jiOGZrmeM4FqhcK6WEiIAJ2RiTt/NyJYwW/lXw/HjIF6ktq1el0TyKo0RFUrJhjqLIjkZjJQjE8JT4yixMru7Y7Atn1XtcXCOi1NAGv+dLvD+GwVW5s9pxiqLIRONI9weDQObcGPcUW74beWLXj5m96T5vG6h4s1CNmJNN11XFkqojI7kur/Xbi5brx41Q9WxoooJXOdeUf1YBZ0KWf0hbgSrcFzHG2t293SQIlFRKZnmLR1Fk0tYGDGoRUUtJEQqI80hMPma2trb2uRtuuOFjAH4ujuN2HIQpkTZwRq2UGrWm16YxBtFwlE6IuTF6kWoPuUuPngPRb7LlZ/f2dv7RzMzs93WCgLKpJICxtraGZ545A2Ms7rjjThw+cgRIR7qTOEYUuWRoPBzmmkHZBecEGPOE6JJN7O9/+Stfrpo/XgTwP5n5z+bn598Zx+Mf3NnZWgHJEVuzZ60dMFi740W2RPBJDzxbMBxS5sRtCO4Cy2Wc/dqM2JcYggAPBn2bxAnieEywTjJkbeOa3ev3KUpiGg4Gen19jYbtfj6gYmFZiOz8EQtBlv2BZFgAoigXswpGoPi5V+Vx7mgNY4wZWWt3jDFbsbFbOtGbJok2I6bd8Xh7/e1vf/tw0g364IMP4sEHH/y65RffcAnRfuu+++7LkqUSX+lzf/i5QC2pY92guxi2usuBlCtBIFeVVEeFVMcE0ZH1a1dnrF6aS7qxSiFGZoYFgfOd0fFdbR5B04ukMJL3ds7skrFuuNQ9RViiPDPJOM+WqTY0yVWchy1gC6iAa0xXt9u7vvp4bLRJbBJF0hY9iRCMGSnkDBGH2iTPLiwu/waAjzcdy6ee+urnTt1x6g+llLcIFsoyg6yFkFX+FmM8HKDTbuPEK26BMYzhaOimOnSC0XCIKHITX72ZGbRbrXSEMoLWGio1WCRCOhVmnWCaCpzrNRg7WxuIo6imscLpdEJWwRlr3HtZu0OC/uu1q9c+Wf1ew/7opSSKP2MSM2vYDtnaPRD3AUqM1nav34/Gw6FUQSAydFpkDjqlYAEWJBgZl1sU58xm/2H3XAggihLTH/ZjbeJQCAVrLW/tbCeWjYrGkQGEHUXDIH15Lm/PVYCAOSWbc/7vTDnVD2TsgGqRJxWCkQZBAwuRRzPhviMs2At2g/7ecDwahMawTYxOomjUzhTri40TgAHS7w9mYQGwEFx8tlziwACQDGYWEmwACPZo6l4WlM3qSPbYVTkoyLWZh+wx1k+rTP4fsBBWuk02GYyj2Ji4VeT+kgHjvodkhk7/DwXJZVUm7SV80vs83DwGytlzGMwyfW0D73OxZEBDsmT3nu6gAco9Pv93cfLdXxRLVf996TgxN/6/krRz09+rP7PG2q3BQA/6uzIIg8xSKn98QkTC6FAq2QapbhiKTsDBtVOvO3W5tOEo9b+tsW+M4/i7IjVOneNlKgGNvG2WoYhaJxinSREz0Ot1IZUCAXY4Gjz05S8++vHnnntidPvtt3/Hq++++4GF+cUwK2SjKMbTTz+N5559BmEYYmVlBYcPH3bFU9oa04lGPBqlBZ+XDjDn5GxrLbPlhyzZz++z/Vz89B8/+Os//mPv/5MXX3rhkGi1x2YwGoyH4/GIRhHctacBoJN0SlwF3dVGa1264XtJYrYb3uRd73rXX9m24iO//RF85Lc/gun6FkuIJq03/903JwBeSP+U1iOPPDIrE7n07PPPdm88ceNsu9WWiU4ghbTMzFJK6wcUZmalFJdWJTikCET+M7bMQRCwZcscuN8hAjhkDm3o/u1aPu7/oS29VhtOTdsa21j82pZloAPAFWN6V1trLW/PbYm2bfNYjMnaUALcaQl0taEQwNUvfO5PX9jvuGlL/0cb/QCBXi1TLR8iZ6zqJ0XWWmxtbaJ9uYPX3fN6kJA4f+EiEu0C3uzsDLTWSLTG3t4ehJQgEGZ6M1DK5QCJTlKhtQBSBmi1WgAstjY2MB6PC3Igey7IqR5SRqSOoghRpSm6AwAACCBJREFUHEWw9rcZ/OGm73TTLUcf+cIXvvBTSaJEK7Gx1Xb7je94YzQNBdM1XS//unz58unV1dVfY8YtsdYnwlR1OqAAFgwDA1IyV8FmBpI4wqjv6kRjNDqdDsKwRZvr628fjrdvn5+fZyHkyTBoBURlcUprDIgI7XYbnY7zRSMiSCGxt7OLvZ0duDylzCS2RTIEo81Zzfq3nnjiiasHfb/3ve89Z6dn+Rt30fQQTNd+69Qdp35GBepDYRAeklKChPB84KhkRksELC4v4+67vx2Hlpdx5fJVrK2vA2D0uj0EgUIURRgOB0gSp1bbarVdq80Y7O3uYjRyY/VJPMZ4MEilAcqKzTYlT2fTCVprxEmMvb2BjuLR70kpf+nixYvPTM/edE3X3851+PDKv1RK/kIQBIszvR7CMISSKhdQzMjPrih0sUUFAVqdDsIgRKvdAjNjfX0NURRh5cgKDi0tQXjadsYYXLt2FZcvX8LCwiGsHj0KKSWSOMbO9jYGe3uFGn4+wcfO4DUVhzTWjBKd/IcnnnjiQ9Oz9s2/5PQQTNd+a3Fp8YIgcSMJehUIInewo2yazZPfZ2A4HODChfPY2d7GzEwPq6urOHLkCGZnZyFVAGZCHCdOIE0pzMzOYm5+DoEKkCQR+rs7GOztYDQcpD5ihaFvRnS2GT/KWmijkegE4yjSURT9gbXmg5cvXz49PXPTNV1/e9fs7MzTzDTLbF8jhQyJUg9NQfkEsM9ZJEI+Sp/d/5lb/eLSErrdboEcm0JccX5uHjfddBJLy8tpIrSFrY0NjIYVlf5KMsSWYawxiU7+QAjxH69evbo9PWvThGi6vsXXxsbG3uLS4nlj+E4BOpn5/mRJEYhK3lBEAtYa7Gxt4+qVy9ja2kQSRwjDAJ2O0ycKAolOp43Z2RkEUmJnewuXL13ElUsXsbez66Yl8qBYFHDgQi4g9yvTGuMoTkbj0R9oTR+4evXSE9OzNl3T9bd79fv98cLC/JPWclcb/WoCBSJFhchTz64NcjDDeFNV1jgkx03WiTQu6NT6w8WIQb+PjbU1bG2sY9h3hZaPPmURxiVDFmwZ2mhoo7+kNX3wyScff3x6xr411rRlNl3XtW6//fa3t8LWr0gpX6NUAJlqiEghkYllFsa7nkloZp0iFYLUOiXzFsuSGp3oXPwMHneAvBHT7LH+85IkQRRFZjgeP8hsPnDhwoVp4Jqu6foGWidOnFiNY/3zQaB+vN1uz7eCMOURyjy+SM+ANfdN85S7iSh9jCzsQFKkyLW+zEQT5WxSVadJlE2J3Nrox4wxv3D69OlPTs/SFCGarumqIkVnF+cXrzHznQCOkEiVUtNEpircyJlApDcxklV2cRzDJNpVcrZ4fkl7wxNPyoxZ2fu7NhpxHMfDcfRHzOaD02RouqbrG2/t7Oz0l5eXvpIkxhhjXklEM0Rlb8cyWlTU8oUrQRYXdK63ozOF6iy+NNT/WdKkjXZj/9ZAa83GmsettR84ffr0H07P0DQhmq7palzrm+unF5cWLxHTbZbtKkAkMlfpSYlNLtle/BG5AU9Fzt1Xek/VDmzqa+SP1qeiY3tRFP2O1vg3Fy++9OT07EzXdH1jru3t7f7e3u5DvV53F4zbLXjJaUsWxo829WMk8g3AqTG+7Nf4yGNLOozhkiaXDCVa28QkD3PCH3zq6aemydA0IZqu6dp/bWxsnDk0f+gpy/YwEd3EzAEqrS14wYoa7dF5YqACkHnXOLibbc4dcqP7CaIoenEcxb9KhF+5cOHFF6ZnZbqm6xt/9fv9R3u93tPGmDmAjgHcysRkMwPsXFC10SrJL8L82FLoCFprcvPYzGXdeZDpHaPN71m2Hzx95vRnp2djmhBN13RdX1K0tXF+bv6GRwjWWGtv5NQENiP/ZEEr/1PzEudawGK2MMamPKFsiizlARiNJNFIkmQYRdGfx4n5t+fPv/ibOzs7/enZmK7p+uZZe3t7Z3u93hcZvG6MOQJgiZmlJ2HubDSsdSr16d9L8SaNJ7nlhrXQxsAYXch1cIoQ6cRobZ7UWv+qYfOfzpw5c2Z6Fr5115RUPV1f07rlllv+XqhaPyGVuE8IMS9FQYYsj81S/aqrOGRnBMdMz96kyZAxJk60Oa2T5KOxjj821Riarun65l8rKyuvD8Pw3YEKvl9KeatSKswI1oVXmajFl8LHrWQmmscXV3CxsdZeTOLkQZL0O2fOnHl4esSna5oQTdfXvG699dbjsHhAKvkepdQ9gmiJhJAucAlPU6R8yWXTZH5Vl1V0xpGnd6y1z2ijPxXH/PELF859dXq0p2u6vrXW6urq65RS7wiD8G1EdCpQaokEKZFNuMLpF/nE6WKsntMkyMI6h9Y9Y81Za+1nSNIfnTlz5s+nR3i6pgnRdL0siRFZegMLfmuggnsAnJRSLgFQBIIQqQt2bpRKRTJkLSyzNcbsgnHBWvu4TvRnDMzDL7300lPToztd0/WtvW6++eYTSZK8NgzDNwC4S5A4KYQ4DGBGShmAId1wK4GZDREZZh5YazcZfMla+ziAR621Xz579ux0KnW6pgnRdP3NrNtuu+1O1nybkOIuEG4H+DgJcQNb7gkhAmYmAJqZRwA2rbUXwThrjX1Csz7TbrefeeaZZ/amR3K6pmu6quv48ePHiGhVSnkMwAoRLRHTDBMHSihYq3eYaI+IrjLzBSK68vzzzz83PXLTNU2Ipuvrvk6ePLkihJhl5i4RhdZawcwxEY2UUv3nnnvuwvQoTdd0Tdd0TdfXa/1/s3wZ7yFkD1oAAAAASUVORK5CYII=;" vertex="1" parent="1">
          <mxGeometry x="320" y="441" width="210.91" height="60" as="geometry" />
        </mxCell>
        <mxCell id="eTgD-rTSjZ_ZBX3sN6aC-6" value="" style="fontColor=#0066CC;verticalAlign=top;verticalLabelPosition=bottom;labelPosition=center;align=center;html=1;outlineConnect=0;fillColor=#CCCCCC;strokeColor=#6881B3;gradientColor=none;gradientDirection=north;strokeWidth=2;shape=mxgraph.networks.radio_tower;" vertex="1" parent="1">
          <mxGeometry x="140" y="251" width="55" height="100" as="geometry" />
        </mxCell>
        <mxCell id="eTgD-rTSjZ_ZBX3sN6aC-7" value="" style="sketch=0;html=1;aspect=fixed;strokeColor=none;shadow=0;align=center;fillColor=#2D9C5E;verticalAlign=top;labelPosition=center;verticalLabelPosition=bottom;shape=mxgraph.gcp2.check" vertex="1" parent="1">
          <mxGeometry x="142.5" y="211" width="50" height="40" as="geometry" />
        </mxCell>
        <mxCell id="eTgD-rTSjZ_ZBX3sN6aC-8" value="" style="fontColor=#0066CC;verticalAlign=top;verticalLabelPosition=bottom;labelPosition=center;align=center;html=1;outlineConnect=0;fillColor=#CCCCCC;strokeColor=#6881B3;gradientColor=none;gradientDirection=north;strokeWidth=2;shape=mxgraph.networks.radio_tower;" vertex="1" parent="1">
          <mxGeometry x="650" y="251" width="55" height="100" as="geometry" />
        </mxCell>
        <mxCell id="eTgD-rTSjZ_ZBX3sN6aC-9" value="" style="sketch=0;html=1;aspect=fixed;strokeColor=none;shadow=0;align=center;fillColor=#2D9C5E;verticalAlign=top;labelPosition=center;verticalLabelPosition=bottom;shape=mxgraph.gcp2.check" vertex="1" parent="1">
          <mxGeometry x="652.5" y="211" width="50" height="40" as="geometry" />
        </mxCell>
        <mxCell id="eTgD-rTSjZ_ZBX3sN6aC-10" value="" style="verticalAlign=top;verticalLabelPosition=bottom;labelPosition=center;align=center;html=1;outlineConnect=0;fillColor=#f8cecc;strokeColor=#b85450;gradientDirection=north;strokeWidth=2;shape=mxgraph.networks.radio_tower;" vertex="1" parent="1">
          <mxGeometry x="394" y="241" width="55" height="100" as="geometry" />
        </mxCell>
        <mxCell id="eTgD-rTSjZ_ZBX3sN6aC-13" value="" style="shape=mxgraph.signs.safety.no;html=1;pointerEvents=1;fillColor=#f8cecc;strokeColor=#b85450;verticalLabelPosition=bottom;verticalAlign=top;align=center;" vertex="1" parent="1">
          <mxGeometry x="397" y="192" width="49" height="49" as="geometry" />
        </mxCell>
        <mxCell id="eTgD-rTSjZ_ZBX3sN6aC-14" value="" style="sketch=0;aspect=fixed;pointerEvents=1;shadow=0;dashed=0;html=1;strokeColor=none;labelPosition=center;verticalLabelPosition=bottom;verticalAlign=top;align=center;fillColor=#00188D;shape=mxgraph.mscae.enterprise.wireless_connection;rotation=-90;" vertex="1" parent="1">
          <mxGeometry x="408.99999999999994" y="402.9" width="32" height="38.1" as="geometry" />
        </mxCell>
        <mxCell id="eTgD-rTSjZ_ZBX3sN6aC-15" value="" style="sketch=0;aspect=fixed;pointerEvents=1;shadow=0;dashed=0;html=1;strokeColor=none;labelPosition=center;verticalLabelPosition=bottom;verticalAlign=top;align=center;fillColor=#00188D;shape=mxgraph.mscae.enterprise.wireless_connection;rotation=-90;" vertex="1" parent="1">
          <mxGeometry x="408.99999999999994" y="572.9" width="32" height="38.1" as="geometry" />
        </mxCell>
        <mxCell id="eTgD-rTSjZ_ZBX3sN6aC-21" value="Route Segment #1" style="text;html=1;align=center;verticalAlign=middle;resizable=0;points=[];autosize=1;strokeColor=none;fillColor=none;" vertex="1" parent="1">
          <mxGeometry x="107.5" y="371" width="120" height="30" as="geometry" />
        </mxCell>
        <mxCell id="eTgD-rTSjZ_ZBX3sN6aC-22" value="Route Segment #2" style="text;html=1;align=center;verticalAlign=middle;resizable=0;points=[];autosize=1;strokeColor=none;fillColor=none;" vertex="1" parent="1">
          <mxGeometry x="427.5" y="371" width="120" height="30" as="geometry" />
        </mxCell>
        <mxCell id="eTgD-rTSjZ_ZBX3sN6aC-27" value="Block #2" style="text;html=1;align=center;verticalAlign=middle;resizable=0;points=[];autosize=1;strokeColor=none;fillColor=none;" vertex="1" parent="1">
          <mxGeometry x="428.5" y="541" width="70" height="30" as="geometry" />
        </mxCell>
      </root>
    </mxGraphModel>
  </diagram>
</mxfile>
